<?xml version="1.0" encoding="UTF-8" standalone="no"?>
<!DOCTYPE svg PUBLIC "-//W3C//DTD SVG 1.1//EN"
 "http://www.w3.org/Graphics/SVG/1.1/DTD/svg11.dtd">
<!-- Generated by graphviz version 14.1.4 (20260321.0153)
 -->
<!-- Title: packages Pages: 1 -->
<svg width="891pt" height="1264pt"
 viewBox="0.00 0.00 891.00 1264.00" xmlns="http://www.w3.org/2000/svg" xmlns:xlink="http://www.w3.org/1999/xlink">
<g id="graph0" class="graph" transform="scale(1 1) rotate(0) translate(4 1260)">
<title>packages</title>
<polygon fill="white" stroke="none" points="-4,4 -4,-1260 887.25,-1260 887.25,4 -4,4"/>
<g id="clust1" class="cluster">
<title>cluster_HTTP2_UTILS</title>
<polygon fill="none" stroke="black" points="179.75,-888 179.75,-965 560.25,-965 560.25,-888 179.75,-888"/>
<text xml:space="preserve" text-anchor="middle" x="370" y="-947.7" font-family="Times,serif" font-size="14.00">HTTP2/UTILS</text>
</g>
<g id="clust2" class="cluster">
<title>cluster_HTTP2_SERVER</title>
<polygon fill="none" stroke="black" points="459.38,-749 459.38,-880 591.12,-880 591.12,-749 459.38,-749"/>
<text xml:space="preserve" text-anchor="middle" x="525.25" y="-862.7" font-family="Times,serif" font-size="14.00">HTTP2/SERVER</text>
</g>
<g id="clust3" class="cluster">
<title>cluster_HTTP2_OPENSSL</title>
<polygon fill="none" stroke="black" points="399,-201 399,-548 875.25,-548 875.25,-201 399,-201"/>
<text xml:space="preserve" text-anchor="middle" x="637.12" y="-530.7" font-family="Times,serif" font-size="14.00">HTTP2/OPENSSL</text>
</g>
<g id="clust4" class="cluster">
<title>cluster_HTTP2_TCPIP</title>
<polygon fill="none" stroke="black" points="425.62,-556 425.62,-741 832.5,-741 832.5,-556 425.62,-556"/>
<text xml:space="preserve" text-anchor="middle" x="629.06" y="-723.7" font-family="Times,serif" font-size="14.00">HTTP2/TCPIP</text>
</g>
<g id="clust5" class="cluster">
<title>cluster_HTTP2_CORE</title>
<polygon fill="none" stroke="black" points="440.62,-8 440.62,-193 857.62,-193 857.62,-8 440.62,-8"/>
<text xml:space="preserve" text-anchor="middle" x="649.12" y="-175.7" font-family="Times,serif" font-size="14.00">HTTP2/CORE</text>
</g>
<!-- COMMUNICATION&#45;ERROR -->
<g id="COMMUNICATION&#45;ERROR" class="node external">
<title>COMMUNICATION&#45;ERROR</title>
<g id="a_COMMUNICATION&#45;ERROR"><a xlink:href="COMMUNICATION-ERROR" xlink:title="Something happens that prevents communication from going on, unless handled.">
<polygon fill="orange" stroke="none" points="371,-932 187.75,-932 187.75,-896 371,-896 371,-932"/>
<text xml:space="preserve" text-anchor="middle" x="279.38" y="-908.95" font-family="Times,serif" font-size="14.00">COMMUNICATION&#45;ERROR</text>
</a>
</g>
</g>
<!-- DONE -->
<g id="DONE" class="node external">
<title>DONE</title>
<g id="a_DONE"><a xlink:href="DONE" xlink:title="This condition is signalled when the socket on the other side is closed (for&#10;reading).">
<polygon fill="orange" stroke="none" points="552.25,-932 498.25,-932 498.25,-896 552.25,-896 552.25,-932"/>
<text xml:space="preserve" text-anchor="middle" x="525.25" y="-908.95" font-family="Times,serif" font-size="14.00">DONE</text>
</a>
</g>
</g>
<!-- COMMUNICATION&#45;ERROR&#45;&gt;DONE -->
<g id="edge19" class="edge">
<title>COMMUNICATION&#45;ERROR&#45;&gt;DONE</title>
<path fill="none" stroke="black" d="M370.84,-914C411.05,-914 456.16,-914 486.99,-914"/>
<polygon fill="black" stroke="black" points="486.96,-917.5 496.96,-914 486.96,-910.5 486.96,-917.5"/>
</g>
<!-- POLL&#45;TIMEOUT -->
<g id="POLL&#45;TIMEOUT" class="node external">
<title>POLL&#45;TIMEOUT</title>
<g id="a_POLL&#45;TIMEOUT"><a xlink:href="POLL-TIMEOUT" xlink:title="Poll was called with a timeout and returned before any file descriptor became&#10;ready.">
<polygon fill="orange" stroke="none" points="583.12,-793 467.38,-793 467.38,-757 583.12,-757 583.12,-793"/>
<text xml:space="preserve" text-anchor="middle" x="525.25" y="-769.95" font-family="Times,serif" font-size="14.00">POLL&#45;TIMEOUT</text>
</a>
</g>
</g>
<!-- COMMUNICATION&#45;ERROR&#45;&gt;POLL&#45;TIMEOUT -->
<g id="edge7" class="edge">
<title>COMMUNICATION&#45;ERROR&#45;&gt;POLL&#45;TIMEOUT</title>
<path fill="none" stroke="black" d="M293.94,-896.11C314.01,-870.96 354.14,-825.61 399,-802 416.52,-792.78 437.01,-786.7 456.27,-782.7"/>
<polygon fill="black" stroke="black" points="456.79,-786.17 465.96,-780.86 455.48,-779.29 456.79,-786.17"/>
</g>
<!-- WRITE&#45;FAILED -->
<g id="WRITE&#45;FAILED" class="node internal">
<title>WRITE&#45;FAILED</title>
<g id="a_WRITE&#45;FAILED"><a xlink:href="WRITE-FAILED" xlink:title="NIL">
<text xml:space="preserve" text-anchor="middle" x="525.25" y="-823.95" font-family="Times,serif" font-size="14.00">WRITE&#45;FAILED</text>
</a>
</g>
</g>
<!-- COMMUNICATION&#45;ERROR&#45;&gt;WRITE&#45;FAILED -->
<g id="edge8" class="edge">
<title>COMMUNICATION&#45;ERROR&#45;&gt;WRITE&#45;FAILED</title>
<path fill="none" stroke="black" d="M331.8,-896.08C369.82,-882.83 421.77,-864.72 462.11,-850.66"/>
<polygon fill="black" stroke="black" points="463.18,-853.99 471.47,-847.4 460.87,-847.38 463.18,-853.99"/>
</g>
<!-- OTHER&#45;SSL&#45;ERROR -->
<g id="OTHER&#45;SSL&#45;ERROR" class="node external">
<title>OTHER&#45;SSL&#45;ERROR</title>
<g id="a_OTHER&#45;SSL&#45;ERROR"><a xlink:href="OTHER-SSL-ERROR" xlink:title="ssl&#45;get&#45;error return code that we do not handle (yet)">
<polygon fill="orange" stroke="none" points="594.38,-407 456.12,-407 456.12,-371 594.38,-371 594.38,-407"/>
<text xml:space="preserve" text-anchor="middle" x="525.25" y="-383.95" font-family="Times,serif" font-size="14.00">OTHER&#45;SSL&#45;ERROR</text>
</a>
</g>
</g>
<!-- COMMUNICATION&#45;ERROR&#45;&gt;OTHER&#45;SSL&#45;ERROR -->
<g id="edge6" class="edge">
<title>COMMUNICATION&#45;ERROR&#45;&gt;OTHER&#45;SSL&#45;ERROR</title>
<path fill="none" stroke="black" d="M282.11,-896.14C290.31,-815.42 327.78,-485.7 399,-416 411.45,-403.81 428.01,-396.55 445,-392.35"/>
<polygon fill="black" stroke="black" points="445.64,-395.79 454.71,-390.32 444.2,-388.94 445.64,-395.79"/>
</g>
<!-- UNEXPECTED&#45;EOF -->
<g id="UNEXPECTED&#45;EOF" class="node internal">
<title>UNEXPECTED&#45;EOF</title>
<g id="a_UNEXPECTED&#45;EOF"><a xlink:href="UNEXPECTED-EOF" xlink:title="On an unexpected EOF, versions before OpenSSL 3.0 returned SSL_ERROR_SYSCALL,&#10;nothing was added to the error stack, and errno was 0.">
<text xml:space="preserve" text-anchor="middle" x="525.25" y="-437.95" font-family="Times,serif" font-size="14.00">UNEXPECTED&#45;EOF</text>
</a>
</g>
</g>
<!-- COMMUNICATION&#45;ERROR&#45;&gt;UNEXPECTED&#45;EOF -->
<g id="edge9" class="edge">
<title>COMMUNICATION&#45;ERROR&#45;&gt;UNEXPECTED&#45;EOF</title>
<path fill="none" stroke="black" d="M282.67,-896.07C292.66,-820.77 334.8,-531.15 399,-470 412.07,-457.55 429.44,-450.28 447.08,-446.16"/>
<polygon fill="black" stroke="black" points="447.44,-449.65 456.57,-444.27 446.08,-442.79 447.44,-449.65"/>
</g>
<!-- RETRY&#45;FLAG&#45;NOT&#45;SET -->
<g id="RETRY&#45;FLAG&#45;NOT&#45;SET" class="node internal">
<title>RETRY&#45;FLAG&#45;NOT&#45;SET</title>
<g id="a_RETRY&#45;FLAG&#45;NOT&#45;SET"><a xlink:href="RETRY-FLAG-NOT-SET" xlink:title="Openss ">
<text xml:space="preserve" text-anchor="middle" x="525.25" y="-491.95" font-family="Times,serif" font-size="14.00">RETRY&#45;FLAG&#45;NOT&#45;SET</text>
</a>
</g>
</g>
<!-- COMMUNICATION&#45;ERROR&#45;&gt;RETRY&#45;FLAG&#45;NOT&#45;SET -->
<g id="edge10" class="edge">
<title>COMMUNICATION&#45;ERROR&#45;&gt;RETRY&#45;FLAG&#45;NOT&#45;SET</title>
<path fill="none" stroke="black" d="M281.25,-896.03C284.99,-838.5 304.12,-656.57 399,-552 411.74,-537.96 428.71,-527.33 446.04,-519.34"/>
<polygon fill="black" stroke="black" points="447.07,-522.71 454.87,-515.54 444.3,-516.28 447.07,-522.71"/>
</g>
<!-- PEER&#45;SENT&#45;ALERT -->
<g id="PEER&#45;SENT&#45;ALERT" class="node internal">
<title>PEER&#45;SENT&#45;ALERT</title>
<g id="a_PEER&#45;SENT&#45;ALERT"><a xlink:href="PEER-SENT-ALERT" xlink:title="The TLS/SSL peer has closed the connection for writing by sending the&#10;close_notify alert. &#160;No more data can be read. &#160;This does not necessarily&#10;indicate that the underlying transport has been closed.">
<text xml:space="preserve" text-anchor="middle" x="525.25" y="-275.95" font-family="Times,serif" font-size="14.00">PEER&#45;SENT&#45;ALERT</text>
</a>
</g>
</g>
<!-- COMMUNICATION&#45;ERROR&#45;&gt;PEER&#45;SENT&#45;ALERT -->
<g id="edge11" class="edge">
<title>COMMUNICATION&#45;ERROR&#45;&gt;PEER&#45;SENT&#45;ALERT</title>
<path fill="none" stroke="black" d="M281.3,-896.08C286.36,-805.06 313.69,-394.95 399,-308 411.77,-294.98 429.21,-287.53 447.01,-283.42"/>
<polygon fill="black" stroke="black" points="447.47,-286.9 456.62,-281.56 446.14,-280.03 447.47,-286.9"/>
</g>
<!-- SIMPLE&#45;COMMUNICATION&#45;ERROR -->
<g id="SIMPLE&#45;COMMUNICATION&#45;ERROR" class="node external">
<title>SIMPLE&#45;COMMUNICATION&#45;ERROR</title>
<g id="a_SIMPLE&#45;COMMUNICATION&#45;ERROR"><a xlink:href="SIMPLE-COMMUNICATION-ERROR" xlink:title="NIL">
<polygon fill="orange" stroke="none" points="643.5,-245 407,-245 407,-209 643.5,-209 643.5,-245"/>
<text xml:space="preserve" text-anchor="middle" x="525.25" y="-221.95" font-family="Times,serif" font-size="14.00">SIMPLE&#45;COMMUNICATION&#45;ERROR</text>
</a>
</g>
</g>
<!-- COMMUNICATION&#45;ERROR&#45;&gt;SIMPLE&#45;COMMUNICATION&#45;ERROR -->
<g id="edge12" class="edge">
<title>COMMUNICATION&#45;ERROR&#45;&gt;SIMPLE&#45;COMMUNICATION&#45;ERROR</title>
<path fill="none" stroke="black" d="M280.99,-896.1C284.64,-800.37 306.58,-349.66 399,-254 399.61,-253.37 400.23,-252.75 400.86,-252.15"/>
<polygon fill="black" stroke="black" points="402.91,-255 408.42,-245.95 398.47,-249.58 402.91,-255"/>
</g>
<!-- SSL&#45;ERROR&#45;CONDITION -->
<g id="SSL&#45;ERROR&#45;CONDITION" class="node external">
<title>SSL&#45;ERROR&#45;CONDITION</title>
<g id="a_SSL&#45;ERROR&#45;CONDITION"><a xlink:href="SSL-ERROR-CONDITION" xlink:title="An error condition on SSL side that is not handled separately.&#10;&#10;The list of error codes is in openssl/sslerr.h.&#10;&#10;A non&#45;recoverable, fatal error in the SSL library occurred, usually a protocol&#10; error. &#160;The OpenSSL error queue contains more information on the error. If this&#10; error occurs then no further I/O operations should be performed on the&#10; connection and SSL_shutdown() must not be called.">
<polygon fill="orange" stroke="none" points="609.38,-353 441.12,-353 441.12,-317 609.38,-317 609.38,-353"/>
<text xml:space="preserve" text-anchor="middle" x="525.25" y="-329.95" font-family="Times,serif" font-size="14.00">SSL&#45;ERROR&#45;CONDITION</text>
</a>
</g>
</g>
<!-- COMMUNICATION&#45;ERROR&#45;&gt;SSL&#45;ERROR&#45;CONDITION -->
<g id="edge13" class="edge">
<title>COMMUNICATION&#45;ERROR&#45;&gt;SSL&#45;ERROR&#45;CONDITION</title>
<path fill="none" stroke="black" d="M281.65,-896.26C288.2,-810.57 320.7,-440.35 399,-362 407.79,-353.21 418.71,-346.97 430.41,-342.58"/>
<polygon fill="black" stroke="black" points="431.46,-345.92 439.9,-339.52 429.31,-339.26 431.46,-345.92"/>
</g>
<!-- TCPDELAY&#45;SETUP&#45;FAILED -->
<g id="TCPDELAY&#45;SETUP&#45;FAILED" class="node internal">
<title>TCPDELAY&#45;SETUP&#45;FAILED</title>
<g id="a_TCPDELAY&#45;SETUP&#45;FAILED"><a xlink:href="TCPDELAY-SETUP-FAILED" xlink:title="NIL">
<text xml:space="preserve" text-anchor="middle" x="525.25" y="-576.95" font-family="Times,serif" font-size="14.00">TCPDELAY&#45;SETUP&#45;FAILED</text>
</a>
</g>
</g>
<!-- COMMUNICATION&#45;ERROR&#45;&gt;TCPDELAY&#45;SETUP&#45;FAILED -->
<g id="edge14" class="edge">
<title>COMMUNICATION&#45;ERROR&#45;&gt;TCPDELAY&#45;SETUP&#45;FAILED</title>
<path fill="none" stroke="black" d="M281.63,-896.25C286.35,-843.54 307.78,-686.79 399,-609 406.18,-602.88 414.41,-598.05 423.16,-594.24"/>
<polygon fill="black" stroke="black" points="424.13,-597.62 432.22,-590.77 421.63,-591.08 424.13,-597.62"/>
</g>
<!-- THIS&#45;CANT&#45;HAPPEN -->
<g id="THIS&#45;CANT&#45;HAPPEN" class="node internal">
<title>THIS&#45;CANT&#45;HAPPEN</title>
<g id="a_THIS&#45;CANT&#45;HAPPEN"><a xlink:href="THIS-CANT-HAPPEN" xlink:title="NIL">
<text xml:space="preserve" text-anchor="middle" x="525.25" y="-630.95" font-family="Times,serif" font-size="14.00">THIS&#45;CANT&#45;HAPPEN</text>
</a>
</g>
</g>
<!-- COMMUNICATION&#45;ERROR&#45;&gt;THIS&#45;CANT&#45;HAPPEN -->
<g id="edge15" class="edge">
<title>COMMUNICATION&#45;ERROR&#45;&gt;THIS&#45;CANT&#45;HAPPEN</title>
<path fill="none" stroke="black" d="M283.28,-896.08C291.81,-849.64 321.23,-724.72 399,-663 411.6,-653 427.08,-646.5 442.8,-642.31"/>
<polygon fill="black" stroke="black" points="443.27,-645.79 452.21,-640.11 441.68,-638.98 443.27,-645.79"/>
</g>
<!-- SYSCALL&#45;ERROR -->
<g id="SYSCALL&#45;ERROR" class="node external">
<title>SYSCALL&#45;ERROR</title>
<g id="a_SYSCALL&#45;ERROR"><a xlink:href="SYSCALL-ERROR" xlink:title="Syscall failed. The printed form looks like&#10;```&#10;(socket&#45;bind &#45;1 0)&#10;.. debugger invoked on SYSCALL&#45;ERROR:&#10;.. &#160;&#160;#&lt;SYSCALL&#45;ERROR 9 (Bad file descriptor) on &#45;1 during #&lt;FUNCTION BIND&gt;&gt;&#10;```">
<polygon fill="orange" stroke="none" points="588,-708 462.5,-708 462.5,-672 588,-672 588,-708"/>
<text xml:space="preserve" text-anchor="middle" x="525.25" y="-684.95" font-family="Times,serif" font-size="14.00">SYSCALL&#45;ERROR</text>
</a>
</g>
</g>
<!-- COMMUNICATION&#45;ERROR&#45;&gt;SYSCALL&#45;ERROR -->
<g id="edge16" class="edge">
<title>COMMUNICATION&#45;ERROR&#45;&gt;SYSCALL&#45;ERROR</title>
<path fill="none" stroke="black" d="M288.8,-896.04C305.44,-862.25 345.62,-788.73 399,-745 415.59,-731.41 436.05,-720.57 455.59,-712.23"/>
<polygon fill="black" stroke="black" points="456.68,-715.56 464.61,-708.54 454.03,-709.08 456.68,-715.56"/>
</g>
<!-- CONNECTION&#45;ERROR -->
<g id="CONNECTION&#45;ERROR" class="node external">
<title>CONNECTION&#45;ERROR</title>
<g id="a_CONNECTION&#45;ERROR"><a xlink:href="CONNECTION-ERROR" xlink:title="A connection error is signalled when we detect an illegal frame content.&#10;&#10;Use [CONNECTION&#45;ERROR][function] function to signal it or its&#10;subclasses. A server should handle it, including closing the associated&#10;NETWORK&#45;STREAM.">
<polygon fill="orange" stroke="none" points="601.88,-160 448.62,-160 448.62,-124 601.88,-124 601.88,-160"/>
<text xml:space="preserve" text-anchor="middle" x="525.25" y="-136.95" font-family="Times,serif" font-size="14.00">CONNECTION&#45;ERROR</text>
</a>
</g>
</g>
<!-- COMMUNICATION&#45;ERROR&#45;&gt;CONNECTION&#45;ERROR -->
<g id="edge5" class="edge">
<title>COMMUNICATION&#45;ERROR&#45;&gt;CONNECTION&#45;ERROR</title>
<path fill="none" stroke="black" d="M282.31,-896.13C293.81,-790.87 354.35,-254.48 399,-197 409.92,-182.94 425.18,-172.4 441.3,-164.53"/>
<polygon fill="black" stroke="black" points="442.37,-167.89 450.05,-160.58 439.49,-161.51 442.37,-167.89"/>
</g>
<!-- CANNOT&#45;FLUSH -->
<g id="CANNOT&#45;FLUSH" class="node internal">
<title>CANNOT&#45;FLUSH</title>
<g id="a_CANNOT&#45;FLUSH"><a xlink:href="CANNOT-FLUSH" xlink:title="NIL">
<text xml:space="preserve" text-anchor="middle" x="525.25" y="-28.95" font-family="Times,serif" font-size="14.00">CANNOT&#45;FLUSH</text>
</a>
</g>
</g>
<!-- COMMUNICATION&#45;ERROR&#45;&gt;CANNOT&#45;FLUSH -->
<g id="edge17" class="edge">
<title>COMMUNICATION&#45;ERROR&#45;&gt;CANNOT&#45;FLUSH</title>
<path fill="none" stroke="black" d="M282.81,-896.23C299.57,-774.03 397.14,-63 399,-61 413.3,-45.6 434.11,-37.88 454.68,-34.29"/>
<polygon fill="black" stroke="black" points="455.12,-37.76 464.54,-32.9 454.15,-30.83 455.12,-37.76"/>
</g>
<!-- GO&#45;AWAY -->
<g id="GO&#45;AWAY" class="node external">
<title>GO&#45;AWAY</title>
<g id="a_GO&#45;AWAY"><a xlink:href="GO-AWAY" xlink:title="Signalled by DO&#45;GOAWAY when go&#45;away frame arrives.">
<polygon fill="orange" stroke="none" points="565.5,-106 485,-106 485,-70 565.5,-70 565.5,-106"/>
<text xml:space="preserve" text-anchor="middle" x="525.25" y="-82.95" font-family="Times,serif" font-size="14.00">GO&#45;AWAY</text>
</a>
</g>
</g>
<!-- COMMUNICATION&#45;ERROR&#45;&gt;GO&#45;AWAY -->
<g id="edge18" class="edge">
<title>COMMUNICATION&#45;ERROR&#45;&gt;GO&#45;AWAY</title>
<path fill="none" stroke="black" d="M282.74,-896.17C298.22,-779.56 385.04,-129.9 399,-115 417.88,-94.85 447.9,-87.89 473.82,-86.07"/>
<polygon fill="black" stroke="black" points="473.66,-89.58 483.49,-85.64 473.34,-82.59 473.66,-89.58"/>
</g>
<!-- PEER&#45;SENT&#45;CLOSE&#45;NOTIFY -->
<g id="PEER&#45;SENT&#45;CLOSE&#45;NOTIFY" class="node external">
<title>PEER&#45;SENT&#45;CLOSE&#45;NOTIFY</title>
<g id="a_PEER&#45;SENT&#45;CLOSE&#45;NOTIFY"><a xlink:href="PEER-SENT-CLOSE-NOTIFY" xlink:title="The TLS/SSL peer has closed the connection for writing by sending the&#10;close_notify alert. &#160;No more data can be read. &#160;This does not necessarily&#10;indicate that the underlying transport has been closed.">
<polygon fill="orange" stroke="none" points="867.25,-299 679.5,-299 679.5,-263 867.25,-263 867.25,-299"/>
<text xml:space="preserve" text-anchor="middle" x="773.38" y="-275.95" font-family="Times,serif" font-size="14.00">PEER&#45;SENT&#45;CLOSE&#45;NOTIFY</text>
</a>
</g>
</g>
<!-- PEER&#45;SENT&#45;ALERT&#45;&gt;PEER&#45;SENT&#45;CLOSE&#45;NOTIFY -->
<g id="edge20" class="edge">
<title>PEER&#45;SENT&#45;ALERT&#45;&gt;PEER&#45;SENT&#45;CLOSE&#45;NOTIFY</title>
<path fill="none" stroke="black" d="M592.21,-281C615.65,-281 642.65,-281 668.49,-281"/>
<polygon fill="black" stroke="black" points="668.35,-284.5 678.35,-281 668.35,-277.5 668.35,-284.5"/>
</g>
<!-- SSL&#45;SYSCALL&#45;ERROR -->
<g id="SSL&#45;SYSCALL&#45;ERROR" class="node external">
<title>SSL&#45;SYSCALL&#45;ERROR</title>
<g id="a_SSL&#45;SYSCALL&#45;ERROR"><a xlink:href="SSL-SYSCALL-ERROR" xlink:title="Some non&#45;recoverable, fatal I/O error occurred. The OpenSSL error&#10; queue may contain more information on the error. For socket I/O on Unix&#10; systems, consult errno for details. If this error occurs then no further I/O&#10; operations should be performed on the connection and SSL_shutdown() must not be&#10; called.&#10;&#10; This value can also be returned for other errors, check the error queue for&#10; details.">
<polygon fill="orange" stroke="none" points="850,-434 696.75,-434 696.75,-398 850,-398 850,-434"/>
<text xml:space="preserve" text-anchor="middle" x="773.38" y="-410.95" font-family="Times,serif" font-size="14.00">SSL&#45;SYSCALL&#45;ERROR</text>
</a>
</g>
</g>
<!-- SSL&#45;ERROR&#45;CONDITION&#45;&gt;SSL&#45;SYSCALL&#45;ERROR -->
<g id="edge21" class="edge">
<title>SSL&#45;ERROR&#45;CONDITION&#45;&gt;SSL&#45;SYSCALL&#45;ERROR</title>
<path fill="none" stroke="black" d="M609.36,-352.28C620.92,-355.22 632.56,-358.48 643.5,-362 670.76,-370.78 700.27,-382.94 724.18,-393.5"/>
<polygon fill="black" stroke="black" points="722.45,-396.56 733.01,-397.45 725.31,-390.17 722.45,-396.56"/>
</g>
<!-- SYSCALL&#45;ERROR&#45;&gt;SSL&#45;SYSCALL&#45;ERROR -->
<g id="edge22" class="edge">
<title>SYSCALL&#45;ERROR&#45;&gt;SSL&#45;SYSCALL&#45;ERROR</title>
<path fill="none" stroke="black" d="M587.86,-687.64C607.69,-684.03 628.41,-676.83 643.5,-663 681.74,-627.96 656.64,-598.55 679.5,-552 699.36,-511.54 729.98,-469.34 750.58,-442.88"/>
<polygon fill="black" stroke="black" points="753.29,-445.09 756.74,-435.07 747.8,-440.76 753.29,-445.09"/>
</g>
<!-- READ&#45;ERROR -->
<g id="READ&#45;ERROR" class="node internal">
<title>READ&#45;ERROR</title>
<g id="a_READ&#45;ERROR"><a xlink:href="READ-ERROR" xlink:title="Syscall error during read&#45;buffer. Should print nicely, e.g.,&#10;```&#10;(http2/tcpip:read&#45;socket* &#45;1)&#10;.. debugger invoked on HTTP2/TCPIP::READ&#45;ERROR:&#10;.. &#160;&#160;#&lt;READ&#45;ERROR 9 (Bad file descriptor) on &#45;1 during READ&gt;&#10;```">
<text xml:space="preserve" text-anchor="middle" x="773.38" y="-684.95" font-family="Times,serif" font-size="14.00">READ&#45;ERROR</text>
</a>
</g>
</g>
<!-- SYSCALL&#45;ERROR&#45;&gt;READ&#45;ERROR -->
<g id="edge23" class="edge">
<title>SYSCALL&#45;ERROR&#45;&gt;READ&#45;ERROR</title>
<path fill="none" stroke="black" d="M587.72,-690C625.4,-690 673.46,-690 711.1,-690"/>
<polygon fill="black" stroke="black" points="710.91,-693.5 720.91,-690 710.91,-686.5 710.91,-693.5"/>
</g>
<!-- GO&#45;AWAY&#45;NO&#45;ERROR -->
<g id="GO&#45;AWAY&#45;NO&#45;ERROR" class="node external">
<title>GO&#45;AWAY&#45;NO&#45;ERROR</title>
<g id="a_GO&#45;AWAY&#45;NO&#45;ERROR"><a xlink:href="GO-AWAY-NO-ERROR" xlink:title="Signalled when peer closes connection normally.">
<polygon fill="orange" stroke="none" points="849.62,-106 697.12,-106 697.12,-70 849.62,-70 849.62,-106"/>
<text xml:space="preserve" text-anchor="middle" x="773.38" y="-82.95" font-family="Times,serif" font-size="14.00">GO&#45;AWAY&#45;NO&#45;ERROR</text>
</a>
</g>
</g>
<!-- GO&#45;AWAY&#45;&gt;GO&#45;AWAY&#45;NO&#45;ERROR -->
<g id="edge24" class="edge">
<title>GO&#45;AWAY&#45;&gt;GO&#45;AWAY&#45;NO&#45;ERROR</title>
<path fill="none" stroke="black" d="M565.25,-88C597.59,-88 644.76,-88 685.92,-88"/>
<polygon fill="black" stroke="black" points="685.84,-91.5 695.84,-88 685.84,-84.5 685.84,-91.5"/>
</g>
<!-- ERROR -->
<!-- SIMPLE&#45;WARNING -->
<!-- WARNING -->
<!-- STANDARD&#45;OBJECT -->
<!-- SERIOUS&#45;CONDITION -->
<g id="SERIOUS&#45;CONDITION" class="node sink">
<title>SERIOUS&#45;CONDITION</title>
<g id="a_SERIOUS&#45;CONDITION"><a xlink:href="SERIOUS-CONDITION" xlink:title="SERIOUS&#45;CONDITION">
<text xml:space="preserve" text-anchor="middle" x="75.88" y="-908.95" font-family="Times,serif" font-size="14.00">SERIOUS&#45;CONDITION</text>
</a>
</g>
</g>
<!-- SERIOUS&#45;CONDITION&#45;&gt;COMMUNICATION&#45;ERROR -->
<g id="edge1" class="edge">
<title>SERIOUS&#45;CONDITION&#45;&gt;COMMUNICATION&#45;ERROR</title>
<path fill="none" stroke="black" d="M151.62,-914C159.78,-914 168.19,-914 176.6,-914"/>
<polygon fill="black" stroke="black" points="176.55,-917.5 186.55,-914 176.55,-910.5 176.55,-917.5"/>
</g>
<!-- CONDITION -->
<!-- SIMPLE&#45;ERROR -->
<!-- SIMPLE&#45;CONDITION -->
<g id="SIMPLE&#45;CONDITION" class="node sink">
<title>SIMPLE&#45;CONDITION</title>
<g id="a_SIMPLE&#45;CONDITION"><a xlink:href="SIMPLE-CONDITION" xlink:title="SIMPLE&#45;CONDITION">
<text xml:space="preserve" text-anchor="middle" x="279.38" y="-221.95" font-family="Times,serif" font-size="14.00">SIMPLE&#45;CONDITION</text>
</a>
</g>
</g>
<!-- SIMPLE&#45;CONDITION&#45;&gt;SIMPLE&#45;COMMUNICATION&#45;ERROR -->
<g id="edge2" class="edge">
<title>SIMPLE&#45;CONDITION&#45;&gt;SIMPLE&#45;COMMUNICATION&#45;ERROR</title>
<path fill="none" stroke="black" d="M351.24,-227C365.39,-227 380.65,-227 396.05,-227"/>
<polygon fill="black" stroke="black" points="395.76,-230.5 405.76,-227 395.76,-223.5 395.76,-230.5"/>
</g>
<!-- HTTP2&#45;CONDITION -->
<g id="HTTP2&#45;CONDITION" class="node sink">
<title>HTTP2&#45;CONDITION</title>
<g id="a_HTTP2&#45;CONDITION"><a xlink:href="HTTP2-CONDITION" xlink:title="HTTP2&#45;CONDITION">
<text xml:space="preserve" text-anchor="middle" x="279.38" y="-82.95" font-family="Times,serif" font-size="14.00">HTTP2&#45;CONDITION</text>
</a>
</g>
</g>
<!-- HTTP2&#45;CONDITION&#45;&gt;GO&#45;AWAY -->
<g id="edge3" class="edge">
<title>HTTP2&#45;CONDITION&#45;&gt;GO&#45;AWAY</title>
<path fill="none" stroke="black" d="M347.34,-88C387.29,-88 437.2,-88 473.82,-88"/>
<polygon fill="black" stroke="black" points="473.69,-91.5 483.69,-88 473.69,-84.5 473.69,-91.5"/>
</g>
<!-- END&#45;OF&#45;FILE -->
<g id="END&#45;OF&#45;FILE" class="node sink">
<title>END&#45;OF&#45;FILE</title>
<g id="a_END&#45;OF&#45;FILE"><a xlink:href="END-OF-FILE" xlink:title="END&#45;OF&#45;FILE">
<text xml:space="preserve" text-anchor="middle" x="279.38" y="-28.95" font-family="Times,serif" font-size="14.00">END&#45;OF&#45;FILE</text>
</a>
</g>
</g>
<!-- END&#45;OF&#45;FILE&#45;&gt;CANNOT&#45;FLUSH -->
<g id="edge4" class="edge">
<title>END&#45;OF&#45;FILE&#45;&gt;CANNOT&#45;FLUSH</title>
<path fill="none" stroke="black" d="M328.56,-34C364.64,-34 414.53,-34 454.9,-34"/>
<polygon fill="black" stroke="black" points="454.77,-37.5 464.77,-34 454.77,-30.5 454.77,-37.5"/>
</g>
</g>
</svg>
