<?xml version="1.0" encoding="UTF-8" standalone="no"?>
<!DOCTYPE svg PUBLIC "-//W3C//DTD SVG 1.1//EN"
 "http://www.w3.org/Graphics/SVG/1.1/DTD/svg11.dtd">
<!-- Generated by graphviz version 14.1.4 (20260321.0153)
 -->
<!-- Title: packages Pages: 1 -->
<svg width="1115pt" height="647pt"
 viewBox="0.00 0.00 1115.00 647.00" xmlns="http://www.w3.org/2000/svg" xmlns:xlink="http://www.w3.org/1999/xlink">
<g id="graph0" class="graph" transform="scale(1 1) rotate(0) translate(4 643)">
<title>packages</title>
<polygon fill="white" stroke="none" points="-4,4 -4,-643 1110.86,-643 1110.86,4 -4,4"/>
<g id="clust1" class="cluster">
<title>cluster_HTTP2_CORE</title>
<polygon fill="none" stroke="black" points="35.61,-93 35.61,-386 1096.24,-386 1096.24,-93 35.61,-93"/>
<text xml:space="preserve" text-anchor="middle" x="565.92" y="-368.7" font-family="Times,serif" font-size="14.00">HTTP2/CORE</text>
</g>
<g id="clust2" class="cluster">
<title>cluster_HTTP2_CLIENT</title>
<polygon fill="none" stroke="black" points="862.11,-8 862.11,-85 1096.61,-85 1096.61,-8 862.11,-8"/>
<text xml:space="preserve" text-anchor="middle" x="979.36" y="-67.7" font-family="Times,serif" font-size="14.00">HTTP2/CLIENT</text>
</g>
<g id="clust3" class="cluster">
<title>cluster_HTTP2_SERVER</title>
<polygon fill="none" stroke="black" points="625.99,-500 625.99,-631 1098.86,-631 1098.86,-500 625.99,-500"/>
<text xml:space="preserve" text-anchor="middle" x="862.42" y="-613.7" font-family="Times,serif" font-size="14.00">HTTP2/SERVER</text>
</g>
<!-- TEST&#45;BUFFERED&#45;STREAM -->
<g id="TEST&#45;BUFFERED&#45;STREAM" class="node internal">
<title>TEST&#45;BUFFERED&#45;STREAM</title>
<g id="a_TEST&#45;BUFFERED&#45;STREAM"><a xlink:href="TEST-BUFFERED-STREAM" xlink:title="NIL">
<text xml:space="preserve" text-anchor="middle" x="729.36" y="-167.95" font-family="Times,serif" font-size="14.00">TEST&#45;BUFFERED&#45;STREAM</text>
</a>
</g>
</g>
<!-- HTTP2&#45;CONNECTION -->
<g id="HTTP2&#45;CONNECTION" class="node external">
<title>HTTP2&#45;CONNECTION</title>
<g id="a_HTTP2&#45;CONNECTION"><a xlink:href="HTTP2-CONNECTION" xlink:title="A simple connection instance reflecting several aspects of the connections:&#10;&#10;&#45; connection is a collection of streams &#160;(STREAM&#45;COLLECTION),&#10;&#45; connection maintains flow control (FLOW&#45;CONTROL&#45;MIXIN),&#10;&#45; connection maintains hpack state (HPACK&#45;ENDPOINT),&#10;&#45; connection maintain some &#160;internal configuration variables such as maximum frames size (FRAME&#45;CONTEXT),&#10;&#45; connection maintain window sizes (FLOW&#45;CONTROL&#45;MIXIN),&#10;&#45; connection can create new streams and needs to track the parameters of the new stream (class, windows sizes)">
<polygon fill="orange" stroke="none" points="538.74,-245 389.99,-245 389.99,-209 538.74,-209 538.74,-245"/>
<text xml:space="preserve" text-anchor="middle" x="464.36" y="-221.95" font-family="Times,serif" font-size="14.00">HTTP2&#45;CONNECTION</text>
</a>
</g>
</g>
<!-- HTTP2&#45;CONNECTION&#45;&gt;TEST&#45;BUFFERED&#45;STREAM -->
<g id="edge10" class="edge">
<title>HTTP2&#45;CONNECTION&#45;&gt;TEST&#45;BUFFERED&#45;STREAM</title>
<path fill="none" stroke="black" d="M538.62,-211.96C566.91,-206.15 599.71,-199.41 630,-193.2"/>
<polygon fill="black" stroke="black" points="630.46,-196.67 639.55,-191.23 629.05,-189.82 630.46,-196.67"/>
</g>
<!-- DUMMY&#45;CONNECTION -->
<g id="DUMMY&#45;CONNECTION" class="node internal">
<title>DUMMY&#45;CONNECTION</title>
<g id="a_DUMMY&#45;CONNECTION"><a xlink:href="DUMMY-CONNECTION" xlink:title="NIL">
<text xml:space="preserve" text-anchor="middle" x="729.36" y="-275.95" font-family="Times,serif" font-size="14.00">DUMMY&#45;CONNECTION</text>
</a>
</g>
</g>
<!-- HTTP2&#45;CONNECTION&#45;&gt;DUMMY&#45;CONNECTION -->
<g id="edge11" class="edge">
<title>HTTP2&#45;CONNECTION&#45;&gt;DUMMY&#45;CONNECTION</title>
<path fill="none" stroke="black" d="M538.62,-242.04C569.48,-248.38 605.71,-255.82 638.19,-262.49"/>
<polygon fill="black" stroke="black" points="637.06,-265.83 647.56,-264.41 638.47,-258.97 637.06,-265.83"/>
</g>
<!-- SERVER&#45;HTTP2&#45;CONNECTION -->
<g id="SERVER&#45;HTTP2&#45;CONNECTION" class="node external">
<title>SERVER&#45;HTTP2&#45;CONNECTION</title>
<g id="a_SERVER&#45;HTTP2&#45;CONNECTION"><a xlink:href="SERVER-HTTP2-CONNECTION" xlink:title="A server connection. It initiates even numbered streams, starting with 2.">
<polygon fill="orange" stroke="none" points="831.86,-353 626.86,-353 626.86,-317 831.86,-317 831.86,-353"/>
<text xml:space="preserve" text-anchor="middle" x="729.36" y="-329.95" font-family="Times,serif" font-size="14.00">SERVER&#45;HTTP2&#45;CONNECTION</text>
</a>
</g>
</g>
<!-- HTTP2&#45;CONNECTION&#45;&gt;SERVER&#45;HTTP2&#45;CONNECTION -->
<g id="edge12" class="edge">
<title>HTTP2&#45;CONNECTION&#45;&gt;SERVER&#45;HTTP2&#45;CONNECTION</title>
<path fill="none" stroke="black" d="M538.64,-232.88C556.85,-236.9 575.53,-243.45 590.86,-254 614.44,-270.24 602.79,-291.23 625.99,-308 627.77,-309.29 629.62,-310.52 631.51,-311.69"/>
<polygon fill="black" stroke="black" points="629.56,-314.61 640.01,-316.35 632.92,-308.47 629.56,-314.61"/>
</g>
<!-- CLIENT&#45;HTTP2&#45;CONNECTION -->
<g id="CLIENT&#45;HTTP2&#45;CONNECTION" class="node external">
<title>CLIENT&#45;HTTP2&#45;CONNECTION</title>
<g id="a_CLIENT&#45;HTTP2&#45;CONNECTION"><a xlink:href="CLIENT-HTTP2-CONNECTION" xlink:title="A client connection. It&#10;&#10;&#45; initiates odd&#45;numbered streams, starting with one,&#10;&#45; sends client preface and settings when created">
<polygon fill="orange" stroke="none" points="829.61,-245 629.11,-245 629.11,-209 829.61,-209 829.61,-245"/>
<text xml:space="preserve" text-anchor="middle" x="729.36" y="-221.95" font-family="Times,serif" font-size="14.00">CLIENT&#45;HTTP2&#45;CONNECTION</text>
</a>
</g>
</g>
<!-- HTTP2&#45;CONNECTION&#45;&gt;CLIENT&#45;HTTP2&#45;CONNECTION -->
<g id="edge13" class="edge">
<title>HTTP2&#45;CONNECTION&#45;&gt;CLIENT&#45;HTTP2&#45;CONNECTION</title>
<path fill="none" stroke="black" d="M538.62,-227C563.23,-227 591.24,-227 618.04,-227"/>
<polygon fill="black" stroke="black" points="617.93,-230.5 627.93,-227 617.93,-223.5 617.93,-230.5"/>
</g>
<!-- DUMMY&#45;CLIENT&#45;CONNECTION -->
<g id="DUMMY&#45;CLIENT&#45;CONNECTION" class="node internal">
<title>DUMMY&#45;CLIENT&#45;CONNECTION</title>
<g id="a_DUMMY&#45;CLIENT&#45;CONNECTION"><a xlink:href="DUMMY-CLIENT-CONNECTION" xlink:title="NIL">
<text xml:space="preserve" text-anchor="middle" x="979.36" y="-221.95" font-family="Times,serif" font-size="14.00">DUMMY&#45;CLIENT&#45;CONNECTION</text>
</a>
</g>
</g>
<!-- DUMMY&#45;CONNECTION&#45;&gt;DUMMY&#45;CLIENT&#45;CONNECTION -->
<g id="edge14" class="edge">
<title>DUMMY&#45;CONNECTION&#45;&gt;DUMMY&#45;CLIENT&#45;CONNECTION</title>
<path fill="none" stroke="black" d="M809.85,-263.69C833.69,-258.5 860.05,-252.76 884.71,-247.39"/>
<polygon fill="black" stroke="black" points="885.4,-250.82 894.43,-245.28 883.91,-243.98 885.4,-250.82"/>
</g>
<!-- DUMMY&#45;SERVER&#45;CONNECTION -->
<g id="DUMMY&#45;SERVER&#45;CONNECTION" class="node internal">
<title>DUMMY&#45;SERVER&#45;CONNECTION</title>
<g id="a_DUMMY&#45;SERVER&#45;CONNECTION"><a xlink:href="DUMMY-SERVER-CONNECTION" xlink:title="NIL">
<text xml:space="preserve" text-anchor="middle" x="979.36" y="-302.95" font-family="Times,serif" font-size="14.00">DUMMY&#45;SERVER&#45;CONNECTION</text>
</a>
</g>
</g>
<!-- DUMMY&#45;CONNECTION&#45;&gt;DUMMY&#45;SERVER&#45;CONNECTION -->
<g id="edge15" class="edge">
<title>DUMMY&#45;CONNECTION&#45;&gt;DUMMY&#45;SERVER&#45;CONNECTION</title>
<path fill="none" stroke="black" d="M809.85,-289.65C825.78,-291.39 842.83,-293.24 859.74,-295.09"/>
<polygon fill="black" stroke="black" points="859,-298.53 869.32,-296.13 859.76,-291.57 859,-298.53"/>
</g>
<!-- SERVER&#45;HTTP2&#45;CONNECTION&#45;&gt;DUMMY&#45;SERVER&#45;CONNECTION -->
<g id="edge16" class="edge">
<title>SERVER&#45;HTTP2&#45;CONNECTION&#45;&gt;DUMMY&#45;SERVER&#45;CONNECTION</title>
<path fill="none" stroke="black" d="M831.59,-323.98C840.73,-322.98 850.04,-321.97 859.32,-320.96"/>
<polygon fill="black" stroke="black" points="859.53,-324.46 869.1,-319.9 858.78,-317.5 859.53,-324.46"/>
</g>
<!-- POLL&#45;SERVER&#45;CONNECTION -->
<g id="POLL&#45;SERVER&#45;CONNECTION" class="node internal">
<title>POLL&#45;SERVER&#45;CONNECTION</title>
<g id="a_POLL&#45;SERVER&#45;CONNECTION"><a xlink:href="POLL-SERVER-CONNECTION" xlink:title="The poll server connection has a client object and send data to it.">
<text xml:space="preserve" text-anchor="middle" x="979.36" y="-520.95" font-family="Times,serif" font-size="14.00">POLL&#45;SERVER&#45;CONNECTION</text>
</a>
</g>
</g>
<!-- SERVER&#45;HTTP2&#45;CONNECTION&#45;&gt;POLL&#45;SERVER&#45;CONNECTION -->
<g id="edge17" class="edge">
<title>SERVER&#45;HTTP2&#45;CONNECTION&#45;&gt;POLL&#45;SERVER&#45;CONNECTION</title>
<path fill="none" stroke="black" d="M753.69,-352.97C798.3,-387.33 895.75,-462.38 946.39,-501.37"/>
<polygon fill="black" stroke="black" points="944.02,-503.97 954.07,-507.29 948.29,-498.42 944.02,-503.97"/>
</g>
<!-- VANILLA&#45;SERVER&#45;CONNECTION -->
<g id="VANILLA&#45;SERVER&#45;CONNECTION" class="node internal">
<title>VANILLA&#45;SERVER&#45;CONNECTION</title>
<g id="a_VANILLA&#45;SERVER&#45;CONNECTION"><a xlink:href="VANILLA-SERVER-CONNECTION" xlink:title="A server connection that spawns streams of VANILLA&#45;SERVER&#45;STREAM type when a&#10;new stream is requested, allows scheduled or other asynchronous writes, and&#10;optionally prints activities.">
<text xml:space="preserve" text-anchor="middle" x="979.36" y="-574.95" font-family="Times,serif" font-size="14.00">VANILLA&#45;SERVER&#45;CONNECTION</text>
</a>
</g>
</g>
<!-- SERVER&#45;HTTP2&#45;CONNECTION&#45;&gt;VANILLA&#45;SERVER&#45;CONNECTION -->
<g id="edge18" class="edge">
<title>SERVER&#45;HTTP2&#45;CONNECTION&#45;&gt;VANILLA&#45;SERVER&#45;CONNECTION</title>
<path fill="none" stroke="black" d="M747.21,-352.75C769.24,-376.78 807.86,-421.74 831.86,-466 851.38,-501.99 831.67,-525.63 862.11,-553 863.06,-553.85 864.02,-554.67 865.01,-555.47"/>
<polygon fill="black" stroke="black" points="862.92,-558.29 873.12,-561.15 866.94,-552.55 862.92,-558.29"/>
</g>
<!-- CLIENT&#45;HTTP2&#45;CONNECTION&#45;&gt;DUMMY&#45;CLIENT&#45;CONNECTION -->
<g id="edge19" class="edge">
<title>CLIENT&#45;HTTP2&#45;CONNECTION&#45;&gt;DUMMY&#45;CLIENT&#45;CONNECTION</title>
<path fill="none" stroke="black" d="M829.45,-227C840.06,-227 850.93,-227 861.72,-227"/>
<polygon fill="black" stroke="black" points="861.42,-230.5 871.42,-227 861.42,-223.5 861.42,-230.5"/>
</g>
<!-- VANILLA&#45;CLIENT&#45;CONNECTION -->
<g id="VANILLA&#45;CLIENT&#45;CONNECTION" class="node external">
<title>VANILLA&#45;CLIENT&#45;CONNECTION</title>
<g id="a_VANILLA&#45;CLIENT&#45;CONNECTION"><a xlink:href="VANILLA-CLIENT-CONNECTION" xlink:title="Connection class for retrieve&#45;url style functions that uses streams of&#10; &#160;&#160;VANILLA&#45;CLIENT&#45;STREAM. Behaves as client, can send pings to measure roundtrip&#10; &#160;&#160;time and optionally prints history. See individual superclasses for details.">
<polygon fill="orange" stroke="none" points="1088.61,-52 870.11,-52 870.11,-16 1088.61,-16 1088.61,-52"/>
<text xml:space="preserve" text-anchor="middle" x="979.36" y="-28.95" font-family="Times,serif" font-size="14.00">VANILLA&#45;CLIENT&#45;CONNECTION</text>
</a>
</g>
</g>
<!-- CLIENT&#45;HTTP2&#45;CONNECTION&#45;&gt;VANILLA&#45;CLIENT&#45;CONNECTION -->
<g id="edge20" class="edge">
<title>CLIENT&#45;HTTP2&#45;CONNECTION&#45;&gt;VANILLA&#45;CLIENT&#45;CONNECTION</title>
<path fill="none" stroke="black" d="M820.33,-209.17C824.49,-206.51 828.37,-203.47 831.86,-200 868.13,-163.95 829.27,-128.19 862.11,-89 873.69,-75.18 889.53,-64.61 905.79,-56.61"/>
<polygon fill="black" stroke="black" points="906.93,-59.94 914.56,-52.59 904.01,-53.58 906.93,-59.94"/>
</g>
<!-- FRAME&#45;CONTEXT -->
<g id="FRAME&#45;CONTEXT" class="node external">
<title>FRAME&#45;CONTEXT</title>
<g id="a_FRAME&#45;CONTEXT"><a xlink:href="FRAME-CONTEXT" xlink:title="NIL">
<polygon fill="orange" stroke="none" points="238.11,-245 107.36,-245 107.36,-209 238.11,-209 238.11,-245"/>
<text xml:space="preserve" text-anchor="middle" x="172.74" y="-221.95" font-family="Times,serif" font-size="14.00">FRAME&#45;CONTEXT</text>
</a>
</g>
</g>
<!-- FRAME&#45;CONTEXT&#45;&gt;HTTP2&#45;CONNECTION -->
<g id="edge21" class="edge">
<title>FRAME&#45;CONTEXT&#45;&gt;HTTP2&#45;CONNECTION</title>
<path fill="none" stroke="black" d="M238.01,-227C279.41,-227 333.67,-227 378.58,-227"/>
<polygon fill="black" stroke="black" points="378.57,-230.5 388.56,-227 378.56,-223.5 378.57,-230.5"/>
</g>
<!-- STREAM&#45;COLLECTION -->
<g id="STREAM&#45;COLLECTION" class="node external">
<title>STREAM&#45;COLLECTION</title>
<g id="a_STREAM&#45;COLLECTION"><a xlink:href="STREAM-COLLECTION" xlink:title="Live connections can have zero, one or more @STREAMS that are not closed, and&#10;can generate new ones.">
<polygon fill="orange" stroke="none" points="253.11,-299 92.36,-299 92.36,-263 253.11,-263 253.11,-299"/>
<text xml:space="preserve" text-anchor="middle" x="172.74" y="-275.95" font-family="Times,serif" font-size="14.00">STREAM&#45;COLLECTION</text>
</a>
</g>
</g>
<!-- STREAM&#45;COLLECTION&#45;&gt;HTTP2&#45;CONNECTION -->
<g id="edge22" class="edge">
<title>STREAM&#45;COLLECTION&#45;&gt;HTTP2&#45;CONNECTION</title>
<path fill="none" stroke="black" d="M252.88,-266.24C291.99,-258.95 339.2,-250.15 378.99,-242.73"/>
<polygon fill="black" stroke="black" points="379.6,-246.18 388.79,-240.9 378.32,-239.3 379.6,-246.18"/>
</g>
<!-- HPACK&#45;ENDPOINT -->
<g id="HPACK&#45;ENDPOINT" class="node internal">
<title>HPACK&#45;ENDPOINT</title>
<g id="a_HPACK&#45;ENDPOINT"><a xlink:href="HPACK-ENDPOINT" xlink:title="NIL">
<text xml:space="preserve" text-anchor="middle" x="172.74" y="-167.95" font-family="Times,serif" font-size="14.00">HPACK&#45;ENDPOINT</text>
</a>
</g>
</g>
<!-- HPACK&#45;ENDPOINT&#45;&gt;HTTP2&#45;CONNECTION -->
<g id="edge23" class="edge">
<title>HPACK&#45;ENDPOINT&#45;&gt;HTTP2&#45;CONNECTION</title>
<path fill="none" stroke="black" d="M239.46,-185.25C280.77,-192.96 334.47,-202.97 378.92,-211.26"/>
<polygon fill="black" stroke="black" points="378.05,-214.65 388.52,-213.05 379.33,-207.77 378.05,-214.65"/>
</g>
<!-- WRITE&#45;BUFFER&#45;CONNECTION&#45;MIXIN -->
<g id="WRITE&#45;BUFFER&#45;CONNECTION&#45;MIXIN" class="node external">
<title>WRITE&#45;BUFFER&#45;CONNECTION&#45;MIXIN</title>
<g id="a_WRITE&#45;BUFFER&#45;CONNECTION&#45;MIXIN"><a xlink:href="WRITE-BUFFER-CONNECTION-MIXIN" xlink:title="Stores queued frame in a per&#45;connection write buffer. The internals of the&#10;buffer are opaque.">
<polygon fill="orange" stroke="none" points="590.86,-299 337.86,-299 337.86,-263 590.86,-263 590.86,-299"/>
<text xml:space="preserve" text-anchor="middle" x="464.36" y="-275.95" font-family="Times,serif" font-size="14.00">WRITE&#45;BUFFER&#45;CONNECTION&#45;MIXIN</text>
</a>
</g>
</g>
<!-- WRITE&#45;BUFFER&#45;CONNECTION&#45;MIXIN&#45;&gt;DUMMY&#45;CONNECTION -->
<g id="edge24" class="edge">
<title>WRITE&#45;BUFFER&#45;CONNECTION&#45;MIXIN&#45;&gt;DUMMY&#45;CONNECTION</title>
<path fill="none" stroke="black" d="M590.7,-281C606.41,-281 622.23,-281 637.28,-281"/>
<polygon fill="black" stroke="black" points="637.1,-284.5 647.1,-281 637.1,-277.5 637.1,-284.5"/>
</g>
<!-- STREAM&#45;BASED&#45;CONNECTION&#45;MIXIN -->
<g id="STREAM&#45;BASED&#45;CONNECTION&#45;MIXIN" class="node external">
<title>STREAM&#45;BASED&#45;CONNECTION&#45;MIXIN</title>
<g id="a_STREAM&#45;BASED&#45;CONNECTION&#45;MIXIN"><a xlink:href="STREAM-BASED-CONNECTION-MIXIN" xlink:title="A mixin for connections that read frames from and write to Common Lisp stream (in&#10;slot NETWORK&#45;STREAM).">
<polygon fill="orange" stroke="none" points="301.86,-353 43.61,-353 43.61,-317 301.86,-317 301.86,-353"/>
<text xml:space="preserve" text-anchor="middle" x="172.74" y="-329.95" font-family="Times,serif" font-size="14.00">STREAM&#45;BASED&#45;CONNECTION&#45;MIXIN</text>
</a>
</g>
</g>
<!-- STREAM&#45;BASED&#45;CONNECTION&#45;MIXIN&#45;&gt;VANILLA&#45;CLIENT&#45;CONNECTION -->
<g id="edge28" class="edge">
<title>STREAM&#45;BASED&#45;CONNECTION&#45;MIXIN&#45;&gt;VANILLA&#45;CLIENT&#45;CONNECTION</title>
<path fill="none" stroke="black" d="M289.54,-317.09C293.91,-314.42 298.05,-311.4 301.86,-308 339.62,-274.32 300.89,-234.54 337.86,-200 480.79,-66.49 716.92,-37.15 859.06,-32.46"/>
<polygon fill="black" stroke="black" points="858.99,-35.97 868.88,-32.18 858.78,-28.97 858.99,-35.97"/>
</g>
<!-- STREAM&#45;BASED&#45;CONNECTION&#45;MIXIN&#45;&gt;VANILLA&#45;SERVER&#45;CONNECTION -->
<g id="edge29" class="edge">
<title>STREAM&#45;BASED&#45;CONNECTION&#45;MIXIN&#45;&gt;VANILLA&#45;SERVER&#45;CONNECTION</title>
<path fill="none" stroke="black" d="M301.68,-337.49C444.52,-346.42 676.04,-380.01 831.86,-499 853.73,-515.7 840.12,-536.48 862.11,-553 863.68,-554.18 865.29,-555.3 866.93,-556.38"/>
<polygon fill="black" stroke="black" points="865.02,-559.32 875.43,-561.29 868.52,-553.25 865.02,-559.32"/>
</g>
<!-- TIMESHIFT&#45;PINGING&#45;CONNECTION -->
<g id="TIMESHIFT&#45;PINGING&#45;CONNECTION" class="node external">
<title>TIMESHIFT&#45;PINGING&#45;CONNECTION</title>
<g id="a_TIMESHIFT&#45;PINGING&#45;CONNECTION"><a xlink:href="TIMESHIFT-PINGING-CONNECTION" xlink:title="A mixin that implements specific DO&#45;PING and DO&#45;PONG so that the RTT is printed&#10;after DO&#45;PING is send.">
<polygon fill="orange" stroke="none" points="292.11,-137 53.36,-137 53.36,-101 292.11,-101 292.11,-137"/>
<text xml:space="preserve" text-anchor="middle" x="172.74" y="-113.95" font-family="Times,serif" font-size="14.00">TIMESHIFT&#45;PINGING&#45;CONNECTION</text>
</a>
</g>
</g>
<!-- TIMESHIFT&#45;PINGING&#45;CONNECTION&#45;&gt;VANILLA&#45;CLIENT&#45;CONNECTION -->
<g id="edge30" class="edge">
<title>TIMESHIFT&#45;PINGING&#45;CONNECTION&#45;&gt;VANILLA&#45;CLIENT&#45;CONNECTION</title>
<path fill="none" stroke="black" d="M292.03,-106.5C444.06,-90.44 706.54,-62.71 859.06,-46.6"/>
<polygon fill="black" stroke="black" points="859.22,-50.11 868.8,-45.57 858.49,-43.14 859.22,-50.11"/>
</g>
<!-- ROUTING&#45;MIXIN -->
<g id="ROUTING&#45;MIXIN" class="node external">
<title>ROUTING&#45;MIXIN</title>
<g id="a_ROUTING&#45;MIXIN"><a xlink:href="ROUTING-MIXIN" xlink:title="Defined two sets of handlers, exact and prefix, for the dispatcher. Appropriate&#10;handler is run to process the request when peer closes the http2 stream. The exact handler must match fully the path (so not the query), prefix handlers matches when the path starts with the prefix.&#10;&#10;Protocol and domain are not checked. The behaviour is implemented in the&#10;appropriate PEER&#45;ENDS&#45;HTTP&#45;STREAM method.">
<polygon fill="orange" stroke="none" points="790.61,-544 668.11,-544 668.11,-508 790.61,-508 790.61,-544"/>
<text xml:space="preserve" text-anchor="middle" x="729.36" y="-520.95" font-family="Times,serif" font-size="14.00">ROUTING&#45;MIXIN</text>
</a>
</g>
</g>
<!-- ROUTING&#45;MIXIN&#45;&gt;POLL&#45;SERVER&#45;CONNECTION -->
<g id="edge25" class="edge">
<title>ROUTING&#45;MIXIN&#45;&gt;POLL&#45;SERVER&#45;CONNECTION</title>
<path fill="none" stroke="black" d="M790.4,-526C814.21,-526 842.36,-526 869.52,-526"/>
<polygon fill="black" stroke="black" points="869.16,-529.5 879.16,-526 869.16,-522.5 869.16,-529.5"/>
</g>
<!-- ROUTING&#45;MIXIN&#45;&gt;VANILLA&#45;SERVER&#45;CONNECTION -->
<g id="edge26" class="edge">
<title>ROUTING&#45;MIXIN&#45;&gt;VANILLA&#45;SERVER&#45;CONNECTION</title>
<path fill="none" stroke="black" d="M790.4,-539.07C818.74,-545.24 853.21,-552.75 884.86,-559.64"/>
<polygon fill="black" stroke="black" points="883.93,-563.02 894.45,-561.73 885.42,-556.18 883.93,-563.02"/>
</g>
<!-- THREADED&#45;SERVER&#45;MIXIN -->
<g id="THREADED&#45;SERVER&#45;MIXIN" class="node external">
<title>THREADED&#45;SERVER&#45;MIXIN</title>
<g id="a_THREADED&#45;SERVER&#45;MIXIN"><a xlink:href="THREADED-SERVER-MIXIN" xlink:title="A mixin for a connection that holds a lock in actions that write to the output network&#10;stream, and provides a second thread for scheduled activities (e.g., periodical&#10;events).">
<polygon fill="orange" stroke="none" points="824.74,-598 633.99,-598 633.99,-562 824.74,-562 824.74,-598"/>
<text xml:space="preserve" text-anchor="middle" x="729.36" y="-574.95" font-family="Times,serif" font-size="14.00">THREADED&#45;SERVER&#45;MIXIN</text>
</a>
</g>
</g>
<!-- THREADED&#45;SERVER&#45;MIXIN&#45;&gt;VANILLA&#45;SERVER&#45;CONNECTION -->
<g id="edge27" class="edge">
<title>THREADED&#45;SERVER&#45;MIXIN&#45;&gt;VANILLA&#45;SERVER&#45;CONNECTION</title>
<path fill="none" stroke="black" d="M824.47,-580C835.05,-580 845.94,-580 856.8,-580"/>
<polygon fill="black" stroke="black" points="856.58,-583.5 866.58,-580 856.58,-576.5 856.58,-583.5"/>
</g>
<!-- FLOW&#45;CONTROL&#45;MIXIN -->
<g id="FLOW&#45;CONTROL&#45;MIXIN" class="node sink">
<title>FLOW&#45;CONTROL&#45;MIXIN</title>
<g id="a_FLOW&#45;CONTROL&#45;MIXIN"><a xlink:href="FLOW-CONTROL-MIXIN" xlink:title="FLOW&#45;CONTROL&#45;MIXIN">
<text xml:space="preserve" text-anchor="middle" x="172.74" y="-406.95" font-family="Times,serif" font-size="14.00">FLOW&#45;CONTROL&#45;MIXIN</text>
</a>
</g>
</g>
<!-- FLOW&#45;CONTROL&#45;MIXIN&#45;&gt;HTTP2&#45;CONNECTION -->
<g id="edge1" class="edge">
<title>FLOW&#45;CONTROL&#45;MIXIN&#45;&gt;HTTP2&#45;CONNECTION</title>
<path fill="none" stroke="black" d="M256.59,-411.69C273.21,-408.05 289.37,-401.43 301.86,-390 347.99,-347.79 292.63,-297.16 337.86,-254 349.21,-243.17 363.82,-236.25 379.02,-231.92"/>
<polygon fill="black" stroke="black" points="379.81,-235.33 388.69,-229.56 378.15,-228.53 379.81,-235.33"/>
</g>
<!-- STANDARD&#45;OBJECT -->
<!-- STANDARD&#45;OBJECT&#45;&gt;FRAME&#45;CONTEXT -->
<!-- STANDARD&#45;OBJECT&#45;&gt;STREAM&#45;COLLECTION -->
<!-- STANDARD&#45;OBJECT&#45;&gt;HPACK&#45;ENDPOINT -->
<!-- STANDARD&#45;OBJECT&#45;&gt;WRITE&#45;BUFFER&#45;CONNECTION&#45;MIXIN -->
<!-- STANDARD&#45;OBJECT&#45;&gt;STREAM&#45;BASED&#45;CONNECTION&#45;MIXIN -->
<!-- STANDARD&#45;OBJECT&#45;&gt;TIMESHIFT&#45;PINGING&#45;CONNECTION -->
<!-- STANDARD&#45;OBJECT&#45;&gt;ROUTING&#45;MIXIN -->
<!-- STANDARD&#45;OBJECT&#45;&gt;THREADED&#45;SERVER&#45;MIXIN -->
</g>
</svg>
