<?xml version="1.0" encoding="UTF-8" standalone="no"?>
<!DOCTYPE svg PUBLIC "-//W3C//DTD SVG 1.1//EN"
 "http://www.w3.org/Graphics/SVG/1.1/DTD/svg11.dtd">
<!-- Generated by graphviz version 14.1.4 (20260321.0153)
 -->
<!-- Title: packages Pages: 1 -->
<svg width="1329pt" height="1629pt"
 viewBox="0.00 0.00 1329.00 1629.00" xmlns="http://www.w3.org/2000/svg" xmlns:xlink="http://www.w3.org/1999/xlink">
<g id="graph0" class="graph" transform="scale(1 1) rotate(0) translate(4 1625)">
<title>packages</title>
<polygon fill="white" stroke="none" points="-4,4 -4,-1625 1324.75,-1625 1324.75,4 -4,4"/>
<g id="clust1" class="cluster">
<title>cluster_HTTP2_UTILS</title>
<polygon fill="none" stroke="black" points="179.75,-1181 179.75,-1258 560.25,-1258 560.25,-1181 179.75,-1181"/>
<text xml:space="preserve" text-anchor="middle" x="370" y="-1240.7" font-family="Times,serif" font-size="14.00">HTTP2/UTILS</text>
</g>
<g id="clust2" class="cluster">
<title>cluster_HTTP2_SERVER</title>
<polygon fill="none" stroke="black" points="747.62,-795 747.62,-980 908.62,-980 908.62,-795 747.62,-795"/>
<text xml:space="preserve" text-anchor="middle" x="828.12" y="-962.7" font-family="Times,serif" font-size="14.00">HTTP2/SERVER</text>
</g>
<g id="clust3" class="cluster">
<title>cluster_HTTP2_OPENSSL</title>
<polygon fill="none" stroke="black" points="399,-1266 399,-1613 930,-1613 930,-1266 399,-1266"/>
<text xml:space="preserve" text-anchor="middle" x="664.5" y="-1595.7" font-family="Times,serif" font-size="14.00">HTTP2/OPENSSL</text>
</g>
<g id="clust4" class="cluster">
<title>cluster_HTTP2_TCPIP</title>
<polygon fill="none" stroke="black" points="425.62,-988 425.62,-1173 887.25,-1173 887.25,-988 425.62,-988"/>
<text xml:space="preserve" text-anchor="middle" x="656.44" y="-1155.7" font-family="Times,serif" font-size="14.00">HTTP2/TCPIP</text>
</g>
<g id="clust5" class="cluster">
<title>cluster_HTTP2_CORE</title>
<polygon fill="none" stroke="black" points="440.62,-8 440.62,-787 1312.75,-787 1312.75,-8 440.62,-8"/>
<text xml:space="preserve" text-anchor="middle" x="876.69" y="-769.7" font-family="Times,serif" font-size="14.00">HTTP2/CORE</text>
</g>
<!-- COMMUNICATION&#45;ERROR -->
<g id="COMMUNICATION&#45;ERROR" class="node external">
<title>COMMUNICATION&#45;ERROR</title>
<g id="a_COMMUNICATION&#45;ERROR"><a xlink:href="COMMUNICATION-ERROR" xlink:title="Something happens that prevents communication from going on, unless handled.">
<polygon fill="orange" stroke="none" points="371,-1225 187.75,-1225 187.75,-1189 371,-1189 371,-1225"/>
<text xml:space="preserve" text-anchor="middle" x="279.38" y="-1201.95" font-family="Times,serif" font-size="14.00">COMMUNICATION&#45;ERROR</text>
</a>
</g>
</g>
<!-- DONE -->
<g id="DONE" class="node external">
<title>DONE</title>
<g id="a_DONE"><a xlink:href="DONE" xlink:title="This condition is signalled when the socket on the other side is closed (for&#10;reading).">
<polygon fill="orange" stroke="none" points="552.25,-1225 498.25,-1225 498.25,-1189 552.25,-1189 552.25,-1225"/>
<text xml:space="preserve" text-anchor="middle" x="525.25" y="-1201.95" font-family="Times,serif" font-size="14.00">DONE</text>
</a>
</g>
</g>
<!-- COMMUNICATION&#45;ERROR&#45;&gt;DONE -->
<g id="edge16" class="edge">
<title>COMMUNICATION&#45;ERROR&#45;&gt;DONE</title>
<path fill="none" stroke="black" d="M370.84,-1207C411.05,-1207 456.16,-1207 486.99,-1207"/>
<polygon fill="black" stroke="black" points="486.96,-1210.5 496.96,-1207 486.96,-1203.5 486.96,-1210.5"/>
</g>
<!-- POLL&#45;TIMEOUT -->
<g id="POLL&#45;TIMEOUT" class="node external">
<title>POLL&#45;TIMEOUT</title>
<g id="a_POLL&#45;TIMEOUT"><a xlink:href="POLL-TIMEOUT" xlink:title="Poll was called with a timeout and returned before any file descriptor became&#10;ready.">
<polygon fill="orange" stroke="none" points="886,-947 770.25,-947 770.25,-911 886,-911 886,-947"/>
<text xml:space="preserve" text-anchor="middle" x="828.12" y="-923.95" font-family="Times,serif" font-size="14.00">POLL&#45;TIMEOUT</text>
</a>
</g>
</g>
<!-- COMMUNICATION&#45;ERROR&#45;&gt;POLL&#45;TIMEOUT -->
<g id="edge3" class="edge">
<title>COMMUNICATION&#45;ERROR&#45;&gt;POLL&#45;TIMEOUT</title>
<path fill="none" stroke="black" d="M284.03,-1189.11C293.93,-1145.73 325.59,-1034.74 399,-984 507.33,-909.12 668.68,-911.12 759.2,-919.75"/>
<polygon fill="black" stroke="black" points="758.61,-923.2 768.91,-920.73 759.32,-916.24 758.61,-923.2"/>
</g>
<!-- WRITE&#45;FAILED -->
<g id="WRITE&#45;FAILED" class="node internal">
<title>WRITE&#45;FAILED</title>
<g id="a_WRITE&#45;FAILED"><a xlink:href="WRITE-FAILED" xlink:title="NIL">
<text xml:space="preserve" text-anchor="middle" x="828.12" y="-869.95" font-family="Times,serif" font-size="14.00">WRITE&#45;FAILED</text>
</a>
</g>
</g>
<!-- COMMUNICATION&#45;ERROR&#45;&gt;WRITE&#45;FAILED -->
<g id="edge4" class="edge">
<title>COMMUNICATION&#45;ERROR&#45;&gt;WRITE&#45;FAILED</title>
<path fill="none" stroke="black" d="M281.41,-1189.28C285.5,-1136.77 305.39,-981.31 399,-912 505.37,-833.24 669.93,-845.87 760.93,-861.05"/>
<polygon fill="black" stroke="black" points="760.25,-864.49 770.7,-862.75 761.45,-857.59 760.25,-864.49"/>
</g>
<!-- OTHER&#45;SSL&#45;ERROR -->
<g id="OTHER&#45;SSL&#45;ERROR" class="node external">
<title>OTHER&#45;SSL&#45;ERROR</title>
<g id="a_OTHER&#45;SSL&#45;ERROR"><a xlink:href="OTHER-SSL-ERROR" xlink:title="ssl&#45;get&#45;error return code that we do not handle (yet)">
<polygon fill="orange" stroke="none" points="594.38,-1472 456.12,-1472 456.12,-1436 594.38,-1436 594.38,-1472"/>
<text xml:space="preserve" text-anchor="middle" x="525.25" y="-1448.95" font-family="Times,serif" font-size="14.00">OTHER&#45;SSL&#45;ERROR</text>
</a>
</g>
</g>
<!-- COMMUNICATION&#45;ERROR&#45;&gt;OTHER&#45;SSL&#45;ERROR -->
<g id="edge5" class="edge">
<title>COMMUNICATION&#45;ERROR&#45;&gt;OTHER&#45;SSL&#45;ERROR</title>
<path fill="none" stroke="black" d="M284.55,-1224.89C295.41,-1267.28 328.75,-1374.22 399,-1427 412.49,-1437.14 428.99,-1443.64 445.53,-1447.77"/>
<polygon fill="black" stroke="black" points="444.37,-1451.1 454.89,-1449.83 445.88,-1444.26 444.37,-1451.1"/>
</g>
<!-- UNEXPECTED&#45;EOF -->
<g id="UNEXPECTED&#45;EOF" class="node internal">
<title>UNEXPECTED&#45;EOF</title>
<g id="a_UNEXPECTED&#45;EOF"><a xlink:href="UNEXPECTED-EOF" xlink:title="On an unexpected EOF, versions before OpenSSL 3.0 returned SSL_ERROR_SYSCALL,&#10;nothing was added to the error stack, and errno was 0.">
<text xml:space="preserve" text-anchor="middle" x="525.25" y="-1286.95" font-family="Times,serif" font-size="14.00">UNEXPECTED&#45;EOF</text>
</a>
</g>
</g>
<!-- COMMUNICATION&#45;ERROR&#45;&gt;UNEXPECTED&#45;EOF -->
<g id="edge6" class="edge">
<title>COMMUNICATION&#45;ERROR&#45;&gt;UNEXPECTED&#45;EOF</title>
<path fill="none" stroke="black" d="M314.4,-1224.98C337.72,-1236.75 369.63,-1251.79 399,-1262 414.36,-1267.34 431.1,-1272.07 447.19,-1276.1"/>
<polygon fill="black" stroke="black" points="446.2,-1279.46 456.74,-1278.42 447.85,-1272.66 446.2,-1279.46"/>
</g>
<!-- RETRY&#45;FLAG&#45;NOT&#45;SET -->
<g id="RETRY&#45;FLAG&#45;NOT&#45;SET" class="node internal">
<title>RETRY&#45;FLAG&#45;NOT&#45;SET</title>
<g id="a_RETRY&#45;FLAG&#45;NOT&#45;SET"><a xlink:href="RETRY-FLAG-NOT-SET" xlink:title="Openss ">
<text xml:space="preserve" text-anchor="middle" x="525.25" y="-1340.95" font-family="Times,serif" font-size="14.00">RETRY&#45;FLAG&#45;NOT&#45;SET</text>
</a>
</g>
</g>
<!-- COMMUNICATION&#45;ERROR&#45;&gt;RETRY&#45;FLAG&#45;NOT&#45;SET -->
<g id="edge7" class="edge">
<title>COMMUNICATION&#45;ERROR&#45;&gt;RETRY&#45;FLAG&#45;NOT&#45;SET</title>
<path fill="none" stroke="black" d="M293.94,-1224.89C314.01,-1250.04 354.14,-1295.39 399,-1319 410.19,-1324.89 422.59,-1329.5 435.1,-1333.1"/>
<polygon fill="black" stroke="black" points="434.08,-1336.45 444.64,-1335.62 435.87,-1329.68 434.08,-1336.45"/>
</g>
<!-- PEER&#45;SENT&#45;ALERT -->
<g id="PEER&#45;SENT&#45;ALERT" class="node internal">
<title>PEER&#45;SENT&#45;ALERT</title>
<g id="a_PEER&#45;SENT&#45;ALERT"><a xlink:href="PEER-SENT-ALERT" xlink:title="The TLS/SSL peer has closed the connection for writing by sending the&#10;close_notify alert. &#160;No more data can be read. &#160;This does not necessarily&#10;indicate that the underlying transport has been closed.">
<text xml:space="preserve" text-anchor="middle" x="525.25" y="-1502.95" font-family="Times,serif" font-size="14.00">PEER&#45;SENT&#45;ALERT</text>
</a>
</g>
</g>
<!-- COMMUNICATION&#45;ERROR&#45;&gt;PEER&#45;SENT&#45;ALERT -->
<g id="edge8" class="edge">
<title>COMMUNICATION&#45;ERROR&#45;&gt;PEER&#45;SENT&#45;ALERT</title>
<path fill="none" stroke="black" d="M282.48,-1224.72C289.31,-1273.8 315.46,-1412.43 399,-1481 412.74,-1492.28 430.11,-1499.15 447.5,-1503.26"/>
<polygon fill="black" stroke="black" points="446.31,-1506.59 456.81,-1505.17 447.72,-1499.73 446.31,-1506.59"/>
</g>
<!-- SIMPLE&#45;COMMUNICATION&#45;ERROR -->
<g id="SIMPLE&#45;COMMUNICATION&#45;ERROR" class="node external">
<title>SIMPLE&#45;COMMUNICATION&#45;ERROR</title>
<g id="a_SIMPLE&#45;COMMUNICATION&#45;ERROR"><a xlink:href="SIMPLE-COMMUNICATION-ERROR" xlink:title="NIL">
<polygon fill="orange" stroke="none" points="643.5,-1580 407,-1580 407,-1544 643.5,-1544 643.5,-1580"/>
<text xml:space="preserve" text-anchor="middle" x="525.25" y="-1556.95" font-family="Times,serif" font-size="14.00">SIMPLE&#45;COMMUNICATION&#45;ERROR</text>
</a>
</g>
</g>
<!-- COMMUNICATION&#45;ERROR&#45;&gt;SIMPLE&#45;COMMUNICATION&#45;ERROR -->
<g id="edge9" class="edge">
<title>COMMUNICATION&#45;ERROR&#45;&gt;SIMPLE&#45;COMMUNICATION&#45;ERROR</title>
<path fill="none" stroke="black" d="M281.09,-1224.86C284.33,-1280.23 302.09,-1450.34 399,-1535 400.11,-1535.97 401.24,-1536.9 402.4,-1537.81"/>
<polygon fill="black" stroke="black" points="400.23,-1540.56 410.46,-1543.3 404.17,-1534.78 400.23,-1540.56"/>
</g>
<!-- SSL&#45;ERROR&#45;CONDITION -->
<g id="SSL&#45;ERROR&#45;CONDITION" class="node external">
<title>SSL&#45;ERROR&#45;CONDITION</title>
<g id="a_SSL&#45;ERROR&#45;CONDITION"><a xlink:href="SSL-ERROR-CONDITION" xlink:title="An error condition on SSL side that is not handled separately.&#10;&#10;The list of error codes is in openssl/sslerr.h.&#10;&#10;A non&#45;recoverable, fatal error in the SSL library occurred, usually a protocol&#10; error. &#160;The OpenSSL error queue contains more information on the error. If this&#10; error occurs then no further I/O operations should be performed on the&#10; connection and SSL_shutdown() must not be called.">
<polygon fill="orange" stroke="none" points="609.38,-1418 441.12,-1418 441.12,-1382 609.38,-1382 609.38,-1418"/>
<text xml:space="preserve" text-anchor="middle" x="525.25" y="-1394.95" font-family="Times,serif" font-size="14.00">SSL&#45;ERROR&#45;CONDITION</text>
</a>
</g>
</g>
<!-- COMMUNICATION&#45;ERROR&#45;&gt;SSL&#45;ERROR&#45;CONDITION -->
<g id="edge10" class="edge">
<title>COMMUNICATION&#45;ERROR&#45;&gt;SSL&#45;ERROR&#45;CONDITION</title>
<path fill="none" stroke="black" d="M287.77,-1224.85C303.06,-1259.39 341.57,-1335.26 399,-1373 408.58,-1379.29 419.38,-1384.15 430.52,-1387.89"/>
<polygon fill="black" stroke="black" points="429.24,-1391.16 439.82,-1390.7 431.26,-1384.46 429.24,-1391.16"/>
</g>
<!-- TCPDELAY&#45;SETUP&#45;FAILED -->
<g id="TCPDELAY&#45;SETUP&#45;FAILED" class="node internal">
<title>TCPDELAY&#45;SETUP&#45;FAILED</title>
<g id="a_TCPDELAY&#45;SETUP&#45;FAILED"><a xlink:href="TCPDELAY-SETUP-FAILED" xlink:title="NIL">
<text xml:space="preserve" text-anchor="middle" x="525.25" y="-1008.95" font-family="Times,serif" font-size="14.00">TCPDELAY&#45;SETUP&#45;FAILED</text>
</a>
</g>
</g>
<!-- COMMUNICATION&#45;ERROR&#45;&gt;TCPDELAY&#45;SETUP&#45;FAILED -->
<g id="edge11" class="edge">
<title>COMMUNICATION&#45;ERROR&#45;&gt;TCPDELAY&#45;SETUP&#45;FAILED</title>
<path fill="none" stroke="black" d="M287.77,-1189.15C303.06,-1154.61 341.57,-1078.74 399,-1041 406.39,-1036.15 414.49,-1032.15 422.93,-1028.86"/>
<polygon fill="black" stroke="black" points="424.04,-1032.18 432.32,-1025.56 421.72,-1025.57 424.04,-1032.18"/>
</g>
<!-- THIS&#45;CANT&#45;HAPPEN -->
<g id="THIS&#45;CANT&#45;HAPPEN" class="node internal">
<title>THIS&#45;CANT&#45;HAPPEN</title>
<g id="a_THIS&#45;CANT&#45;HAPPEN"><a xlink:href="THIS-CANT-HAPPEN" xlink:title="NIL">
<text xml:space="preserve" text-anchor="middle" x="525.25" y="-1062.95" font-family="Times,serif" font-size="14.00">THIS&#45;CANT&#45;HAPPEN</text>
</a>
</g>
</g>
<!-- COMMUNICATION&#45;ERROR&#45;&gt;THIS&#45;CANT&#45;HAPPEN -->
<g id="edge12" class="edge">
<title>COMMUNICATION&#45;ERROR&#45;&gt;THIS&#45;CANT&#45;HAPPEN</title>
<path fill="none" stroke="black" d="M293.94,-1189.11C314.01,-1163.96 354.14,-1118.61 399,-1095 412.46,-1087.91 427.67,-1082.69 442.74,-1078.83"/>
<polygon fill="black" stroke="black" points="443.25,-1082.31 452.18,-1076.61 441.64,-1075.49 443.25,-1082.31"/>
</g>
<!-- SYSCALL&#45;ERROR -->
<g id="SYSCALL&#45;ERROR" class="node external">
<title>SYSCALL&#45;ERROR</title>
<g id="a_SYSCALL&#45;ERROR"><a xlink:href="SYSCALL-ERROR" xlink:title="Syscall failed. The printed form looks like&#10;```&#10;(socket&#45;bind &#45;1 0)&#10;.. debugger invoked on SYSCALL&#45;ERROR:&#10;.. &#160;&#160;#&lt;SYSCALL&#45;ERROR 9 (Bad file descriptor) on &#45;1 during #&lt;FUNCTION BIND&gt;&gt;&#10;```">
<polygon fill="orange" stroke="none" points="588,-1140 462.5,-1140 462.5,-1104 588,-1104 588,-1140"/>
<text xml:space="preserve" text-anchor="middle" x="525.25" y="-1116.95" font-family="Times,serif" font-size="14.00">SYSCALL&#45;ERROR</text>
</a>
</g>
</g>
<!-- COMMUNICATION&#45;ERROR&#45;&gt;SYSCALL&#45;ERROR -->
<g id="edge13" class="edge">
<title>COMMUNICATION&#45;ERROR&#45;&gt;SYSCALL&#45;ERROR</title>
<path fill="none" stroke="black" d="M331.8,-1189.08C369.82,-1175.83 421.77,-1157.72 462.11,-1143.66"/>
<polygon fill="black" stroke="black" points="463.18,-1146.99 471.47,-1140.4 460.87,-1140.38 463.18,-1146.99"/>
</g>
<!-- GO&#45;AWAY -->
<g id="GO&#45;AWAY" class="node external">
<title>GO&#45;AWAY</title>
<g id="a_GO&#45;AWAY"><a xlink:href="GO-AWAY" xlink:title="Signalled by DO&#45;GOAWAY when go&#45;away frame arrives.">
<polygon fill="orange" stroke="none" points="565.5,-214 485,-214 485,-178 565.5,-178 565.5,-214"/>
<text xml:space="preserve" text-anchor="middle" x="525.25" y="-190.95" font-family="Times,serif" font-size="14.00">GO&#45;AWAY</text>
</a>
</g>
</g>
<!-- COMMUNICATION&#45;ERROR&#45;&gt;GO&#45;AWAY -->
<g id="edge14" class="edge">
<title>COMMUNICATION&#45;ERROR&#45;&gt;GO&#45;AWAY</title>
<path fill="none" stroke="black" d="M281.32,-1189.24C287.4,-1079.36 323.05,-491.8 399,-331 420.35,-285.81 462.33,-245.47 491.78,-220.91"/>
<polygon fill="black" stroke="black" points="493.78,-223.79 499.31,-214.76 489.35,-218.37 493.78,-223.79"/>
</g>
<!-- CONNECTION&#45;ERROR -->
<g id="CONNECTION&#45;ERROR" class="node external">
<title>CONNECTION&#45;ERROR</title>
<g id="a_CONNECTION&#45;ERROR"><a xlink:href="CONNECTION-ERROR" xlink:title="A connection error is signalled when we detect an illegal frame content.&#10;&#10;Use [CONNECTION&#45;ERROR][function] function to signal it or its&#10;subclasses. Application must handle it, including closing associated&#10;NETWORK&#45;STREAM.">
<polygon fill="orange" stroke="none" points="601.88,-376 448.62,-376 448.62,-340 601.88,-340 601.88,-376"/>
<text xml:space="preserve" text-anchor="middle" x="525.25" y="-352.95" font-family="Times,serif" font-size="14.00">CONNECTION&#45;ERROR</text>
</a>
</g>
</g>
<!-- COMMUNICATION&#45;ERROR&#45;&gt;CONNECTION&#45;ERROR -->
<g id="edge15" class="edge">
<title>COMMUNICATION&#45;ERROR&#45;&gt;CONNECTION&#45;ERROR</title>
<path fill="none" stroke="black" d="M285.47,-1189.27C316.24,-1082.13 477.32,-521.38 515.93,-386.97"/>
<polygon fill="black" stroke="black" points="519.27,-388.03 518.66,-377.45 512.54,-386.09 519.27,-388.03"/>
</g>
<!-- NOT&#45;ENOUGH&#45;DATA -->
<g id="NOT&#45;ENOUGH&#45;DATA" class="node internal">
<title>NOT&#45;ENOUGH&#45;DATA</title>
<g id="a_NOT&#45;ENOUGH&#45;DATA"><a xlink:href="NOT-ENOUGH-DATA" xlink:title="Signalled when the SSL layer did not provide enough data to be processed by the&#10;upper level. This can be fixed and buffered, but sane peers do not bring this situation on us.">
<text xml:space="preserve" text-anchor="middle" x="828.12" y="-815.95" font-family="Times,serif" font-size="14.00">NOT&#45;ENOUGH&#45;DATA</text>
</a>
</g>
</g>
<!-- PEER&#45;SENT&#45;CLOSE&#45;NOTIFY -->
<g id="PEER&#45;SENT&#45;CLOSE&#45;NOTIFY" class="node external">
<title>PEER&#45;SENT&#45;CLOSE&#45;NOTIFY</title>
<g id="a_PEER&#45;SENT&#45;CLOSE&#45;NOTIFY"><a xlink:href="PEER-SENT-CLOSE-NOTIFY" xlink:title="The TLS/SSL peer has closed the connection for writing by sending the&#10;close_notify alert. &#160;No more data can be read. &#160;This does not necessarily&#10;indicate that the underlying transport has been closed.">
<polygon fill="orange" stroke="none" points="922,-1526 734.25,-1526 734.25,-1490 922,-1490 922,-1526"/>
<text xml:space="preserve" text-anchor="middle" x="828.12" y="-1502.95" font-family="Times,serif" font-size="14.00">PEER&#45;SENT&#45;CLOSE&#45;NOTIFY</text>
</a>
</g>
</g>
<!-- PEER&#45;SENT&#45;ALERT&#45;&gt;PEER&#45;SENT&#45;CLOSE&#45;NOTIFY -->
<g id="edge17" class="edge">
<title>PEER&#45;SENT&#45;ALERT&#45;&gt;PEER&#45;SENT&#45;CLOSE&#45;NOTIFY</title>
<path fill="none" stroke="black" d="M592.28,-1508C630.55,-1508 679.59,-1508 722.95,-1508"/>
<polygon fill="black" stroke="black" points="722.92,-1511.5 732.92,-1508 722.92,-1504.5 722.92,-1511.5"/>
</g>
<!-- SSL&#45;SYSCALL&#45;ERROR -->
<g id="SSL&#45;SYSCALL&#45;ERROR" class="node external">
<title>SSL&#45;SYSCALL&#45;ERROR</title>
<g id="a_SSL&#45;SYSCALL&#45;ERROR"><a xlink:href="SSL-SYSCALL-ERROR" xlink:title="Some non&#45;recoverable, fatal I/O error occurred. The OpenSSL error&#10; queue may contain more information on the error. For socket I/O on Unix&#10; systems, consult errno for details. If this error occurs then no further I/O&#10; operations should be performed on the connection and SSL_shutdown() must not be&#10; called.&#10;&#10; This value can also be returned for other errors, check the error queue for&#10; details.">
<polygon fill="orange" stroke="none" points="904.75,-1364 751.5,-1364 751.5,-1328 904.75,-1328 904.75,-1364"/>
<text xml:space="preserve" text-anchor="middle" x="828.12" y="-1340.95" font-family="Times,serif" font-size="14.00">SSL&#45;SYSCALL&#45;ERROR</text>
</a>
</g>
</g>
<!-- SSL&#45;ERROR&#45;CONDITION&#45;&gt;SSL&#45;SYSCALL&#45;ERROR -->
<g id="edge18" class="edge">
<title>SSL&#45;ERROR&#45;CONDITION&#45;&gt;SSL&#45;SYSCALL&#45;ERROR</title>
<path fill="none" stroke="black" d="M609.26,-1385.1C650.05,-1377.78 699.18,-1368.96 740.45,-1361.56"/>
<polygon fill="black" stroke="black" points="740.88,-1365.04 750.1,-1359.82 739.64,-1358.15 740.88,-1365.04"/>
</g>
<!-- SYSCALL&#45;ERROR&#45;&gt;SSL&#45;SYSCALL&#45;ERROR -->
<g id="edge19" class="edge">
<title>SYSCALL&#45;ERROR&#45;&gt;SSL&#45;SYSCALL&#45;ERROR</title>
<path fill="none" stroke="black" d="M572.81,-1139.94C595.07,-1149.48 621.57,-1162.27 643.5,-1177 707,-1219.64 770.25,-1283.84 803.39,-1319.58"/>
<polygon fill="black" stroke="black" points="800.78,-1321.92 810.12,-1326.91 805.93,-1317.18 800.78,-1321.92"/>
</g>
<!-- READ&#45;ERROR -->
<g id="READ&#45;ERROR" class="node internal">
<title>READ&#45;ERROR</title>
<g id="a_READ&#45;ERROR"><a xlink:href="READ-ERROR" xlink:title="Syscall error during read&#45;buffer. Should print nicely, e.g.,&#10;```&#10;(http2/tcpip:read&#45;socket* &#45;1)&#10;.. debugger invoked on HTTP2/TCPIP::READ&#45;ERROR:&#10;.. &#160;&#160;#&lt;READ&#45;ERROR 9 (Bad file descriptor) on &#45;1 during READ&gt;&#10;```">
<text xml:space="preserve" text-anchor="middle" x="828.12" y="-1116.95" font-family="Times,serif" font-size="14.00">READ&#45;ERROR</text>
</a>
</g>
</g>
<!-- SYSCALL&#45;ERROR&#45;&gt;READ&#45;ERROR -->
<g id="edge20" class="edge">
<title>SYSCALL&#45;ERROR&#45;&gt;READ&#45;ERROR</title>
<path fill="none" stroke="black" d="M587.86,-1122C639.81,-1122 713.77,-1122 765.67,-1122"/>
<polygon fill="black" stroke="black" points="765.54,-1125.5 775.54,-1122 765.54,-1118.5 765.54,-1125.5"/>
</g>
<!-- GO&#45;AWAY&#45;NO&#45;ERROR -->
<g id="GO&#45;AWAY&#45;NO&#45;ERROR" class="node internal">
<title>GO&#45;AWAY&#45;NO&#45;ERROR</title>
<g id="a_GO&#45;AWAY&#45;NO&#45;ERROR"><a xlink:href="GO-AWAY-NO-ERROR" xlink:title="NIL">
<text xml:space="preserve" text-anchor="middle" x="828.12" y="-82.95" font-family="Times,serif" font-size="14.00">GO&#45;AWAY&#45;NO&#45;ERROR</text>
</a>
</g>
</g>
<!-- GO&#45;AWAY&#45;&gt;GO&#45;AWAY&#45;NO&#45;ERROR -->
<g id="edge21" class="edge">
<title>GO&#45;AWAY&#45;&gt;GO&#45;AWAY&#45;NO&#45;ERROR</title>
<path fill="none" stroke="black" d="M553.88,-178.06C583.7,-159.51 633.15,-131.06 679.5,-115 698.92,-108.27 720.39,-103.12 740.81,-99.22"/>
<polygon fill="black" stroke="black" points="741.32,-102.69 750.53,-97.46 740.06,-95.8 741.32,-102.69"/>
</g>
<!-- CONNECTION&#45;ERROR&#45;&gt;NOT&#45;ENOUGH&#45;DATA -->
<g id="edge22" class="edge">
<title>CONNECTION&#45;ERROR&#45;&gt;NOT&#45;ENOUGH&#45;DATA</title>
<path fill="none" stroke="black" d="M526.69,-375.79C529.33,-442.08 548,-676.69 679.5,-791 697.4,-806.56 721.13,-814.86 744.33,-819.09"/>
<polygon fill="black" stroke="black" points="743.73,-822.54 754.15,-820.62 744.81,-815.62 743.73,-822.54"/>
</g>
<!-- INCORRECT&#45;WINDOW&#45;UPDATE&#45;FRAME&#45;SIZE -->
<g id="INCORRECT&#45;WINDOW&#45;UPDATE&#45;FRAME&#45;SIZE" class="node internal">
<title>INCORRECT&#45;WINDOW&#45;UPDATE&#45;FRAME&#45;SIZE</title>
<g id="a_INCORRECT&#45;WINDOW&#45;UPDATE&#45;FRAME&#45;SIZE"><a xlink:href="INCORRECT-WINDOW-UPDATE-FRAME-SIZE" xlink:title="NIL">
<text xml:space="preserve" text-anchor="middle" x="828.12" y="-136.95" font-family="Times,serif" font-size="14.00">INCORRECT&#45;WINDOW&#45;UPDATE&#45;FRAME&#45;SIZE</text>
</a>
</g>
</g>
<!-- CONNECTION&#45;ERROR&#45;&gt;INCORRECT&#45;WINDOW&#45;UPDATE&#45;FRAME&#45;SIZE -->
<g id="edge23" class="edge">
<title>CONNECTION&#45;ERROR&#45;&gt;INCORRECT&#45;WINDOW&#45;UPDATE&#45;FRAME&#45;SIZE</title>
<path fill="none" stroke="black" d="M542.94,-340.28C566.39,-315.04 609.99,-266.94 643.5,-223 660.99,-200.06 655.4,-184.85 679.5,-169 681.62,-167.6 683.8,-166.28 686.02,-165.01"/>
<polygon fill="black" stroke="black" points="687.38,-168.24 694.67,-160.56 684.18,-162.02 687.38,-168.24"/>
</g>
<!-- INCORRECT&#45;PING&#45;FRAME&#45;SIZE -->
<g id="INCORRECT&#45;PING&#45;FRAME&#45;SIZE" class="node internal">
<title>INCORRECT&#45;PING&#45;FRAME&#45;SIZE</title>
<g id="a_INCORRECT&#45;PING&#45;FRAME&#45;SIZE"><a xlink:href="INCORRECT-PING-FRAME-SIZE" xlink:title="We received PING frame with a length field value other than 8 (Section 5.4.1)">
<text xml:space="preserve" text-anchor="middle" x="828.12" y="-190.95" font-family="Times,serif" font-size="14.00">INCORRECT&#45;PING&#45;FRAME&#45;SIZE</text>
</a>
</g>
</g>
<!-- CONNECTION&#45;ERROR&#45;&gt;INCORRECT&#45;PING&#45;FRAME&#45;SIZE -->
<g id="edge24" class="edge">
<title>CONNECTION&#45;ERROR&#45;&gt;INCORRECT&#45;PING&#45;FRAME&#45;SIZE</title>
<path fill="none" stroke="black" d="M540.65,-340.17C565.57,-310.63 619.84,-251.93 679.5,-223 689.43,-218.18 700.12,-214.22 711.05,-210.96"/>
<polygon fill="black" stroke="black" points="711.86,-214.37 720.57,-208.33 710,-207.62 711.86,-214.37"/>
</g>
<!-- INCORRECT&#45;SETTINGS&#45;FRAME&#45;SIZE -->
<g id="INCORRECT&#45;SETTINGS&#45;FRAME&#45;SIZE" class="node internal">
<title>INCORRECT&#45;SETTINGS&#45;FRAME&#45;SIZE</title>
<g id="a_INCORRECT&#45;SETTINGS&#45;FRAME&#45;SIZE"><a xlink:href="INCORRECT-SETTINGS-FRAME-SIZE" xlink:title="We received a SETTINGS frame with a length other than a multiple of 6 (Section 5.4.1)">
<text xml:space="preserve" text-anchor="middle" x="828.12" y="-244.95" font-family="Times,serif" font-size="14.00">INCORRECT&#45;SETTINGS&#45;FRAME&#45;SIZE</text>
</a>
</g>
</g>
<!-- CONNECTION&#45;ERROR&#45;&gt;INCORRECT&#45;SETTINGS&#45;FRAME&#45;SIZE -->
<g id="edge25" class="edge">
<title>CONNECTION&#45;ERROR&#45;&gt;INCORRECT&#45;SETTINGS&#45;FRAME&#45;SIZE</title>
<path fill="none" stroke="black" d="M553.88,-340.06C583.7,-321.51 633.15,-293.06 679.5,-277 685.96,-274.76 692.65,-272.7 699.45,-270.8"/>
<polygon fill="black" stroke="black" points="699.99,-274.28 708.75,-268.33 698.19,-267.51 699.99,-274.28"/>
</g>
<!-- INCORRECT&#45;RST&#45;FRAME&#45;SIZE -->
<g id="INCORRECT&#45;RST&#45;FRAME&#45;SIZE" class="node internal">
<title>INCORRECT&#45;RST&#45;FRAME&#45;SIZE</title>
<g id="a_INCORRECT&#45;RST&#45;FRAME&#45;SIZE"><a xlink:href="INCORRECT-RST-FRAME-SIZE" xlink:title="NIL">
<text xml:space="preserve" text-anchor="middle" x="828.12" y="-298.95" font-family="Times,serif" font-size="14.00">INCORRECT&#45;RST&#45;FRAME&#45;SIZE</text>
</a>
</g>
</g>
<!-- CONNECTION&#45;ERROR&#45;&gt;INCORRECT&#45;RST&#45;FRAME&#45;SIZE -->
<g id="edge26" class="edge">
<title>CONNECTION&#45;ERROR&#45;&gt;INCORRECT&#45;RST&#45;FRAME&#45;SIZE</title>
<path fill="none" stroke="black" d="M601.79,-344.44C636.32,-338.24 677.93,-330.78 715.95,-323.95"/>
<polygon fill="black" stroke="black" points="716.38,-327.43 725.6,-322.22 715.14,-320.54 716.38,-327.43"/>
</g>
<!-- BAD&#45;STREAM&#45;STATE -->
<g id="BAD&#45;STREAM&#45;STATE" class="node internal">
<title>BAD&#45;STREAM&#45;STATE</title>
<g id="a_BAD&#45;STREAM&#45;STATE"><a xlink:href="BAD-STREAM-STATE" xlink:title="Frame cannot be applied to stream in particular state">
<text xml:space="preserve" text-anchor="middle" x="828.12" y="-352.95" font-family="Times,serif" font-size="14.00">BAD&#45;STREAM&#45;STATE</text>
</a>
</g>
</g>
<!-- CONNECTION&#45;ERROR&#45;&gt;BAD&#45;STREAM&#45;STATE -->
<g id="edge27" class="edge">
<title>CONNECTION&#45;ERROR&#45;&gt;BAD&#45;STREAM&#45;STATE</title>
<path fill="none" stroke="black" d="M601.79,-358C644.46,-358 697.93,-358 742.08,-358"/>
<polygon fill="black" stroke="black" points="741.87,-361.5 751.87,-358 741.87,-354.5 741.87,-361.5"/>
</g>
<!-- TOO&#45;BIG&#45;FRAME -->
<g id="TOO&#45;BIG&#45;FRAME" class="node external">
<title>TOO&#45;BIG&#45;FRAME</title>
<g id="a_TOO&#45;BIG&#45;FRAME"><a xlink:href="TOO-BIG-FRAME" xlink:title="Frame exceeds the size defined in SETTINGS_MAX_FRAME_SIZE.">
<polygon fill="orange" stroke="none" points="889.75,-430 766.5,-430 766.5,-394 889.75,-394 889.75,-430"/>
<text xml:space="preserve" text-anchor="middle" x="828.12" y="-406.95" font-family="Times,serif" font-size="14.00">TOO&#45;BIG&#45;FRAME</text>
</a>
</g>
</g>
<!-- CONNECTION&#45;ERROR&#45;&gt;TOO&#45;BIG&#45;FRAME -->
<g id="edge28" class="edge">
<title>CONNECTION&#45;ERROR&#45;&gt;TOO&#45;BIG&#45;FRAME</title>
<path fill="none" stroke="black" d="M601.79,-371.56C648.9,-380.01 709.18,-390.83 755.54,-399.15"/>
<polygon fill="black" stroke="black" points="754.75,-402.57 765.22,-400.89 755.99,-395.68 754.75,-402.57"/>
</g>
<!-- PROTOCOL&#45;ERROR -->
<g id="PROTOCOL&#45;ERROR" class="node internal">
<title>PROTOCOL&#45;ERROR</title>
<g id="a_PROTOCOL&#45;ERROR"><a xlink:href="PROTOCOL-ERROR" xlink:title="NIL">
<text xml:space="preserve" text-anchor="middle" x="828.12" y="-460.95" font-family="Times,serif" font-size="14.00">PROTOCOL&#45;ERROR</text>
</a>
</g>
</g>
<!-- CONNECTION&#45;ERROR&#45;&gt;PROTOCOL&#45;ERROR -->
<g id="edge29" class="edge">
<title>CONNECTION&#45;ERROR&#45;&gt;PROTOCOL&#45;ERROR</title>
<path fill="none" stroke="black" d="M553.88,-375.94C583.7,-394.49 633.15,-422.94 679.5,-439 701.4,-446.59 725.91,-452.16 748.57,-456.21"/>
<polygon fill="black" stroke="black" points="747.94,-459.65 758.38,-457.88 749.11,-452.75 747.94,-459.65"/>
</g>
<!-- MISSING&#45;HEADER&#45;OCTETS -->
<g id="MISSING&#45;HEADER&#45;OCTETS" class="node internal">
<title>MISSING&#45;HEADER&#45;OCTETS</title>
<g id="a_MISSING&#45;HEADER&#45;OCTETS"><a xlink:href="MISSING-HEADER-OCTETS" xlink:title="We try to process headers, but end up in a middle of one.">
<text xml:space="preserve" text-anchor="middle" x="1158.75" y="-28.95" font-family="Times,serif" font-size="14.00">MISSING&#45;HEADER&#45;OCTETS</text>
</a>
</g>
</g>
<!-- PROTOCOL&#45;ERROR&#45;&gt;MISSING&#45;HEADER&#45;OCTETS -->
<g id="edge30" class="edge">
<title>PROTOCOL&#45;ERROR&#45;&gt;MISSING&#45;HEADER&#45;OCTETS</title>
<path fill="none" stroke="black" d="M896.46,-470.49C925.2,-468.63 956.67,-460.89 976.75,-439 1033.8,-376.83 955.8,-123.27 1012.75,-61 1023.91,-48.79 1038.67,-41.03 1054.51,-36.24"/>
<polygon fill="black" stroke="black" points="1055.33,-39.64 1064.14,-33.76 1053.59,-32.86 1055.33,-39.64"/>
</g>
<!-- NULL&#45;CONNECTION&#45;WINDOW&#45;UPDATE -->
<g id="NULL&#45;CONNECTION&#45;WINDOW&#45;UPDATE" class="node internal">
<title>NULL&#45;CONNECTION&#45;WINDOW&#45;UPDATE</title>
<g id="a_NULL&#45;CONNECTION&#45;WINDOW&#45;UPDATE"><a xlink:href="NULL-CONNECTION-WINDOW-UPDATE" xlink:title="Errors on the connection flow&#45;control window MUST be treated as a connection error.">
<text xml:space="preserve" text-anchor="middle" x="1158.75" y="-82.95" font-family="Times,serif" font-size="14.00">NULL&#45;CONNECTION&#45;WINDOW&#45;UPDATE</text>
</a>
</g>
</g>
<!-- PROTOCOL&#45;ERROR&#45;&gt;NULL&#45;CONNECTION&#45;WINDOW&#45;UPDATE -->
<g id="edge31" class="edge">
<title>PROTOCOL&#45;ERROR&#45;&gt;NULL&#45;CONNECTION&#45;WINDOW&#45;UPDATE</title>
<path fill="none" stroke="black" d="M896.31,-470.35C925.01,-468.46 956.5,-460.73 976.75,-439 1075.54,-333.02 914.13,-221.14 1012.75,-115 1014.29,-113.35 1015.89,-111.78 1017.55,-110.28"/>
<polygon fill="black" stroke="black" points="1019.39,-113.28 1025.13,-104.38 1015.09,-107.76 1019.39,-113.28"/>
</g>
<!-- UNEXPECTED&#45;CONTINUATION&#45;FRAME -->
<g id="UNEXPECTED&#45;CONTINUATION&#45;FRAME" class="node internal">
<title>UNEXPECTED&#45;CONTINUATION&#45;FRAME</title>
<g id="a_UNEXPECTED&#45;CONTINUATION&#45;FRAME"><a xlink:href="UNEXPECTED-CONTINUATION-FRAME" xlink:title="A CONTINUATION frame MUST be preceded by a HEADERS, PUSH_PROMISE or&#10; &#160;&#160;CONTINUATION frame without the END_HEADERS flag set. &#160;A recipient that&#10; &#160;&#160;observes violation of this rule MUST respond with a connection error (Section&#10; &#160;&#160;5.4.1) of type PROTOCOL_ERROR.">
<text xml:space="preserve" text-anchor="middle" x="1158.75" y="-136.95" font-family="Times,serif" font-size="14.00">UNEXPECTED&#45;CONTINUATION&#45;FRAME</text>
</a>
</g>
</g>
<!-- PROTOCOL&#45;ERROR&#45;&gt;UNEXPECTED&#45;CONTINUATION&#45;FRAME -->
<g id="edge32" class="edge">
<title>PROTOCOL&#45;ERROR&#45;&gt;UNEXPECTED&#45;CONTINUATION&#45;FRAME</title>
<path fill="none" stroke="black" d="M896.46,-470.12C925.02,-468.14 956.35,-460.41 976.75,-439 1060.26,-351.35 929.38,-256.78 1012.75,-169 1014.76,-166.89 1016.87,-164.91 1019.08,-163.06"/>
<polygon fill="black" stroke="black" points="1020.79,-166.14 1026.81,-157.42 1016.67,-160.48 1020.79,-166.14"/>
</g>
<!-- INCORRECT&#45;INITIAL&#45;WINDOW&#45;SIZE&#45;VALUE -->
<g id="INCORRECT&#45;INITIAL&#45;WINDOW&#45;SIZE&#45;VALUE" class="node internal">
<title>INCORRECT&#45;INITIAL&#45;WINDOW&#45;SIZE&#45;VALUE</title>
<g id="a_INCORRECT&#45;INITIAL&#45;WINDOW&#45;SIZE&#45;VALUE"><a xlink:href="INCORRECT-INITIAL-WINDOW-SIZE-VALUE" xlink:title="SETTINGS_INITIAL_WINDOW_SIZE must be below 2^31.">
<text xml:space="preserve" text-anchor="middle" x="1158.75" y="-190.95" font-family="Times,serif" font-size="14.00">INCORRECT&#45;INITIAL&#45;WINDOW&#45;SIZE&#45;VALUE</text>
</a>
</g>
</g>
<!-- PROTOCOL&#45;ERROR&#45;&gt;INCORRECT&#45;INITIAL&#45;WINDOW&#45;SIZE&#45;VALUE -->
<g id="edge33" class="edge">
<title>PROTOCOL&#45;ERROR&#45;&gt;INCORRECT&#45;INITIAL&#45;WINDOW&#45;SIZE&#45;VALUE</title>
<path fill="none" stroke="black" d="M896.14,-469.81C924.64,-467.77 956,-460.07 976.75,-439 1045.02,-369.64 944.59,-292.47 1012.75,-223 1013.37,-222.37 1014,-221.74 1014.65,-221.13"/>
<polygon fill="black" stroke="black" points="1016.81,-223.88 1022.31,-214.83 1012.36,-218.48 1016.81,-223.88"/>
</g>
<!-- INCORRECT&#45;FRAME&#45;SIZE&#45;VALUE -->
<g id="INCORRECT&#45;FRAME&#45;SIZE&#45;VALUE" class="node internal">
<title>INCORRECT&#45;FRAME&#45;SIZE&#45;VALUE</title>
<g id="a_INCORRECT&#45;FRAME&#45;SIZE&#45;VALUE"><a xlink:href="INCORRECT-FRAME-SIZE-VALUE" xlink:title="Frame size MUST be between the initial value 16384 and the maximum allowed frame&#10;size (2^24&#45;1 or 16,777,215 octets), inclusive.">
<text xml:space="preserve" text-anchor="middle" x="1158.75" y="-244.95" font-family="Times,serif" font-size="14.00">INCORRECT&#45;FRAME&#45;SIZE&#45;VALUE</text>
</a>
</g>
</g>
<!-- PROTOCOL&#45;ERROR&#45;&gt;INCORRECT&#45;FRAME&#45;SIZE&#45;VALUE -->
<g id="edge34" class="edge">
<title>PROTOCOL&#45;ERROR&#45;&gt;INCORRECT&#45;FRAME&#45;SIZE&#45;VALUE</title>
<path fill="none" stroke="black" d="M896.38,-469.22C924.57,-467.01 955.64,-459.33 976.75,-439 1029.88,-387.84 959.7,-328.24 1012.75,-277 1019.49,-270.49 1027.27,-265.28 1035.66,-261.15"/>
<polygon fill="black" stroke="black" points="1036.97,-264.4 1044.76,-257.22 1034.19,-257.97 1036.97,-264.4"/>
</g>
<!-- INCORRECT&#45;ENABLE&#45;PUSH&#45;VALUE -->
<g id="INCORRECT&#45;ENABLE&#45;PUSH&#45;VALUE" class="node internal">
<title>INCORRECT&#45;ENABLE&#45;PUSH&#45;VALUE</title>
<g id="a_INCORRECT&#45;ENABLE&#45;PUSH&#45;VALUE"><a xlink:href="INCORRECT-ENABLE-PUSH-VALUE" xlink:title="Client must have ENABLE&#45;PUSH 0 or 1. Server must have ENABLE&#45;PUSH 0.">
<text xml:space="preserve" text-anchor="middle" x="1158.75" y="-298.95" font-family="Times,serif" font-size="14.00">INCORRECT&#45;ENABLE&#45;PUSH&#45;VALUE</text>
</a>
</g>
</g>
<!-- PROTOCOL&#45;ERROR&#45;&gt;INCORRECT&#45;ENABLE&#45;PUSH&#45;VALUE -->
<g id="edge35" class="edge">
<title>PROTOCOL&#45;ERROR&#45;&gt;INCORRECT&#45;ENABLE&#45;PUSH&#45;VALUE</title>
<path fill="none" stroke="black" d="M896.16,-468.11C923.98,-465.62 954.81,-458.05 976.75,-439 1014.96,-405.83 974.6,-364.23 1012.75,-331 1018.07,-326.36 1023.93,-322.41 1030.14,-319.06"/>
<polygon fill="black" stroke="black" points="1031.31,-322.38 1038.81,-314.9 1028.28,-316.07 1031.31,-322.38"/>
</g>
<!-- INCORRECT&#45;SETTING&#45;VALUE -->
<g id="INCORRECT&#45;SETTING&#45;VALUE" class="node internal">
<title>INCORRECT&#45;SETTING&#45;VALUE</title>
<g id="a_INCORRECT&#45;SETTING&#45;VALUE"><a xlink:href="INCORRECT-SETTING-VALUE" xlink:title="NIL">
<text xml:space="preserve" text-anchor="middle" x="1158.75" y="-352.95" font-family="Times,serif" font-size="14.00">INCORRECT&#45;SETTING&#45;VALUE</text>
</a>
</g>
</g>
<!-- PROTOCOL&#45;ERROR&#45;&gt;INCORRECT&#45;SETTING&#45;VALUE -->
<g id="edge36" class="edge">
<title>PROTOCOL&#45;ERROR&#45;&gt;INCORRECT&#45;SETTING&#45;VALUE</title>
<path fill="none" stroke="black" d="M896.15,-464.91C923.02,-461.75 953.13,-454.54 976.75,-439 1000.85,-423.15 988.68,-400.89 1012.75,-385 1023.33,-378.02 1035.24,-372.73 1047.57,-368.73"/>
<polygon fill="black" stroke="black" points="1048.41,-372.13 1057.03,-365.97 1046.45,-365.41 1048.41,-372.13"/>
</g>
<!-- NEW&#45;STREAM&#45;ID&#45;TOO&#45;LOW -->
<g id="NEW&#45;STREAM&#45;ID&#45;TOO&#45;LOW" class="node internal">
<title>NEW&#45;STREAM&#45;ID&#45;TOO&#45;LOW</title>
<g id="a_NEW&#45;STREAM&#45;ID&#45;TOO&#45;LOW"><a xlink:href="NEW-STREAM-ID-TOO-LOW" xlink:title="The identifier of a newly established stream MUST be numerically&#10; &#160;&#160;&#160;&#160;&#160;greater than all streams that the initiating endpoint has opened or&#10; &#160;&#160;&#160;&#160;&#160;reserved (max was ~d). &#160;This governs streams that are opened using a&#10; &#160;&#160;&#160;&#160;&#160;HEADERS frame and streams that are reserved using PUSH_PROMISE. &#160;An&#10; &#160;&#160;&#160;&#160;&#160;endpoint that receives an unexpected stream identifier MUST respond with a&#10; &#160;&#160;&#160;&#160;&#160;connection error (Section 5.4.1) of type PROTOCOL_ERROR.">
<text xml:space="preserve" text-anchor="middle" x="1158.75" y="-406.95" font-family="Times,serif" font-size="14.00">NEW&#45;STREAM&#45;ID&#45;TOO&#45;LOW</text>
</a>
</g>
</g>
<!-- PROTOCOL&#45;ERROR&#45;&gt;NEW&#45;STREAM&#45;ID&#45;TOO&#45;LOW -->
<g id="edge37" class="edge">
<title>PROTOCOL&#45;ERROR&#45;&gt;NEW&#45;STREAM&#45;ID&#45;TOO&#45;LOW</title>
<path fill="none" stroke="black" d="M896.42,-454.94C940.76,-447.66 999.79,-437.96 1050.53,-429.62"/>
<polygon fill="black" stroke="black" points="1051.09,-433.07 1060.39,-428 1049.96,-426.17 1051.09,-433.07"/>
</g>
<!-- FRAME&#45;TYPE&#45;NEEDS&#45;CONNECTION -->
<g id="FRAME&#45;TYPE&#45;NEEDS&#45;CONNECTION" class="node internal">
<title>FRAME&#45;TYPE&#45;NEEDS&#45;CONNECTION</title>
<g id="a_FRAME&#45;TYPE&#45;NEEDS&#45;CONNECTION"><a xlink:href="FRAME-TYPE-NEEDS-CONNECTION" xlink:title="Frame type must be applied on connection.">
<text xml:space="preserve" text-anchor="middle" x="1158.75" y="-460.95" font-family="Times,serif" font-size="14.00">FRAME&#45;TYPE&#45;NEEDS&#45;CONNECTION</text>
</a>
</g>
</g>
<!-- PROTOCOL&#45;ERROR&#45;&gt;FRAME&#45;TYPE&#45;NEEDS&#45;CONNECTION -->
<g id="edge38" class="edge">
<title>PROTOCOL&#45;ERROR&#45;&gt;FRAME&#45;TYPE&#45;NEEDS&#45;CONNECTION</title>
<path fill="none" stroke="black" d="M896.42,-466C933.99,-466 982.09,-466 1026.76,-466"/>
<polygon fill="black" stroke="black" points="1026.53,-469.5 1036.53,-466 1026.53,-462.5 1026.53,-469.5"/>
</g>
<!-- FRAME&#45;TYPE&#45;NEEDS&#45;STREAM -->
<g id="FRAME&#45;TYPE&#45;NEEDS&#45;STREAM" class="node internal">
<title>FRAME&#45;TYPE&#45;NEEDS&#45;STREAM</title>
<g id="a_FRAME&#45;TYPE&#45;NEEDS&#45;STREAM"><a xlink:href="FRAME-TYPE-NEEDS-STREAM" xlink:title="Frame MUST be associated with a stream. If a frame is received whose&#10; &#160;&#160;&#160;stream identifier field is 0x0, the recipient MUST respond with a&#10; &#160;&#160;&#160;connection error (Section 5.4.1) of type PROTOCOL_ERROR.">
<text xml:space="preserve" text-anchor="middle" x="1158.75" y="-514.95" font-family="Times,serif" font-size="14.00">FRAME&#45;TYPE&#45;NEEDS&#45;STREAM</text>
</a>
</g>
</g>
<!-- PROTOCOL&#45;ERROR&#45;&gt;FRAME&#45;TYPE&#45;NEEDS&#45;STREAM -->
<g id="edge39" class="edge">
<title>PROTOCOL&#45;ERROR&#45;&gt;FRAME&#45;TYPE&#45;NEEDS&#45;STREAM</title>
<path fill="none" stroke="black" d="M896.42,-477.06C938.58,-483.99 994.01,-493.09 1042.97,-501.14"/>
<polygon fill="black" stroke="black" points="1042.36,-504.59 1052.8,-502.75 1043.5,-497.68 1042.36,-504.59"/>
</g>
<!-- OUR&#45;ID&#45;CREATED&#45;BY&#45;PEER -->
<g id="OUR&#45;ID&#45;CREATED&#45;BY&#45;PEER" class="node internal">
<title>OUR&#45;ID&#45;CREATED&#45;BY&#45;PEER</title>
<g id="a_OUR&#45;ID&#45;CREATED&#45;BY&#45;PEER"><a xlink:href="OUR-ID-CREATED-BY-PEER" xlink:title="NIL">
<text xml:space="preserve" text-anchor="middle" x="1158.75" y="-568.95" font-family="Times,serif" font-size="14.00">OUR&#45;ID&#45;CREATED&#45;BY&#45;PEER</text>
</a>
</g>
</g>
<!-- PROTOCOL&#45;ERROR&#45;&gt;OUR&#45;ID&#45;CREATED&#45;BY&#45;PEER -->
<g id="edge40" class="edge">
<title>PROTOCOL&#45;ERROR&#45;&gt;OUR&#45;ID&#45;CREATED&#45;BY&#45;PEER</title>
<path fill="none" stroke="black" d="M863.07,-483.83C899.25,-502.15 958.65,-530.28 1012.75,-547 1025.88,-551.06 1039.87,-554.6 1053.79,-557.67"/>
<polygon fill="black" stroke="black" points="1052.93,-561.06 1063.44,-559.71 1054.38,-554.21 1052.93,-561.06"/>
</g>
<!-- FRAME&#45;TOO&#45;SMALL&#45;FOR&#45;PRIORITY -->
<g id="FRAME&#45;TOO&#45;SMALL&#45;FOR&#45;PRIORITY" class="node external">
<title>FRAME&#45;TOO&#45;SMALL&#45;FOR&#45;PRIORITY</title>
<g id="a_FRAME&#45;TOO&#45;SMALL&#45;FOR&#45;PRIORITY"><a xlink:href="FRAME-TOO-SMALL-FOR-PRIORITY" xlink:title="Length of the padding is the length of the frame payload or greater.">
<polygon fill="orange" stroke="none" points="1280.75,-646 1036.75,-646 1036.75,-610 1280.75,-610 1280.75,-646"/>
<text xml:space="preserve" text-anchor="middle" x="1158.75" y="-622.95" font-family="Times,serif" font-size="14.00">FRAME&#45;TOO&#45;SMALL&#45;FOR&#45;PRIORITY</text>
</a>
</g>
</g>
<!-- PROTOCOL&#45;ERROR&#45;&gt;FRAME&#45;TOO&#45;SMALL&#45;FOR&#45;PRIORITY -->
<g id="edge41" class="edge">
<title>PROTOCOL&#45;ERROR&#45;&gt;FRAME&#45;TOO&#45;SMALL&#45;FOR&#45;PRIORITY</title>
<path fill="none" stroke="black" d="M847.41,-483.96C878.53,-513.42 945.04,-571.65 1012.75,-601 1017.37,-603 1022.13,-604.86 1026.99,-606.57"/>
<polygon fill="black" stroke="black" points="1025.73,-609.84 1036.33,-609.64 1027.92,-603.19 1025.73,-609.84"/>
</g>
<!-- TOO&#45;BIG&#45;PADDING -->
<g id="TOO&#45;BIG&#45;PADDING" class="node internal">
<title>TOO&#45;BIG&#45;PADDING</title>
<g id="a_TOO&#45;BIG&#45;PADDING"><a xlink:href="TOO-BIG-PADDING" xlink:title="Length of the padding is the length of the frame payload or greater.">
<text xml:space="preserve" text-anchor="middle" x="1158.75" y="-676.95" font-family="Times,serif" font-size="14.00">TOO&#45;BIG&#45;PADDING</text>
</a>
</g>
</g>
<!-- PROTOCOL&#45;ERROR&#45;&gt;TOO&#45;BIG&#45;PADDING -->
<g id="edge42" class="edge">
<title>PROTOCOL&#45;ERROR&#45;&gt;TOO&#45;BIG&#45;PADDING</title>
<path fill="none" stroke="black" d="M840.64,-483.83C866.39,-522.1 932.71,-612.1 1012.75,-655 1033.02,-665.86 1056.92,-672.43 1079.4,-676.37"/>
<polygon fill="black" stroke="black" points="1078.73,-679.81 1089.16,-677.92 1079.83,-672.9 1078.73,-679.81"/>
</g>
<!-- CLIENT&#45;PREFACE&#45;MISMATCH -->
<g id="CLIENT&#45;PREFACE&#45;MISMATCH" class="node internal">
<title>CLIENT&#45;PREFACE&#45;MISMATCH</title>
<g id="a_CLIENT&#45;PREFACE&#45;MISMATCH"><a xlink:href="CLIENT-PREFACE-MISMATCH" xlink:title="HTTPS server expects a specific sequence of octets at the start of the new&#10;connection. The client sent something different.">
<text xml:space="preserve" text-anchor="middle" x="1158.75" y="-730.95" font-family="Times,serif" font-size="14.00">CLIENT&#45;PREFACE&#45;MISMATCH</text>
</a>
</g>
</g>
<!-- PROTOCOL&#45;ERROR&#45;&gt;CLIENT&#45;PREFACE&#45;MISMATCH -->
<g id="edge43" class="edge">
<title>PROTOCOL&#45;ERROR&#45;&gt;CLIENT&#45;PREFACE&#45;MISMATCH</title>
<path fill="none" stroke="black" d="M836.95,-483.96C857.96,-529.86 920.33,-651.84 1012.75,-709 1022.92,-715.29 1034.21,-720.18 1045.86,-723.98"/>
<polygon fill="black" stroke="black" points="1044.62,-727.26 1055.2,-726.74 1046.6,-720.55 1044.62,-727.26"/>
</g>
<!-- STANDARD&#45;OBJECT -->
<!-- SERIOUS&#45;CONDITION -->
<g id="SERIOUS&#45;CONDITION" class="node sink">
<title>SERIOUS&#45;CONDITION</title>
<g id="a_SERIOUS&#45;CONDITION"><a xlink:href="SERIOUS-CONDITION" xlink:title="SERIOUS&#45;CONDITION">
<text xml:space="preserve" text-anchor="middle" x="75.88" y="-1201.95" font-family="Times,serif" font-size="14.00">SERIOUS&#45;CONDITION</text>
</a>
</g>
</g>
<!-- SERIOUS&#45;CONDITION&#45;&gt;COMMUNICATION&#45;ERROR -->
<g id="edge1" class="edge">
<title>SERIOUS&#45;CONDITION&#45;&gt;COMMUNICATION&#45;ERROR</title>
<path fill="none" stroke="black" d="M151.62,-1207C159.78,-1207 168.19,-1207 176.6,-1207"/>
<polygon fill="black" stroke="black" points="176.55,-1210.5 186.55,-1207 176.55,-1203.5 176.55,-1210.5"/>
</g>
<!-- ERROR -->
<!-- CONDITION -->
<!-- SIMPLE&#45;CONDITION -->
<g id="SIMPLE&#45;CONDITION" class="node sink">
<title>SIMPLE&#45;CONDITION</title>
<g id="a_SIMPLE&#45;CONDITION"><a xlink:href="SIMPLE-CONDITION" xlink:title="SIMPLE&#45;CONDITION">
<text xml:space="preserve" text-anchor="middle" x="279.38" y="-1556.95" font-family="Times,serif" font-size="14.00">SIMPLE&#45;CONDITION</text>
</a>
</g>
</g>
<!-- SIMPLE&#45;CONDITION&#45;&gt;SIMPLE&#45;COMMUNICATION&#45;ERROR -->
<g id="edge2" class="edge">
<title>SIMPLE&#45;CONDITION&#45;&gt;SIMPLE&#45;COMMUNICATION&#45;ERROR</title>
<path fill="none" stroke="black" d="M351.24,-1562C365.39,-1562 380.65,-1562 396.05,-1562"/>
<polygon fill="black" stroke="black" points="395.76,-1565.5 405.76,-1562 395.76,-1558.5 395.76,-1565.5"/>
</g>
</g>
</svg>
