<?xml version="1.0" encoding="UTF-8" standalone="no"?>
<!DOCTYPE svg PUBLIC "-//W3C//DTD SVG 1.1//EN"
 "http://www.w3.org/Graphics/SVG/1.1/DTD/svg11.dtd">
<!-- Generated by graphviz version 14.1.4 (20260321.0153)
 -->
<!-- Title: packages Pages: 1 -->
<svg width="1678pt" height="569pt"
 viewBox="0.00 0.00 1678.00 569.00" xmlns="http://www.w3.org/2000/svg" xmlns:xlink="http://www.w3.org/1999/xlink">
<g id="graph0" class="graph" transform="scale(1 1) rotate(0) translate(4 565)">
<title>packages</title>
<polygon fill="white" stroke="none" points="-4,4 -4,-565 1673.97,-565 1673.97,4 -4,4"/>
<g id="clust1" class="cluster">
<title>cluster_HTTP2_SERVER</title>
<polygon fill="none" stroke="black" points="350.22,-175 350.22,-468 1661.97,-468 1661.97,-175 350.22,-175"/>
<text xml:space="preserve" text-anchor="middle" x="1006.1" y="-450.7" font-family="Times,serif" font-size="14.00">HTTP2/SERVER</text>
</g>
<g id="clust2" class="cluster">
<title>cluster_HTTP2_TESTS_SERVER</title>
<polygon fill="none" stroke="black" points="1067.22,-476 1067.22,-553 1318.22,-553 1318.22,-476 1067.22,-476"/>
<text xml:space="preserve" text-anchor="middle" x="1192.72" y="-535.7" font-family="Times,serif" font-size="14.00">HTTP2/TESTS/SERVER</text>
</g>
<g id="clust3" class="cluster">
<title>cluster_HTTP2_UTILS</title>
<polygon fill="none" stroke="black" points="28.97,-8 28.97,-139 565.22,-139 565.22,-8 28.97,-8"/>
<text xml:space="preserve" text-anchor="middle" x="297.1" y="-121.7" font-family="Times,serif" font-size="14.00">HTTP2/UTILS</text>
</g>
<g id="clust4" class="cluster">
<title>cluster_HTTP2_TCPIP</title>
<polygon fill="none" stroke="black" points="624.22,-90 624.22,-167 770.22,-167 770.22,-90 624.22,-90"/>
<text xml:space="preserve" text-anchor="middle" x="697.22" y="-149.7" font-family="Times,serif" font-size="14.00">HTTP2/TCPIP</text>
</g>
<!-- TLS&#45;SINGLE&#45;CLIENT&#45;DISPATCHER -->
<g id="TLS&#45;SINGLE&#45;CLIENT&#45;DISPATCHER" class="node external">
<title>TLS&#45;SINGLE&#45;CLIENT&#45;DISPATCHER</title>
<g id="a_TLS&#45;SINGLE&#45;CLIENT&#45;DISPATCHER"><a xlink:href="TLS-SINGLE-CLIENT-DISPATCHER" xlink:title="NIL">
<polygon fill="orange" stroke="none" points="1307.97,-401 1077.47,-401 1077.47,-365 1307.97,-365 1307.97,-401"/>
<text xml:space="preserve" text-anchor="middle" x="1192.72" y="-377.95" font-family="Times,serif" font-size="14.00">TLS&#45;SINGLE&#45;CLIENT&#45;DISPATCHER</text>
</a>
</g>
</g>
<!-- DETACHED&#45;TLS&#45;SINGLE&#45;CLIENT&#45;DISPATCHER -->
<g id="DETACHED&#45;TLS&#45;SINGLE&#45;CLIENT&#45;DISPATCHER" class="node external">
<title>DETACHED&#45;TLS&#45;SINGLE&#45;CLIENT&#45;DISPATCHER</title>
<g id="a_DETACHED&#45;TLS&#45;SINGLE&#45;CLIENT&#45;DISPATCHER"><a xlink:href="DETACHED-TLS-SINGLE-CLIENT-DISPATCHER" xlink:title="NIL">
<polygon fill="orange" stroke="none" points="1653.97,-381 1346.22,-381 1346.22,-345 1653.97,-345 1653.97,-381"/>
<text xml:space="preserve" text-anchor="middle" x="1500.1" y="-357.95" font-family="Times,serif" font-size="14.00">DETACHED&#45;TLS&#45;SINGLE&#45;CLIENT&#45;DISPATCHER</text>
</a>
</g>
</g>
<!-- TLS&#45;SINGLE&#45;CLIENT&#45;DISPATCHER&#45;&gt;DETACHED&#45;TLS&#45;SINGLE&#45;CLIENT&#45;DISPATCHER -->
<g id="edge6" class="edge">
<title>TLS&#45;SINGLE&#45;CLIENT&#45;DISPATCHER&#45;&gt;DETACHED&#45;TLS&#45;SINGLE&#45;CLIENT&#45;DISPATCHER</title>
<path fill="none" stroke="black" d="M1307.87,-375.52C1316.84,-374.94 1326,-374.34 1335.22,-373.73"/>
<polygon fill="black" stroke="black" points="1335.22,-377.24 1344.97,-373.09 1334.77,-370.26 1335.22,-377.24"/>
</g>
<!-- TLS&#45;DISPATCHER&#45;MIXIN -->
<g id="TLS&#45;DISPATCHER&#45;MIXIN" class="node external">
<title>TLS&#45;DISPATCHER&#45;MIXIN</title>
<g id="a_TLS&#45;DISPATCHER&#45;MIXIN"><a xlink:href="TLS-DISPATCHER-MIXIN" xlink:title="Specializes SERVER&#45;SOCKET&#45;STREAM to add TLS layer to the created sockets,&#10;and START&#45;SERVER&#45;ON&#45;SOCKET to use a context created by MAKE&#45;HTTP2&#45;TLS&#45;CONTEXT.">
<polygon fill="orange" stroke="none" points="1024.22,-273 852.22,-273 852.22,-237 1024.22,-237 1024.22,-273"/>
<text xml:space="preserve" text-anchor="middle" x="938.22" y="-249.95" font-family="Times,serif" font-size="14.00">TLS&#45;DISPATCHER&#45;MIXIN</text>
</a>
</g>
</g>
<!-- TLS&#45;DISPATCHER&#45;MIXIN&#45;&gt;TLS&#45;SINGLE&#45;CLIENT&#45;DISPATCHER -->
<g id="edge7" class="edge">
<title>TLS&#45;DISPATCHER&#45;MIXIN&#45;&gt;TLS&#45;SINGLE&#45;CLIENT&#45;DISPATCHER</title>
<path fill="none" stroke="black" d="M1024.18,-271.43C1029.6,-274.4 1034.69,-277.89 1039.22,-282 1065.28,-305.62 1040.59,-333.04 1067.22,-356 1068.33,-356.95 1069.46,-357.88 1070.62,-358.77"/>
<polygon fill="black" stroke="black" points="1068.42,-361.51 1078.67,-364.19 1072.33,-355.7 1068.42,-361.51"/>
</g>
<!-- POLL&#45;DISPATCHER -->
<g id="POLL&#45;DISPATCHER" class="node external">
<title>POLL&#45;DISPATCHER</title>
<g id="a_POLL&#45;DISPATCHER"><a xlink:href="POLL-DISPATCHER" xlink:title="NIL">
<polygon fill="orange" stroke="none" points="1260.72,-219 1124.72,-219 1124.72,-183 1260.72,-183 1260.72,-219"/>
<text xml:space="preserve" text-anchor="middle" x="1192.72" y="-195.95" font-family="Times,serif" font-size="14.00">POLL&#45;DISPATCHER</text>
</a>
</g>
</g>
<!-- TLS&#45;DISPATCHER&#45;MIXIN&#45;&gt;POLL&#45;DISPATCHER -->
<g id="edge8" class="edge">
<title>TLS&#45;DISPATCHER&#45;MIXIN&#45;&gt;POLL&#45;DISPATCHER</title>
<path fill="none" stroke="black" d="M1023.3,-237.02C1052.43,-230.79 1084.95,-223.84 1113.58,-217.71"/>
<polygon fill="black" stroke="black" points="1114.23,-221.15 1123.28,-215.64 1112.77,-214.31 1114.23,-221.15"/>
</g>
<!-- TLS&#45;THREADED&#45;DISPATCHER -->
<g id="TLS&#45;THREADED&#45;DISPATCHER" class="node external">
<title>TLS&#45;THREADED&#45;DISPATCHER</title>
<g id="a_TLS&#45;THREADED&#45;DISPATCHER"><a xlink:href="TLS-THREADED-DISPATCHER" xlink:title="NIL">
<polygon fill="orange" stroke="none" points="1294.47,-273 1090.97,-273 1090.97,-237 1294.47,-237 1294.47,-273"/>
<text xml:space="preserve" text-anchor="middle" x="1192.72" y="-249.95" font-family="Times,serif" font-size="14.00">TLS&#45;THREADED&#45;DISPATCHER</text>
</a>
</g>
</g>
<!-- TLS&#45;DISPATCHER&#45;MIXIN&#45;&gt;TLS&#45;THREADED&#45;DISPATCHER -->
<g id="edge9" class="edge">
<title>TLS&#45;DISPATCHER&#45;MIXIN&#45;&gt;TLS&#45;THREADED&#45;DISPATCHER</title>
<path fill="none" stroke="black" d="M1024.01,-255C1041.89,-255 1061.02,-255 1079.72,-255"/>
<polygon fill="black" stroke="black" points="1079.47,-258.5 1089.47,-255 1079.47,-251.5 1079.47,-258.5"/>
</g>
<!-- SINGLE&#45;CLIENT&#45;DISPATCHER -->
<g id="SINGLE&#45;CLIENT&#45;DISPATCHER" class="node external">
<title>SINGLE&#45;CLIENT&#45;DISPATCHER</title>
<g id="a_SINGLE&#45;CLIENT&#45;DISPATCHER"><a xlink:href="SINGLE-CLIENT-DISPATCHER" xlink:title="Handle the connection while doing nothing else.&#10;&#10;Serve just one client at time: when it connects, read the incoming requests and&#10;handle them as they arrive. When the client sends go&#45;away frame, close the&#10;connection and be ready to serve another client.&#10;&#10;Obviously, there is little overhead and this version is actually pretty fast &#45;&#10;for one client and in ideal conditions (especially with request pilelining).">
<polygon fill="orange" stroke="none" points="1039.22,-401 837.22,-401 837.22,-365 1039.22,-365 1039.22,-401"/>
<text xml:space="preserve" text-anchor="middle" x="938.22" y="-377.95" font-family="Times,serif" font-size="14.00">SINGLE&#45;CLIENT&#45;DISPATCHER</text>
</a>
</g>
</g>
<!-- SINGLE&#45;CLIENT&#45;DISPATCHER&#45;&gt;TLS&#45;SINGLE&#45;CLIENT&#45;DISPATCHER -->
<g id="edge10" class="edge">
<title>SINGLE&#45;CLIENT&#45;DISPATCHER&#45;&gt;TLS&#45;SINGLE&#45;CLIENT&#45;DISPATCHER</title>
<path fill="none" stroke="black" d="M1039.02,-383C1047.94,-383 1057.04,-383 1066.13,-383"/>
<polygon fill="black" stroke="black" points="1066.13,-386.5 1076.13,-383 1066.13,-379.5 1066.13,-386.5"/>
</g>
<!-- DETACHED&#45;SINGLE&#45;CLIENT&#45;DISPATCHER -->
<g id="DETACHED&#45;SINGLE&#45;CLIENT&#45;DISPATCHER" class="node external">
<title>DETACHED&#45;SINGLE&#45;CLIENT&#45;DISPATCHER</title>
<g id="a_DETACHED&#45;SINGLE&#45;CLIENT&#45;DISPATCHER"><a xlink:href="DETACHED-SINGLE-CLIENT-DISPATCHER" xlink:title="NIL">
<polygon fill="orange" stroke="none" points="1639.72,-435 1360.47,-435 1360.47,-399 1639.72,-399 1639.72,-435"/>
<text xml:space="preserve" text-anchor="middle" x="1500.1" y="-411.95" font-family="Times,serif" font-size="14.00">DETACHED&#45;SINGLE&#45;CLIENT&#45;DISPATCHER</text>
</a>
</g>
</g>
<!-- SINGLE&#45;CLIENT&#45;DISPATCHER&#45;&gt;DETACHED&#45;SINGLE&#45;CLIENT&#45;DISPATCHER -->
<g id="edge11" class="edge">
<title>SINGLE&#45;CLIENT&#45;DISPATCHER&#45;&gt;DETACHED&#45;SINGLE&#45;CLIENT&#45;DISPATCHER</title>
<path fill="none" stroke="black" d="M1012.61,-401C1030.38,-404.65 1049.39,-407.99 1067.22,-410 1160.55,-420.5 1265.93,-422.4 1349.23,-421.61"/>
<polygon fill="black" stroke="black" points="1349.1,-425.11 1359.06,-421.5 1349.02,-418.11 1349.1,-425.11"/>
</g>
<!-- BASE&#45;DISPATCHER -->
<g id="BASE&#45;DISPATCHER" class="node external">
<title>BASE&#45;DISPATCHER</title>
<g id="a_BASE&#45;DISPATCHER"><a xlink:href="BASE-DISPATCHER" xlink:title="NIL">
<polygon fill="orange" stroke="none" points="494.97,-327 358.22,-327 358.22,-291 494.97,-291 494.97,-327"/>
<text xml:space="preserve" text-anchor="middle" x="426.6" y="-303.95" font-family="Times,serif" font-size="14.00">BASE&#45;DISPATCHER</text>
</a>
</g>
</g>
<!-- BASE&#45;DISPATCHER&#45;&gt;SINGLE&#45;CLIENT&#45;DISPATCHER -->
<g id="edge12" class="edge">
<title>BASE&#45;DISPATCHER&#45;&gt;SINGLE&#45;CLIENT&#45;DISPATCHER</title>
<path fill="none" stroke="black" d="M494.75,-318.75C579.16,-331.01 725.21,-352.21 826.31,-366.89"/>
<polygon fill="black" stroke="black" points="825.59,-370.33 835.99,-368.3 826.59,-363.4 825.59,-370.33"/>
</g>
<!-- CERTIFICATE&#45;H2&#45;DISPATCHER -->
<g id="CERTIFICATE&#45;H2&#45;DISPATCHER" class="node internal">
<title>CERTIFICATE&#45;H2&#45;DISPATCHER</title>
<g id="a_CERTIFICATE&#45;H2&#45;DISPATCHER"><a xlink:href="CERTIFICATE-H2-DISPATCHER" xlink:title="NIL">
<text xml:space="preserve" text-anchor="middle" x="697.22" y="-249.95" font-family="Times,serif" font-size="14.00">CERTIFICATE&#45;H2&#45;DISPATCHER</text>
</a>
</g>
</g>
<!-- BASE&#45;DISPATCHER&#45;&gt;CERTIFICATE&#45;H2&#45;DISPATCHER -->
<g id="edge13" class="edge">
<title>BASE&#45;DISPATCHER&#45;&gt;CERTIFICATE&#45;H2&#45;DISPATCHER</title>
<path fill="none" stroke="black" d="M494.69,-295.51C525.13,-289.39 561.77,-282.03 595.42,-275.27"/>
<polygon fill="black" stroke="black" points="596.1,-278.7 605.21,-273.3 594.72,-271.83 596.1,-278.7"/>
</g>
<!-- THREADED&#45;DISPATCHER -->
<g id="THREADED&#45;DISPATCHER" class="node external">
<title>THREADED&#45;DISPATCHER</title>
<g id="a_THREADED&#45;DISPATCHER"><a xlink:href="THREADED-DISPATCHER" xlink:title="Specialize DO&#45;NEW&#45;CONNECTION to process new connections each in a separate thread. ">
<polygon fill="orange" stroke="none" points="1025.72,-327 850.72,-327 850.72,-291 1025.72,-291 1025.72,-327"/>
<text xml:space="preserve" text-anchor="middle" x="938.22" y="-303.95" font-family="Times,serif" font-size="14.00">THREADED&#45;DISPATCHER</text>
</a>
</g>
</g>
<!-- BASE&#45;DISPATCHER&#45;&gt;THREADED&#45;DISPATCHER -->
<g id="edge14" class="edge">
<title>BASE&#45;DISPATCHER&#45;&gt;THREADED&#45;DISPATCHER</title>
<path fill="none" stroke="black" d="M494.75,-309C582.84,-309 738.09,-309 839.29,-309"/>
<polygon fill="black" stroke="black" points="839.23,-312.5 849.23,-309 839.23,-305.5 839.23,-312.5"/>
</g>
<!-- DETACHED&#45;POLL&#45;DISPATCHER -->
<g id="DETACHED&#45;POLL&#45;DISPATCHER" class="node external">
<title>DETACHED&#45;POLL&#45;DISPATCHER</title>
<g id="a_DETACHED&#45;POLL&#45;DISPATCHER"><a xlink:href="DETACHED-POLL-DISPATCHER" xlink:title="Detached version of the POLL&#45;DISPATCHER.">
<polygon fill="orange" stroke="none" points="1606.72,-219 1393.47,-219 1393.47,-183 1606.72,-183 1606.72,-219"/>
<text xml:space="preserve" text-anchor="middle" x="1500.1" y="-195.95" font-family="Times,serif" font-size="14.00">DETACHED&#45;POLL&#45;DISPATCHER</text>
</a>
</g>
</g>
<!-- POLL&#45;DISPATCHER&#45;&gt;DETACHED&#45;POLL&#45;DISPATCHER -->
<g id="edge15" class="edge">
<title>POLL&#45;DISPATCHER&#45;&gt;DETACHED&#45;POLL&#45;DISPATCHER</title>
<path fill="none" stroke="black" d="M1260.36,-201C1296.05,-201 1341.05,-201 1382.34,-201"/>
<polygon fill="black" stroke="black" points="1382.07,-204.5 1392.07,-201 1382.07,-197.5 1382.07,-204.5"/>
</g>
<!-- DETACHED&#45;TLS&#45;THREADED&#45;DISPATCHER -->
<g id="DETACHED&#45;TLS&#45;THREADED&#45;DISPATCHER" class="node external">
<title>DETACHED&#45;TLS&#45;THREADED&#45;DISPATCHER</title>
<g id="a_DETACHED&#45;TLS&#45;THREADED&#45;DISPATCHER"><a xlink:href="DETACHED-TLS-THREADED-DISPATCHER" xlink:title="NIL">
<polygon fill="orange" stroke="none" points="1640.47,-273 1359.72,-273 1359.72,-237 1640.47,-237 1640.47,-273"/>
<text xml:space="preserve" text-anchor="middle" x="1500.1" y="-249.95" font-family="Times,serif" font-size="14.00">DETACHED&#45;TLS&#45;THREADED&#45;DISPATCHER</text>
</a>
</g>
</g>
<!-- TLS&#45;THREADED&#45;DISPATCHER&#45;&gt;DETACHED&#45;TLS&#45;THREADED&#45;DISPATCHER -->
<g id="edge16" class="edge">
<title>TLS&#45;THREADED&#45;DISPATCHER&#45;&gt;DETACHED&#45;TLS&#45;THREADED&#45;DISPATCHER</title>
<path fill="none" stroke="black" d="M1294.14,-255C1311.56,-255 1330.01,-255 1348.42,-255"/>
<polygon fill="black" stroke="black" points="1348.36,-258.5 1358.36,-255 1348.36,-251.5 1348.36,-258.5"/>
</g>
<!-- CERTIFICATE&#45;H2&#45;DISPATCHER&#45;&gt;TLS&#45;DISPATCHER&#45;MIXIN -->
<g id="edge17" class="edge">
<title>CERTIFICATE&#45;H2&#45;DISPATCHER&#45;&gt;TLS&#45;DISPATCHER&#45;MIXIN</title>
<path fill="none" stroke="black" d="M800.97,-255C814.28,-255 827.87,-255 841.06,-255"/>
<polygon fill="black" stroke="black" points="841.03,-258.5 851.03,-255 841.03,-251.5 841.03,-258.5"/>
</g>
<!-- CERTIFICATED&#45;POLL&#45;DISPATCHER -->
<g id="CERTIFICATED&#45;POLL&#45;DISPATCHER" class="node internal">
<title>CERTIFICATED&#45;POLL&#45;DISPATCHER</title>
<g id="a_CERTIFICATED&#45;POLL&#45;DISPATCHER"><a xlink:href="CERTIFICATED-POLL-DISPATCHER" xlink:title="NIL">
<text xml:space="preserve" text-anchor="middle" x="1192.72" y="-496.95" font-family="Times,serif" font-size="14.00">CERTIFICATED&#45;POLL&#45;DISPATCHER</text>
</a>
</g>
</g>
<!-- CERTIFICATE&#45;H2&#45;DISPATCHER&#45;&gt;CERTIFICATED&#45;POLL&#45;DISPATCHER -->
<g id="edge18" class="edge">
<title>CERTIFICATE&#45;H2&#45;DISPATCHER&#45;&gt;CERTIFICATED&#45;POLL&#45;DISPATCHER</title>
<path fill="none" stroke="black" d="M709.18,-272.91C729.99,-305.35 778.42,-373.82 837.22,-410 905.85,-452.22 993.4,-475.19 1064.32,-487.61"/>
<polygon fill="black" stroke="black" points="1063.62,-491.04 1074.06,-489.26 1064.79,-484.14 1063.62,-491.04"/>
</g>
<!-- DETACHED&#45;SERVER&#45;MIXIN -->
<g id="DETACHED&#45;SERVER&#45;MIXIN" class="node external">
<title>DETACHED&#45;SERVER&#45;MIXIN</title>
<g id="a_DETACHED&#45;SERVER&#45;MIXIN"><a xlink:href="DETACHED-SERVER-MIXIN" xlink:title="NIL">
<polygon fill="orange" stroke="none" points="1288.1,-347 1097.35,-347 1097.35,-311 1288.1,-311 1288.1,-347"/>
<text xml:space="preserve" text-anchor="middle" x="1192.72" y="-323.95" font-family="Times,serif" font-size="14.00">DETACHED&#45;SERVER&#45;MIXIN</text>
</a>
</g>
</g>
<!-- DETACHED&#45;SERVER&#45;MIXIN&#45;&gt;DETACHED&#45;TLS&#45;SINGLE&#45;CLIENT&#45;DISPATCHER -->
<g id="edge19" class="edge">
<title>DETACHED&#45;SERVER&#45;MIXIN&#45;&gt;DETACHED&#45;TLS&#45;SINGLE&#45;CLIENT&#45;DISPATCHER</title>
<path fill="none" stroke="black" d="M1287.84,-339.48C1302.93,-341.16 1318.92,-342.94 1335.09,-344.74"/>
<polygon fill="black" stroke="black" points="1334.47,-348.19 1344.79,-345.82 1335.24,-341.23 1334.47,-348.19"/>
</g>
<!-- DETACHED&#45;SERVER&#45;MIXIN&#45;&gt;DETACHED&#45;SINGLE&#45;CLIENT&#45;DISPATCHER -->
<g id="edge20" class="edge">
<title>DETACHED&#45;SERVER&#45;MIXIN&#45;&gt;DETACHED&#45;SINGLE&#45;CLIENT&#45;DISPATCHER</title>
<path fill="none" stroke="black" d="M1287.82,-342.23C1298.49,-345.79 1308.88,-350.3 1318.22,-356 1334.94,-366.19 1329.32,-380.13 1346.22,-390 1348.86,-391.54 1351.56,-392.99 1354.32,-394.37"/>
<polygon fill="black" stroke="black" points="1352.6,-397.43 1363.15,-398.39 1355.5,-391.06 1352.6,-397.43"/>
</g>
<!-- DETACHED&#45;SERVER&#45;MIXIN&#45;&gt;DETACHED&#45;POLL&#45;DISPATCHER -->
<g id="edge21" class="edge">
<title>DETACHED&#45;SERVER&#45;MIXIN&#45;&gt;DETACHED&#45;POLL&#45;DISPATCHER</title>
<path fill="none" stroke="black" d="M1267.81,-311.07C1285.77,-304.16 1303.89,-294.74 1318.22,-282 1338.43,-264.04 1324.44,-244.01 1346.22,-228 1357.08,-220.02 1369.53,-214.13 1382.54,-209.81"/>
<polygon fill="black" stroke="black" points="1383.52,-213.17 1392.12,-206.98 1381.53,-206.46 1383.52,-213.17"/>
</g>
<!-- DETACHED&#45;THREADED&#45;DISPATCHER -->
<g id="DETACHED&#45;THREADED&#45;DISPATCHER" class="node internal">
<title>DETACHED&#45;THREADED&#45;DISPATCHER</title>
<g id="a_DETACHED&#45;THREADED&#45;DISPATCHER"><a xlink:href="DETACHED-THREADED-DISPATCHER" xlink:title="NIL">
<text xml:space="preserve" text-anchor="middle" x="1500.1" y="-303.95" font-family="Times,serif" font-size="14.00">DETACHED&#45;THREADED&#45;DISPATCHER</text>
</a>
</g>
</g>
<!-- DETACHED&#45;SERVER&#45;MIXIN&#45;&gt;DETACHED&#45;THREADED&#45;DISPATCHER -->
<g id="edge22" class="edge">
<title>DETACHED&#45;SERVER&#45;MIXIN&#45;&gt;DETACHED&#45;THREADED&#45;DISPATCHER</title>
<path fill="none" stroke="black" d="M1287.84,-322.84C1311.58,-321.28 1337.54,-319.58 1362.89,-317.92"/>
<polygon fill="black" stroke="black" points="1362.84,-321.43 1372.59,-317.29 1362.38,-314.45 1362.84,-321.43"/>
</g>
<!-- DETACHED&#45;SERVER&#45;MIXIN&#45;&gt;DETACHED&#45;TLS&#45;THREADED&#45;DISPATCHER -->
<g id="edge23" class="edge">
<title>DETACHED&#45;SERVER&#45;MIXIN&#45;&gt;DETACHED&#45;TLS&#45;THREADED&#45;DISPATCHER</title>
<path fill="none" stroke="black" d="M1246.21,-311.06C1275.41,-301.52 1312.56,-290.13 1346.22,-282 1356.13,-279.61 1366.45,-277.33 1376.84,-275.19"/>
<polygon fill="black" stroke="black" points="1377.53,-278.63 1386.64,-273.22 1376.15,-271.76 1377.53,-278.63"/>
</g>
<!-- THREADED&#45;DISPATCHER&#45;&gt;TLS&#45;THREADED&#45;DISPATCHER -->
<g id="edge26" class="edge">
<title>THREADED&#45;DISPATCHER&#45;&gt;TLS&#45;THREADED&#45;DISPATCHER</title>
<path fill="none" stroke="black" d="M1023.3,-291.02C1046.82,-285.99 1072.53,-280.49 1096.64,-275.34"/>
<polygon fill="black" stroke="black" points="1097.06,-278.83 1106.1,-273.31 1095.59,-271.98 1097.06,-278.83"/>
</g>
<!-- THREADED&#45;DISPATCHER&#45;&gt;DETACHED&#45;THREADED&#45;DISPATCHER -->
<g id="edge27" class="edge">
<title>THREADED&#45;DISPATCHER&#45;&gt;DETACHED&#45;THREADED&#45;DISPATCHER</title>
<path fill="none" stroke="black" d="M1025.61,-303.63C1039.52,-302.95 1053.76,-302.37 1067.22,-302 1178.74,-298.95 1206.69,-299.84 1318.22,-302 1332.62,-302.28 1347.66,-302.68 1362.65,-303.16"/>
<polygon fill="black" stroke="black" points="1362.46,-306.65 1372.57,-303.48 1362.69,-299.66 1362.46,-306.65"/>
</g>
<!-- POLL&#45;DISPATCHER&#45;MIXIN -->
<g id="POLL&#45;DISPATCHER&#45;MIXIN" class="node external">
<title>POLL&#45;DISPATCHER&#45;MIXIN</title>
<g id="a_POLL&#45;DISPATCHER&#45;MIXIN"><a xlink:href="POLL-DISPATCHER-MIXIN" xlink:title="Uses poll to listen to a set of clients and handle arriving packets in a single&#10;thread.&#10;&#10;Maximum number of clients is fixed (by default *fdset&#45;size*, by default&#10;10). Additional clients wait until one of existing client leaves.&#10;&#10;Timeouts can be specified for polling.">
<polygon fill="orange" stroke="none" points="1029.1,-219 847.35,-219 847.35,-183 1029.1,-183 1029.1,-219"/>
<text xml:space="preserve" text-anchor="middle" x="938.22" y="-195.95" font-family="Times,serif" font-size="14.00">POLL&#45;DISPATCHER&#45;MIXIN</text>
</a>
</g>
</g>
<!-- POLL&#45;DISPATCHER&#45;MIXIN&#45;&gt;POLL&#45;DISPATCHER -->
<g id="edge28" class="edge">
<title>POLL&#45;DISPATCHER&#45;MIXIN&#45;&gt;POLL&#45;DISPATCHER</title>
<path fill="none" stroke="black" d="M1028.96,-201C1056.62,-201 1086.83,-201 1113.64,-201"/>
<polygon fill="black" stroke="black" points="1113.39,-204.5 1123.39,-201 1113.39,-197.5 1113.39,-204.5"/>
</g>
<!-- POLL&#45;DISPATCHER&#45;MIXIN&#45;&gt;CERTIFICATED&#45;POLL&#45;DISPATCHER -->
<g id="edge29" class="edge">
<title>POLL&#45;DISPATCHER&#45;MIXIN&#45;&gt;CERTIFICATED&#45;POLL&#45;DISPATCHER</title>
<path fill="none" stroke="black" d="M1028.95,-218.64C1032.71,-221.35 1036.17,-224.46 1039.22,-228 1110.43,-310.73 994.9,-390.25 1067.22,-472 1068.9,-473.89 1070.67,-475.68 1072.53,-477.36"/>
<polygon fill="black" stroke="black" points="1069.95,-479.79 1079.99,-483.16 1074.24,-474.26 1069.95,-479.79"/>
</g>
<!-- EASY&#45;CERTIFICATED&#45;CONTEXT&#45;MIXIN -->
<g id="EASY&#45;CERTIFICATED&#45;CONTEXT&#45;MIXIN" class="node external">
<title>EASY&#45;CERTIFICATED&#45;CONTEXT&#45;MIXIN</title>
<g id="a_EASY&#45;CERTIFICATED&#45;CONTEXT&#45;MIXIN"><a xlink:href="EASY-CERTIFICATED-CONTEXT-MIXIN" xlink:title="Uses HOSTNAME (defaulting to localhost) to locate or create the key pair.">
<polygon fill="orange" stroke="none" points="557.22,-71 295.97,-71 295.97,-35 557.22,-35 557.22,-71"/>
<text xml:space="preserve" text-anchor="middle" x="426.6" y="-47.95" font-family="Times,serif" font-size="14.00">EASY&#45;CERTIFICATED&#45;CONTEXT&#45;MIXIN</text>
</a>
</g>
</g>
<!-- EASY&#45;CERTIFICATED&#45;CONTEXT&#45;MIXIN&#45;&gt;CERTIFICATE&#45;H2&#45;DISPATCHER -->
<g id="edge24" class="edge">
<title>EASY&#45;CERTIFICATED&#45;CONTEXT&#45;MIXIN&#45;&gt;CERTIFICATE&#45;H2&#45;DISPATCHER</title>
<path fill="none" stroke="black" d="M538.05,-70.96C547.97,-75.68 557.26,-81.6 565.22,-89 593.43,-115.22 571.23,-139.39 593.22,-171 609.91,-194.98 635.28,-215.79 656.67,-230.69"/>
<polygon fill="black" stroke="black" points="654.67,-233.57 664.92,-236.27 658.6,-227.77 654.67,-233.57"/>
</g>
<!-- H2&#45;SERVER&#45;CONTEXT&#45;MIXIN -->
<g id="H2&#45;SERVER&#45;CONTEXT&#45;MIXIN" class="node external">
<title>H2&#45;SERVER&#45;CONTEXT&#45;MIXIN</title>
<g id="a_H2&#45;SERVER&#45;CONTEXT&#45;MIXIN"><a xlink:href="H2-SERVER-CONTEXT-MIXIN" xlink:title="This mixin ensures that the server will provide H2 alpn during TLS negotiation.">
<polygon fill="orange" stroke="none" points="249.1,-106 47.85,-106 47.85,-70 249.1,-70 249.1,-106"/>
<text xml:space="preserve" text-anchor="middle" x="148.47" y="-82.95" font-family="Times,serif" font-size="14.00">H2&#45;SERVER&#45;CONTEXT&#45;MIXIN</text>
</a>
</g>
</g>
<!-- H2&#45;SERVER&#45;CONTEXT&#45;MIXIN&#45;&gt;CERTIFICATE&#45;H2&#45;DISPATCHER -->
<g id="edge25" class="edge">
<title>H2&#45;SERVER&#45;CONTEXT&#45;MIXIN&#45;&gt;CERTIFICATE&#45;H2&#45;DISPATCHER</title>
<path fill="none" stroke="black" d="M208.25,-105.95C309.84,-136.98 517.82,-200.51 626.53,-233.71"/>
<polygon fill="black" stroke="black" points="625.34,-237.01 635.93,-236.58 627.38,-230.31 625.34,-237.01"/>
</g>
<!-- CERTIFICATED&#45;CONTEXT&#45;MIXIN -->
<g id="CERTIFICATED&#45;CONTEXT&#45;MIXIN" class="node external">
<title>CERTIFICATED&#45;CONTEXT&#45;MIXIN</title>
<g id="a_CERTIFICATED&#45;CONTEXT&#45;MIXIN"><a xlink:href="CERTIFICATED-CONTEXT-MIXIN" xlink:title="Dispatcher with two slots, CERTIFICATE&#45;FILE and PRIVATE&#45;KEY&#45;FILE, that are used&#10;for TLS context creation.">
<polygon fill="orange" stroke="none" points="259.97,-52 36.97,-52 36.97,-16 259.97,-16 259.97,-52"/>
<text xml:space="preserve" text-anchor="middle" x="148.47" y="-28.95" font-family="Times,serif" font-size="14.00">CERTIFICATED&#45;CONTEXT&#45;MIXIN</text>
</a>
</g>
</g>
<!-- CERTIFICATED&#45;CONTEXT&#45;MIXIN&#45;&gt;EASY&#45;CERTIFICATED&#45;CONTEXT&#45;MIXIN -->
<g id="edge31" class="edge">
<title>CERTIFICATED&#45;CONTEXT&#45;MIXIN&#45;&gt;EASY&#45;CERTIFICATED&#45;CONTEXT&#45;MIXIN</title>
<path fill="none" stroke="black" d="M259.8,-41.59C268.06,-42.16 276.46,-42.74 284.87,-43.32"/>
<polygon fill="black" stroke="black" points="284.61,-46.81 294.83,-44 285.1,-39.82 284.61,-46.81"/>
</g>
<!-- FDSET&#45;MANAGER -->
<g id="FDSET&#45;MANAGER" class="node external">
<title>FDSET&#45;MANAGER</title>
<g id="a_FDSET&#45;MANAGER"><a xlink:href="FDSET-MANAGER" xlink:title="Uses poll to listen to a set of clients and handle arriving packets in a single&#10;thread.&#10;&#10;Maximum number of clients is fixed (by default *fdset&#45;size*, by default&#10;10). Additional clients wait until one of existing client leaves.&#10;&#10;Timeouts can be specified for polling.">
<polygon fill="orange" stroke="none" points="762.22,-134 632.22,-134 632.22,-98 762.22,-98 762.22,-134"/>
<text xml:space="preserve" text-anchor="middle" x="697.22" y="-110.95" font-family="Times,serif" font-size="14.00">FDSET&#45;MANAGER</text>
</a>
</g>
</g>
<!-- FDSET&#45;MANAGER&#45;&gt;POLL&#45;DISPATCHER&#45;MIXIN -->
<g id="edge30" class="edge">
<title>FDSET&#45;MANAGER&#45;&gt;POLL&#45;DISPATCHER&#45;MIXIN</title>
<path fill="none" stroke="black" d="M748.62,-133.92C785.8,-147.15 836.57,-165.2 876.08,-179.25"/>
<polygon fill="black" stroke="black" points="874.88,-182.54 885.47,-182.59 877.22,-175.95 874.88,-182.54"/>
</g>
<!-- FLOW&#45;CONTROL&#45;MIXIN -->
<!-- STANDARD&#45;OBJECT -->
<!-- STANDARD&#45;OBJECT&#45;&gt;BASE&#45;DISPATCHER -->
<!-- STANDARD&#45;OBJECT&#45;&gt;DETACHED&#45;SERVER&#45;MIXIN -->
<!-- STANDARD&#45;OBJECT&#45;&gt;H2&#45;SERVER&#45;CONTEXT&#45;MIXIN -->
<!-- STANDARD&#45;OBJECT&#45;&gt;CERTIFICATED&#45;CONTEXT&#45;MIXIN -->
<!-- STANDARD&#45;OBJECT&#45;&gt;FDSET&#45;MANAGER -->
<!-- TEST&#45;BUFFERED&#45;STREAM -->
</g>
</svg>
