<?xml version="1.0" encoding="UTF-8" standalone="no"?>
<!DOCTYPE svg PUBLIC "-//W3C//DTD SVG 1.1//EN"
 "http://www.w3.org/Graphics/SVG/1.1/DTD/svg11.dtd">
<!-- Generated by graphviz version 14.1.4 (20260321.0153)
 -->
<!-- Title: packages Pages: 1 -->
<svg width="1308pt" height="479pt"
 viewBox="0.00 0.00 1308.00 479.00" xmlns="http://www.w3.org/2000/svg" xmlns:xlink="http://www.w3.org/1999/xlink">
<g id="graph0" class="graph" transform="scale(1 1) rotate(0) translate(4 475)">
<title>packages</title>
<polygon fill="white" stroke="none" points="-4,4 -4,-475 1304,-475 1304,4 -4,4"/>
<g id="clust1" class="cluster">
<title>cluster_HTTP2_CORE</title>
<polygon fill="none" stroke="black" points="179.75,-8 179.75,-463 1292,-463 1292,-8 179.75,-8"/>
<text xml:space="preserve" text-anchor="middle" x="735.88" y="-445.7" font-family="Times,serif" font-size="14.00">HTTP2/CORE</text>
</g>
<!-- HTTP&#45;STREAM&#45;ERROR -->
<g id="HTTP&#45;STREAM&#45;ERROR" class="node external">
<title>HTTP&#45;STREAM&#45;ERROR</title>
<g id="a_HTTP&#45;STREAM&#45;ERROR"><a xlink:href="HTTP-STREAM-ERROR" xlink:title="HTTP stream error was either detected, or received from the peer.&#10;&#10;Base class for more detailed errors.">
<polygon fill="orange" stroke="none" points="347,-268 187.75,-268 187.75,-232 347,-232 347,-268"/>
<text xml:space="preserve" text-anchor="middle" x="267.38" y="-244.95" font-family="Times,serif" font-size="14.00">HTTP&#45;STREAM&#45;ERROR</text>
</a>
</g>
</g>
<!-- NULL&#45;STREAM&#45;WINDOW&#45;UPDATE -->
<g id="NULL&#45;STREAM&#45;WINDOW&#45;UPDATE" class="node internal">
<title>NULL&#45;STREAM&#45;WINDOW&#45;UPDATE</title>
<g id="a_NULL&#45;STREAM&#45;WINDOW&#45;UPDATE"><a xlink:href="NULL-STREAM-WINDOW-UPDATE" xlink:title="A receiver MUST treat the receipt of a WINDOW_UPDATE frame with a flow&#45;control window increment of 0 as a stream error.">
<text xml:space="preserve" text-anchor="middle" x="499.38" y="-163.95" font-family="Times,serif" font-size="14.00">NULL&#45;STREAM&#45;WINDOW&#45;UPDATE</text>
</a>
</g>
</g>
<!-- HTTP&#45;STREAM&#45;ERROR&#45;&gt;NULL&#45;STREAM&#45;WINDOW&#45;UPDATE -->
<g id="edge3" class="edge">
<title>HTTP&#45;STREAM&#45;ERROR&#45;&gt;NULL&#45;STREAM&#45;WINDOW&#45;UPDATE</title>
<path fill="none" stroke="black" d="M301.7,-232.01C324.16,-220.46 354.75,-205.84 383,-196 389.04,-193.9 395.31,-191.91 401.67,-190.04"/>
<polygon fill="black" stroke="black" points="402.3,-193.49 410.97,-187.41 400.39,-186.76 402.3,-193.49"/>
</g>
<!-- STREAM&#45;PROTOCOL&#45;ERROR -->
<g id="STREAM&#45;PROTOCOL&#45;ERROR" class="node internal">
<title>STREAM&#45;PROTOCOL&#45;ERROR</title>
<g id="a_STREAM&#45;PROTOCOL&#45;ERROR"><a xlink:href="STREAM-PROTOCOL-ERROR" xlink:title="NIL">
<text xml:space="preserve" text-anchor="middle" x="499.38" y="-217.95" font-family="Times,serif" font-size="14.00">STREAM&#45;PROTOCOL&#45;ERROR</text>
</a>
</g>
</g>
<!-- HTTP&#45;STREAM&#45;ERROR&#45;&gt;STREAM&#45;PROTOCOL&#45;ERROR -->
<g id="edge4" class="edge">
<title>HTTP&#45;STREAM&#45;ERROR&#45;&gt;STREAM&#45;PROTOCOL&#45;ERROR</title>
<path fill="none" stroke="black" d="M346.88,-240.78C360.78,-239.15 375.47,-237.43 390.02,-235.72"/>
<polygon fill="black" stroke="black" points="390.07,-239.24 399.59,-234.6 389.25,-232.29 390.07,-239.24"/>
</g>
<!-- INCORRECT&#45;FRAME&#45;SIZE -->
<g id="INCORRECT&#45;FRAME&#45;SIZE" class="node internal">
<title>INCORRECT&#45;FRAME&#45;SIZE</title>
<g id="a_INCORRECT&#45;FRAME&#45;SIZE"><a xlink:href="INCORRECT-FRAME-SIZE" xlink:title="NIL">
<text xml:space="preserve" text-anchor="middle" x="499.38" y="-271.95" font-family="Times,serif" font-size="14.00">INCORRECT&#45;FRAME&#45;SIZE</text>
</a>
</g>
</g>
<!-- HTTP&#45;STREAM&#45;ERROR&#45;&gt;INCORRECT&#45;FRAME&#45;SIZE -->
<g id="edge5" class="edge">
<title>HTTP&#45;STREAM&#45;ERROR&#45;&gt;INCORRECT&#45;FRAME&#45;SIZE</title>
<path fill="none" stroke="black" d="M346.88,-259.22C363.94,-261.22 382.19,-263.36 399.9,-265.44"/>
<polygon fill="black" stroke="black" points="399.3,-268.89 409.64,-266.58 400.12,-261.94 399.3,-268.89"/>
</g>
<!-- HTTP&#45;STREAM&#45;ERROR&#45;RECEIVED -->
<g id="HTTP&#45;STREAM&#45;ERROR&#45;RECEIVED" class="node external">
<title>HTTP&#45;STREAM&#45;ERROR&#45;RECEIVED</title>
<g id="a_HTTP&#45;STREAM&#45;ERROR&#45;RECEIVED"><a xlink:href="HTTP-STREAM-ERROR-RECEIVED" xlink:title="NIL">
<polygon fill="orange" stroke="none" points="614.62,-349 384.12,-349 384.12,-313 614.62,-313 614.62,-349"/>
<text xml:space="preserve" text-anchor="middle" x="499.38" y="-325.95" font-family="Times,serif" font-size="14.00">HTTP&#45;STREAM&#45;ERROR&#45;RECEIVED</text>
</a>
</g>
</g>
<!-- HTTP&#45;STREAM&#45;ERROR&#45;&gt;HTTP&#45;STREAM&#45;ERROR&#45;RECEIVED -->
<g id="edge6" class="edge">
<title>HTTP&#45;STREAM&#45;ERROR&#45;&gt;HTTP&#45;STREAM&#45;ERROR&#45;RECEIVED</title>
<path fill="none" stroke="black" d="M301.7,-267.99C324.16,-279.54 354.75,-294.16 383,-304 389.04,-306.1 395.31,-308.09 401.67,-309.96"/>
<polygon fill="black" stroke="black" points="400.39,-313.24 410.97,-312.59 402.3,-306.51 400.39,-313.24"/>
</g>
<!-- HEADER&#45;ERROR -->
<g id="HEADER&#45;ERROR" class="node internal">
<title>HEADER&#45;ERROR</title>
<g id="a_HEADER&#45;ERROR"><a xlink:href="HEADER-ERROR" xlink:title="Base class for various errors in headers">
<text xml:space="preserve" text-anchor="middle" x="711.88" y="-217.95" font-family="Times,serif" font-size="14.00">HEADER&#45;ERROR</text>
</a>
</g>
</g>
<!-- STREAM&#45;PROTOCOL&#45;ERROR&#45;&gt;HEADER&#45;ERROR -->
<g id="edge7" class="edge">
<title>STREAM&#45;PROTOCOL&#45;ERROR&#45;&gt;HEADER&#45;ERROR</title>
<path fill="none" stroke="black" d="M597.61,-223C612.09,-223 626.77,-223 640.55,-223"/>
<polygon fill="black" stroke="black" points="640.37,-226.5 650.37,-223 640.37,-219.5 640.37,-226.5"/>
</g>
<!-- HEADER&#45;RESOURCES&#45;ERROR -->
<g id="HEADER&#45;RESOURCES&#45;ERROR" class="node internal">
<title>HEADER&#45;RESOURCES&#45;ERROR</title>
<g id="a_HEADER&#45;RESOURCES&#45;ERROR"><a xlink:href="HEADER-RESOURCES-ERROR" xlink:title="NIL">
<text xml:space="preserve" text-anchor="middle" x="948" y="-28.95" font-family="Times,serif" font-size="14.00">HEADER&#45;RESOURCES&#45;ERROR</text>
</a>
</g>
</g>
<!-- HEADER&#45;ERROR&#45;&gt;HEADER&#45;RESOURCES&#45;ERROR -->
<g id="edge8" class="edge">
<title>HEADER&#45;ERROR&#45;&gt;HEADER&#45;RESOURCES&#45;ERROR</title>
<path fill="none" stroke="black" d="M717.99,-205C728.64,-170.97 756.62,-97.36 808,-61 816.47,-55 825.93,-50.25 835.82,-46.49"/>
<polygon fill="black" stroke="black" points="836.92,-49.82 845.27,-43.28 834.67,-43.19 836.92,-49.82"/>
</g>
<!-- MISSING&#45;PSEUDO&#45;HEADER -->
<g id="MISSING&#45;PSEUDO&#45;HEADER" class="node internal">
<title>MISSING&#45;PSEUDO&#45;HEADER</title>
<g id="a_MISSING&#45;PSEUDO&#45;HEADER"><a xlink:href="MISSING-PSEUDO-HEADER" xlink:title=":status pseudo&#45;header field MUST be included in all responses.&#10;&#10; All HTTP/2 requests MUST include exactly one valid value for the&#10; &#160;&#160;:method, :scheme, and :path pseudo&#45;header fields, unless it is&#10; &#160;&#160;a CONNECT request.">
<text xml:space="preserve" text-anchor="middle" x="948" y="-82.95" font-family="Times,serif" font-size="14.00">MISSING&#45;PSEUDO&#45;HEADER</text>
</a>
</g>
</g>
<!-- HEADER&#45;ERROR&#45;&gt;MISSING&#45;PSEUDO&#45;HEADER -->
<g id="edge9" class="edge">
<title>HEADER&#45;ERROR&#45;&gt;MISSING&#45;PSEUDO&#45;HEADER</title>
<path fill="none" stroke="black" d="M723.24,-205.19C738.5,-180.69 769.41,-137.11 808,-115 818.81,-108.81 830.78,-104.01 843.03,-100.3"/>
<polygon fill="black" stroke="black" points="843.69,-103.75 852.39,-97.71 841.82,-97 843.69,-103.75"/>
</g>
<!-- LOWERCASE&#45;HEADER&#45;FIELD&#45;NAME -->
<g id="LOWERCASE&#45;HEADER&#45;FIELD&#45;NAME" class="node internal">
<title>LOWERCASE&#45;HEADER&#45;FIELD&#45;NAME</title>
<g id="a_LOWERCASE&#45;HEADER&#45;FIELD&#45;NAME"><a xlink:href="LOWERCASE-HEADER-FIELD-NAME" xlink:title="A request or response containing uppercase header field names MUST be treated&#10; &#160;&#160;as malformed. (...) Malformed requests or responses that are detected MUST be&#10; &#160;&#160;treated as a stream error of type PROTOCOL_ERROR.">
<text xml:space="preserve" text-anchor="middle" x="948" y="-136.95" font-family="Times,serif" font-size="14.00">LOWERCASE&#45;HEADER&#45;FIELD&#45;NAME</text>
</a>
</g>
</g>
<!-- HEADER&#45;ERROR&#45;&gt;LOWERCASE&#45;HEADER&#45;FIELD&#45;NAME -->
<g id="edge10" class="edge">
<title>HEADER&#45;ERROR&#45;&gt;LOWERCASE&#45;HEADER&#45;FIELD&#45;NAME</title>
<path fill="none" stroke="black" d="M738.81,-205.21C757.32,-193.29 783.24,-178.15 808,-169 813.76,-166.87 819.73,-164.9 825.8,-163.07"/>
<polygon fill="black" stroke="black" points="826.7,-166.46 835.36,-160.36 824.79,-159.72 826.7,-166.46"/>
</g>
<!-- DUPLICATE&#45;REQUEST&#45;HEADER -->
<g id="DUPLICATE&#45;REQUEST&#45;HEADER" class="node internal">
<title>DUPLICATE&#45;REQUEST&#45;HEADER</title>
<g id="a_DUPLICATE&#45;REQUEST&#45;HEADER"><a xlink:href="DUPLICATE-REQUEST-HEADER" xlink:title="NIL">
<text xml:space="preserve" text-anchor="middle" x="948" y="-190.95" font-family="Times,serif" font-size="14.00">DUPLICATE&#45;REQUEST&#45;HEADER</text>
</a>
</g>
</g>
<!-- HEADER&#45;ERROR&#45;&gt;DUPLICATE&#45;REQUEST&#45;HEADER -->
<g id="edge11" class="edge">
<title>HEADER&#45;ERROR&#45;&gt;DUPLICATE&#45;REQUEST&#45;HEADER</title>
<path fill="none" stroke="black" d="M771.95,-216.19C789.79,-214.13 810.02,-211.8 830.24,-209.47"/>
<polygon fill="black" stroke="black" points="830.42,-212.97 839.95,-208.35 829.61,-206.01 830.42,-212.97"/>
</g>
<!-- INCORRECT&#45;REQUEST&#45;PSEUDO&#45;HEADER -->
<g id="INCORRECT&#45;REQUEST&#45;PSEUDO&#45;HEADER" class="node internal">
<title>INCORRECT&#45;REQUEST&#45;PSEUDO&#45;HEADER</title>
<g id="a_INCORRECT&#45;REQUEST&#45;PSEUDO&#45;HEADER"><a xlink:href="INCORRECT-REQUEST-PSEUDO-HEADER" xlink:title="NIL">
<text xml:space="preserve" text-anchor="middle" x="948" y="-244.95" font-family="Times,serif" font-size="14.00">INCORRECT&#45;REQUEST&#45;PSEUDO&#45;HEADER</text>
</a>
</g>
</g>
<!-- HEADER&#45;ERROR&#45;&gt;INCORRECT&#45;REQUEST&#45;PSEUDO&#45;HEADER -->
<g id="edge12" class="edge">
<title>HEADER&#45;ERROR&#45;&gt;INCORRECT&#45;REQUEST&#45;PSEUDO&#45;HEADER</title>
<path fill="none" stroke="black" d="M771.95,-229.81C781.01,-230.86 790.68,-231.97 800.66,-233.12"/>
<polygon fill="black" stroke="black" points="800.2,-236.59 810.53,-234.26 801,-229.64 800.2,-236.59"/>
</g>
<!-- INCORRECT&#45;RESPONSE&#45;PSEUDO&#45;HEADER -->
<g id="INCORRECT&#45;RESPONSE&#45;PSEUDO&#45;HEADER" class="node internal">
<title>INCORRECT&#45;RESPONSE&#45;PSEUDO&#45;HEADER</title>
<g id="a_INCORRECT&#45;RESPONSE&#45;PSEUDO&#45;HEADER"><a xlink:href="INCORRECT-RESPONSE-PSEUDO-HEADER" xlink:title="NIL">
<text xml:space="preserve" text-anchor="middle" x="948" y="-298.95" font-family="Times,serif" font-size="14.00">INCORRECT&#45;RESPONSE&#45;PSEUDO&#45;HEADER</text>
</a>
</g>
</g>
<!-- HEADER&#45;ERROR&#45;&gt;INCORRECT&#45;RESPONSE&#45;PSEUDO&#45;HEADER -->
<g id="edge13" class="edge">
<title>HEADER&#45;ERROR&#45;&gt;INCORRECT&#45;RESPONSE&#45;PSEUDO&#45;HEADER</title>
<path fill="none" stroke="black" d="M738.81,-240.79C757.32,-252.71 783.24,-267.85 808,-277 813.76,-279.13 819.73,-281.1 825.8,-282.93"/>
<polygon fill="black" stroke="black" points="824.79,-286.28 835.36,-285.64 826.7,-279.54 824.79,-286.28"/>
</g>
<!-- PSEUDO&#45;HEADER&#45;AFTER&#45;TEXT&#45;HEADER -->
<g id="PSEUDO&#45;HEADER&#45;AFTER&#45;TEXT&#45;HEADER" class="node internal">
<title>PSEUDO&#45;HEADER&#45;AFTER&#45;TEXT&#45;HEADER</title>
<g id="a_PSEUDO&#45;HEADER&#45;AFTER&#45;TEXT&#45;HEADER"><a xlink:href="PSEUDO-HEADER-AFTER-TEXT-HEADER" xlink:title="Peer sent a pseudo header after a text header.">
<text xml:space="preserve" text-anchor="middle" x="948" y="-352.95" font-family="Times,serif" font-size="14.00">PSEUDO&#45;HEADER&#45;AFTER&#45;TEXT&#45;HEADER</text>
</a>
</g>
</g>
<!-- HEADER&#45;ERROR&#45;&gt;PSEUDO&#45;HEADER&#45;AFTER&#45;TEXT&#45;HEADER -->
<g id="edge14" class="edge">
<title>HEADER&#45;ERROR&#45;&gt;PSEUDO&#45;HEADER&#45;AFTER&#45;TEXT&#45;HEADER</title>
<path fill="none" stroke="black" d="M723.24,-240.81C738.5,-265.31 769.41,-308.89 808,-331 810.71,-332.55 813.49,-334.01 816.32,-335.39"/>
<polygon fill="black" stroke="black" points="814.89,-338.59 825.45,-339.43 817.72,-332.18 814.89,-338.59"/>
</g>
<!-- INCORRECT&#45;PSEUDO&#45;HEADER -->
<g id="INCORRECT&#45;PSEUDO&#45;HEADER" class="node internal">
<title>INCORRECT&#45;PSEUDO&#45;HEADER</title>
<g id="a_INCORRECT&#45;PSEUDO&#45;HEADER"><a xlink:href="INCORRECT-PSEUDO-HEADER" xlink:title="NIL">
<text xml:space="preserve" text-anchor="middle" x="948" y="-406.95" font-family="Times,serif" font-size="14.00">INCORRECT&#45;PSEUDO&#45;HEADER</text>
</a>
</g>
</g>
<!-- HEADER&#45;ERROR&#45;&gt;INCORRECT&#45;PSEUDO&#45;HEADER -->
<g id="edge15" class="edge">
<title>HEADER&#45;ERROR&#45;&gt;INCORRECT&#45;PSEUDO&#45;HEADER</title>
<path fill="none" stroke="black" d="M717.99,-241C728.64,-275.03 756.62,-348.64 808,-385 815.79,-390.51 824.41,-394.97 833.43,-398.57"/>
<polygon fill="black" stroke="black" points="832.17,-401.84 842.76,-401.91 834.52,-395.25 832.17,-401.84"/>
</g>
<!-- TOO&#45;MANY&#45;HEADERS -->
<g id="TOO&#45;MANY&#45;HEADERS" class="node internal">
<title>TOO&#45;MANY&#45;HEADERS</title>
<g id="a_TOO&#45;MANY&#45;HEADERS"><a xlink:href="TOO-MANY-HEADERS" xlink:title="NIL">
<text xml:space="preserve" text-anchor="middle" x="1204" y="-28.95" font-family="Times,serif" font-size="14.00">TOO&#45;MANY&#45;HEADERS</text>
</a>
</g>
</g>
<!-- HEADER&#45;RESOURCES&#45;ERROR&#45;&gt;TOO&#45;MANY&#45;HEADERS -->
<g id="edge16" class="edge">
<title>HEADER&#45;RESOURCES&#45;ERROR&#45;&gt;TOO&#45;MANY&#45;HEADERS</title>
<path fill="none" stroke="black" d="M1049.02,-34C1070.91,-34 1093.92,-34 1115.28,-34"/>
<polygon fill="black" stroke="black" points="1115.11,-37.5 1125.11,-34 1115.11,-30.5 1115.11,-37.5"/>
</g>
<!-- TOO&#45;LARGE&#45;HEADERS -->
<g id="TOO&#45;LARGE&#45;HEADERS" class="node internal">
<title>TOO&#45;LARGE&#45;HEADERS</title>
<g id="a_TOO&#45;LARGE&#45;HEADERS"><a xlink:href="TOO-LARGE-HEADERS" xlink:title="NIL">
<text xml:space="preserve" text-anchor="middle" x="1204" y="-82.95" font-family="Times,serif" font-size="14.00">TOO&#45;LARGE&#45;HEADERS</text>
</a>
</g>
</g>
<!-- HEADER&#45;RESOURCES&#45;ERROR&#45;&gt;TOO&#45;LARGE&#45;HEADERS -->
<g id="edge17" class="edge">
<title>HEADER&#45;RESOURCES&#45;ERROR&#45;&gt;TOO&#45;LARGE&#45;HEADERS</title>
<path fill="none" stroke="black" d="M1044.06,-51.96C1058.79,-54.89 1073.82,-57.96 1088,-61 1097.47,-63.03 1107.36,-65.23 1117.19,-67.47"/>
<polygon fill="black" stroke="black" points="1116.24,-70.84 1126.77,-69.67 1117.8,-64.02 1116.24,-70.84"/>
</g>
<!-- ERROR -->
<g id="ERROR" class="node sink">
<title>ERROR</title>
<g id="a_ERROR"><a xlink:href="ERROR" xlink:title="ERROR">
<text xml:space="preserve" text-anchor="middle" x="75.88" y="-271.95" font-family="Times,serif" font-size="14.00">ERROR</text>
</a>
</g>
</g>
<!-- ERROR&#45;&gt;HTTP&#45;STREAM&#45;ERROR -->
<g id="edge1" class="edge">
<title>ERROR&#45;&gt;HTTP&#45;STREAM&#45;ERROR</title>
<path fill="none" stroke="black" d="M106.07,-272.84C125.15,-270.12 151.19,-266.41 176.74,-262.77"/>
<polygon fill="black" stroke="black" points="177.11,-266.25 186.52,-261.38 176.13,-259.32 177.11,-266.25"/>
</g>
<!-- SERIOUS&#45;CONDITION -->
<!-- HTTP2&#45;CONDITION -->
<g id="HTTP2&#45;CONDITION" class="node sink">
<title>HTTP2&#45;CONDITION</title>
<g id="a_HTTP2&#45;CONDITION"><a xlink:href="HTTP2-CONDITION" xlink:title="HTTP2&#45;CONDITION">
<text xml:space="preserve" text-anchor="middle" x="75.88" y="-217.95" font-family="Times,serif" font-size="14.00">HTTP2&#45;CONDITION</text>
</a>
</g>
</g>
<!-- HTTP2&#45;CONDITION&#45;&gt;HTTP&#45;STREAM&#45;ERROR -->
<g id="edge2" class="edge">
<title>HTTP2&#45;CONDITION&#45;&gt;HTTP&#45;STREAM&#45;ERROR</title>
<path fill="none" stroke="black" d="M143.69,-232.52C154.39,-234.05 165.63,-235.65 176.76,-237.23"/>
<polygon fill="black" stroke="black" points="175.95,-240.65 186.35,-238.6 176.94,-233.72 175.95,-240.65"/>
</g>
</g>
</svg>
