<?xml version="1.0" encoding="UTF-8" standalone="no"?>
<!DOCTYPE svg PUBLIC "-//W3C//DTD SVG 1.1//EN"
 "http://www.w3.org/Graphics/SVG/1.1/DTD/svg11.dtd">
<!-- Generated by graphviz version 14.1.4 (20260321.0153)
 -->
<!-- Title: packages Pages: 1 -->
<svg width="1097pt" height="464pt"
 viewBox="0.00 0.00 1097.00 464.00" xmlns="http://www.w3.org/2000/svg" xmlns:xlink="http://www.w3.org/1999/xlink">
<g id="graph0" class="graph" transform="scale(1 1) rotate(0) translate(4 460.35)">
<title>packages</title>
<polygon fill="white" stroke="none" points="-4,4 -4,-460.35 1093,-460.35 1093,4 -4,4"/>
<g id="clust1" class="cluster">
<title>cluster_HTTP2_CORE</title>
<polygon fill="none" stroke="black" points="196.25,-16.35 196.25,-363.35 854.25,-363.35 854.25,-16.35 196.25,-16.35"/>
<text xml:space="preserve" text-anchor="middle" x="525.25" y="-346.05" font-family="Times,serif" font-size="14.00">HTTP2/CORE</text>
</g>
<g id="clust2" class="cluster">
<title>cluster_HTTP2_CLIENT</title>
<polygon fill="none" stroke="black" points="686.12,-371.35 686.12,-448.35 1078.75,-448.35 1078.75,-371.35 686.12,-371.35"/>
<text xml:space="preserve" text-anchor="middle" x="882.44" y="-431.05" font-family="Times,serif" font-size="14.00">HTTP2/CLIENT</text>
</g>
<g id="clust3" class="cluster">
<title>cluster_HTTP2_SERVER</title>
<polygon fill="none" stroke="black" points="874.25,-16.35 874.25,-93.35 1081,-93.35 1081,-16.35 874.25,-16.35"/>
<text xml:space="preserve" text-anchor="middle" x="977.62" y="-76.05" font-family="Times,serif" font-size="14.00">HTTP2/SERVER</text>
</g>
<!-- TEST&#45;BUFFERED&#45;STREAM -->
<g id="TEST&#45;BUFFERED&#45;STREAM" class="node internal">
<title>TEST&#45;BUFFERED&#45;STREAM</title>
<g id="a_TEST&#45;BUFFERED&#45;STREAM"><a xlink:href="TEST-BUFFERED-STREAM" xlink:title="NIL">
<text xml:space="preserve" text-anchor="middle" x="755.75" y="-91.3" font-family="Times,serif" font-size="14.00">TEST&#45;BUFFERED&#45;STREAM</text>
</a>
</g>
</g>
<!-- HTTP2&#45;STREAM -->
<g id="HTTP2&#45;STREAM" class="node external">
<title>HTTP2&#45;STREAM</title>
<g id="a_HTTP2&#45;STREAM"><a xlink:href="HTTP2-STREAM" xlink:title="Represents HTTP/2 stream. Adds request and response information, priority value&#10;and state to verify response to the HTTP2&#45;STREAM&#45;MINIMAL.">
<polygon fill="orange" stroke="none" points="584.62,-60.35 468.12,-60.35 468.12,-24.35 584.62,-24.35 584.62,-60.35"/>
<text xml:space="preserve" text-anchor="middle" x="526.38" y="-37.3" font-family="Times,serif" font-size="14.00">HTTP2&#45;STREAM</text>
</a>
</g>
</g>
<!-- HTTP2&#45;STREAM&#45;&gt;TEST&#45;BUFFERED&#45;STREAM -->
<g id="edge9" class="edge">
<title>HTTP2&#45;STREAM&#45;&gt;TEST&#45;BUFFERED&#45;STREAM</title>
<path fill="none" stroke="black" d="M584.46,-55.91C609.77,-61.92 640.12,-69.12 668.14,-75.78"/>
<polygon fill="black" stroke="black" points="667.14,-79.14 677.68,-78.05 668.76,-72.33 667.14,-79.14"/>
</g>
<!-- DUMMY&#45;STREAM -->
<g id="DUMMY&#45;STREAM" class="node internal">
<title>DUMMY&#45;STREAM</title>
<g id="a_DUMMY&#45;STREAM"><a xlink:href="DUMMY-STREAM" xlink:title="NIL">
<text xml:space="preserve" text-anchor="middle" x="755.75" y="-145.3" font-family="Times,serif" font-size="14.00">DUMMY&#45;STREAM</text>
</a>
</g>
</g>
<!-- HTTP2&#45;STREAM&#45;&gt;DUMMY&#45;STREAM -->
<g id="edge10" class="edge">
<title>HTTP2&#45;STREAM&#45;&gt;DUMMY&#45;STREAM</title>
<path fill="none" stroke="black" d="M584.49,-49.87C600.02,-53.86 616.15,-59.98 629.25,-69.35 652.71,-86.13 642.08,-106.17 665.25,-123.35 670.14,-126.97 675.52,-130.12 681.13,-132.84"/>
<polygon fill="black" stroke="black" points="679.49,-135.94 690.06,-136.7 682.27,-129.52 679.49,-135.94"/>
</g>
<!-- SERVER&#45;STREAM -->
<g id="SERVER&#45;STREAM" class="node external">
<title>SERVER&#45;STREAM</title>
<g id="a_SERVER&#45;STREAM"><a xlink:href="SERVER-STREAM" xlink:title="Server streams need to track attributes from the client headers such as PATH.">
<polygon fill="orange" stroke="none" points="819.62,-60.35 691.88,-60.35 691.88,-24.35 819.62,-24.35 819.62,-60.35"/>
<text xml:space="preserve" text-anchor="middle" x="755.75" y="-37.3" font-family="Times,serif" font-size="14.00">SERVER&#45;STREAM</text>
</a>
</g>
</g>
<!-- HTTP2&#45;STREAM&#45;&gt;SERVER&#45;STREAM -->
<g id="edge12" class="edge">
<title>HTTP2&#45;STREAM&#45;&gt;SERVER&#45;STREAM</title>
<path fill="none" stroke="black" d="M584.46,-42.35C613.63,-42.35 649.48,-42.35 680.75,-42.35"/>
<polygon fill="black" stroke="black" points="680.53,-45.85 690.53,-42.35 680.53,-38.85 680.53,-45.85"/>
</g>
<!-- VANILLA&#45;HTTP2&#45;STREAM -->
<g id="VANILLA&#45;HTTP2&#45;STREAM" class="node external">
<title>VANILLA&#45;HTTP2&#45;STREAM</title>
<g id="a_VANILLA&#45;HTTP2&#45;STREAM"><a xlink:href="VANILLA-HTTP2-STREAM" xlink:title="HTTP stream that collects received headers and body.&#10;&#10;The body is decompressed and either binary or decoded UTF&#45;8 text.">
<polygon fill="orange" stroke="none" points="845.5,-222.35 666,-222.35 666,-186.35 845.5,-186.35 845.5,-222.35"/>
<text xml:space="preserve" text-anchor="middle" x="755.75" y="-199.3" font-family="Times,serif" font-size="14.00">VANILLA&#45;HTTP2&#45;STREAM</text>
</a>
</g>
</g>
<!-- HTTP2&#45;STREAM&#45;&gt;VANILLA&#45;HTTP2&#45;STREAM -->
<g id="edge13" class="edge">
<title>HTTP2&#45;STREAM&#45;&gt;VANILLA&#45;HTTP2&#45;STREAM</title>
<path fill="none" stroke="black" d="M584.39,-47.27C600.55,-51.17 617.05,-57.89 629.25,-69.35 666.13,-103.99 628.96,-142.09 665.25,-177.35 666.15,-178.23 667.08,-179.07 668.04,-179.89"/>
<polygon fill="black" stroke="black" points="665.86,-182.64 676.01,-185.68 669.97,-176.97 665.86,-182.64"/>
</g>
<!-- CLIENT&#45;STREAM -->
<g id="CLIENT&#45;STREAM" class="node external">
<title>CLIENT&#45;STREAM</title>
<g id="a_CLIENT&#45;STREAM"><a xlink:href="CLIENT-STREAM" xlink:title="HTTP2 stream that checks headers as required for clients (no psedoheader other&#10;than :status allowed, etc.">
<polygon fill="orange" stroke="none" points="817.38,-415.35 694.12,-415.35 694.12,-379.35 817.38,-379.35 817.38,-415.35"/>
<text xml:space="preserve" text-anchor="middle" x="755.75" y="-392.3" font-family="Times,serif" font-size="14.00">CLIENT&#45;STREAM</text>
</a>
</g>
</g>
<!-- HTTP2&#45;STREAM&#45;&gt;CLIENT&#45;STREAM -->
<g id="edge11" class="edge">
<title>HTTP2&#45;STREAM&#45;&gt;CLIENT&#45;STREAM</title>
<path fill="none" stroke="black" d="M584.57,-45.51C601.23,-49.29 617.96,-56.37 629.25,-69.35 716.81,-170 580.97,-263.93 665.25,-367.35 670.45,-373.72 677.04,-378.75 684.3,-382.72"/>
<polygon fill="black" stroke="black" points="682.61,-385.79 693.15,-386.85 685.57,-379.45 682.61,-385.79"/>
</g>
<!-- VANILLA&#45;SERVER&#45;STREAM -->
<g id="VANILLA&#45;SERVER&#45;STREAM" class="node internal">
<title>VANILLA&#45;SERVER&#45;STREAM</title>
<g id="a_VANILLA&#45;SERVER&#45;STREAM"><a xlink:href="VANILLA-SERVER-STREAM" xlink:title="A server&#45;side stream that can be used as a binary output stream, optionally&#10;prints activities, and reads full body from client if clients sends one.">
<text xml:space="preserve" text-anchor="middle" x="977.62" y="-37.3" font-family="Times,serif" font-size="14.00">VANILLA&#45;SERVER&#45;STREAM</text>
</a>
</g>
</g>
<!-- SERVER&#45;STREAM&#45;&gt;VANILLA&#45;SERVER&#45;STREAM -->
<g id="edge15" class="edge">
<title>SERVER&#45;STREAM&#45;&gt;VANILLA&#45;SERVER&#45;STREAM</title>
<path fill="none" stroke="black" d="M819.46,-42.35C835.68,-42.35 853.59,-42.35 871.33,-42.35"/>
<polygon fill="black" stroke="black" points="871.14,-45.85 881.14,-42.35 871.14,-38.85 871.14,-45.85"/>
</g>
<!-- VANILLA&#45;CLIENT&#45;STREAM -->
<g id="VANILLA&#45;CLIENT&#45;STREAM" class="node external">
<title>VANILLA&#45;CLIENT&#45;STREAM</title>
<g id="a_VANILLA&#45;CLIENT&#45;STREAM"><a xlink:href="VANILLA-CLIENT-STREAM" xlink:title="Stream class for retrieve&#45;url style functions. Behaves as a client stream,&#10; &#160;&#160;allows one to treat data frames as streams, collect headers to slot HEADERS&#10; &#160;&#160;so that they can be later shown as a list, and optionally prints callback&#10; &#160;&#160;logs. See individual superclasses for details.">
<polygon fill="orange" stroke="none" points="1070.75,-415.35 884.5,-415.35 884.5,-379.35 1070.75,-379.35 1070.75,-415.35"/>
<text xml:space="preserve" text-anchor="middle" x="977.62" y="-392.3" font-family="Times,serif" font-size="14.00">VANILLA&#45;CLIENT&#45;STREAM</text>
</a>
</g>
</g>
<!-- VANILLA&#45;HTTP2&#45;STREAM&#45;&gt;VANILLA&#45;CLIENT&#45;STREAM -->
<g id="edge17" class="edge">
<title>VANILLA&#45;HTTP2&#45;STREAM&#45;&gt;VANILLA&#45;CLIENT&#45;STREAM</title>
<path fill="none" stroke="black" d="M777.04,-222.16C816.31,-256.63 902.8,-332.54 947.93,-372.16"/>
<polygon fill="black" stroke="black" points="945.42,-374.62 955.25,-378.58 950.04,-369.36 945.42,-374.62"/>
</g>
<!-- VANILLA&#45;HTTP2&#45;STREAM&#45;&gt;VANILLA&#45;SERVER&#45;STREAM -->
<g id="edge16" class="edge">
<title>VANILLA&#45;HTTP2&#45;STREAM&#45;&gt;VANILLA&#45;SERVER&#45;STREAM</title>
<path fill="none" stroke="black" d="M836.58,-186.36C842.75,-183.75 848.72,-180.76 854.25,-177.35 899.45,-149.49 937.98,-100.14 959.16,-69.44"/>
<polygon fill="black" stroke="black" points="961.87,-71.69 964.57,-61.44 956.07,-67.77 961.87,-71.69"/>
</g>
<!-- HTTP2&#45;STREAM&#45;MINIMAL -->
<g id="HTTP2&#45;STREAM&#45;MINIMAL" class="node external">
<title>HTTP2&#45;STREAM&#45;MINIMAL</title>
<g id="a_HTTP2&#45;STREAM&#45;MINIMAL"><a xlink:href="HTTP2-STREAM-MINIMAL" xlink:title="Part of representation of HTTP/2 stream needed to read and write frames.">
<polygon fill="orange" stroke="none" points="387.5,-168.35 204.25,-168.35 204.25,-132.35 387.5,-132.35 387.5,-168.35"/>
<text xml:space="preserve" text-anchor="middle" x="295.88" y="-145.3" font-family="Times,serif" font-size="14.00">HTTP2&#45;STREAM&#45;MINIMAL</text>
</a>
</g>
</g>
<!-- HTTP2&#45;STREAM&#45;MINIMAL&#45;&gt;HTTP2&#45;STREAM -->
<g id="edge18" class="edge">
<title>HTTP2&#45;STREAM&#45;MINIMAL&#45;&gt;HTTP2&#45;STREAM</title>
<path fill="none" stroke="black" d="M372.55,-132.36C377.83,-129.75 382.88,-126.76 387.5,-123.35 410.7,-106.21 400.04,-86.13 423.5,-69.35 433.53,-62.18 445.33,-56.91 457.29,-53.04"/>
<polygon fill="black" stroke="black" points="458.17,-56.43 466.8,-50.29 456.23,-49.7 458.17,-56.43"/>
</g>
<!-- BUFFERED&#45;STREAM -->
<g id="BUFFERED&#45;STREAM" class="node external">
<title>BUFFERED&#45;STREAM</title>
<g id="a_BUFFERED&#45;STREAM"><a xlink:href="BUFFERED-STREAM" xlink:title="Hold queue of data to write in a buffer. Some of the data (flushed) are to be&#10;sent as soon as possible given flow control constrains, the rest is to be send&#10;when it is efficient (to prevent small frames).">
<polygon fill="orange" stroke="none" points="368.38,-114.35 223.38,-114.35 223.38,-78.35 368.38,-78.35 368.38,-114.35"/>
<text xml:space="preserve" text-anchor="middle" x="295.88" y="-91.3" font-family="Times,serif" font-size="14.00">BUFFERED&#45;STREAM</text>
</a>
</g>
</g>
<!-- BUFFERED&#45;STREAM&#45;&gt;HTTP2&#45;STREAM -->
<g id="edge19" class="edge">
<title>BUFFERED&#45;STREAM&#45;&gt;HTTP2&#45;STREAM</title>
<path fill="none" stroke="black" d="M368.23,-79.49C396.67,-72.76 429.26,-65.06 457.35,-58.42"/>
<polygon fill="black" stroke="black" points="457.89,-61.89 466.81,-56.19 456.28,-55.08 457.89,-61.89"/>
</g>
<!-- UTF8&#45;PARSER&#45;MIXIN -->
<g id="UTF8&#45;PARSER&#45;MIXIN" class="node external">
<title>UTF8&#45;PARSER&#45;MIXIN</title>
<g id="a_UTF8&#45;PARSER&#45;MIXIN"><a xlink:href="UTF8-PARSER-MIXIN" xlink:title="Converts received UTF&#45;8 data frames to text and calls APPLY&#45;TEXT&#45;DATA&#45;FRAME on&#10;them when content type is UTF&#45;8.">
<polygon fill="orange" stroke="none" points="601.12,-276.35 451.62,-276.35 451.62,-240.35 601.12,-240.35 601.12,-276.35"/>
<text xml:space="preserve" text-anchor="middle" x="526.38" y="-253.3" font-family="Times,serif" font-size="14.00">UTF8&#45;PARSER&#45;MIXIN</text>
</a>
</g>
</g>
<!-- UTF8&#45;PARSER&#45;MIXIN&#45;&gt;VANILLA&#45;HTTP2&#45;STREAM -->
<g id="edge20" class="edge">
<title>UTF8&#45;PARSER&#45;MIXIN&#45;&gt;VANILLA&#45;HTTP2&#45;STREAM</title>
<path fill="none" stroke="black" d="M600.88,-240.89C622.31,-235.8 645.91,-230.2 668.07,-224.94"/>
<polygon fill="black" stroke="black" points="668.76,-228.37 677.68,-222.65 667.14,-221.56 668.76,-228.37"/>
</g>
<!-- GZIP&#45;DECODING&#45;MIXIN -->
<g id="GZIP&#45;DECODING&#45;MIXIN" class="node external">
<title>GZIP&#45;DECODING&#45;MIXIN</title>
<g id="a_GZIP&#45;DECODING&#45;MIXIN"><a xlink:href="GZIP-DECODING-MIXIN" xlink:title="Decompresses received gzip data when appropriate.">
<polygon fill="orange" stroke="none" points="609.75,-330.35 443,-330.35 443,-294.35 609.75,-294.35 609.75,-330.35"/>
<text xml:space="preserve" text-anchor="middle" x="526.38" y="-307.3" font-family="Times,serif" font-size="14.00">GZIP&#45;DECODING&#45;MIXIN</text>
</a>
</g>
</g>
<!-- GZIP&#45;DECODING&#45;MIXIN&#45;&gt;VANILLA&#45;HTTP2&#45;STREAM -->
<g id="edge21" class="edge">
<title>GZIP&#45;DECODING&#45;MIXIN&#45;&gt;VANILLA&#45;HTTP2&#45;STREAM</title>
<path fill="none" stroke="black" d="M605.29,-294.43C613.51,-291.74 621.64,-288.71 629.25,-285.35 663.17,-270.36 698.36,-246.84 722.81,-229"/>
<polygon fill="black" stroke="black" points="724.79,-231.89 730.74,-223.12 720.62,-226.26 724.79,-231.89"/>
</g>
<!-- HEADER&#45;COLLECTING&#45;MIXIN -->
<g id="HEADER&#45;COLLECTING&#45;MIXIN" class="node external">
<title>HEADER&#45;COLLECTING&#45;MIXIN</title>
<g id="a_HEADER&#45;COLLECTING&#45;MIXIN"><a xlink:href="HEADER-COLLECTING-MIXIN" xlink:title="Collects all observed headers (except pseudo&#45;headers).">
<polygon fill="orange" stroke="none" points="629.25,-114.35 423.5,-114.35 423.5,-78.35 629.25,-78.35 629.25,-114.35"/>
<text xml:space="preserve" text-anchor="middle" x="526.38" y="-91.3" font-family="Times,serif" font-size="14.00">HEADER&#45;COLLECTING&#45;MIXIN</text>
</a>
</g>
</g>
<!-- HEADER&#45;COLLECTING&#45;MIXIN&#45;&gt;DUMMY&#45;STREAM -->
<g id="edge22" class="edge">
<title>HEADER&#45;COLLECTING&#45;MIXIN&#45;&gt;DUMMY&#45;STREAM</title>
<path fill="none" stroke="black" d="M603.09,-114.33C627.85,-120.21 655.32,-126.73 680.01,-132.6"/>
<polygon fill="black" stroke="black" points="679.12,-135.98 689.66,-134.89 680.74,-129.17 679.12,-135.98"/>
</g>
<!-- HEADER&#45;COLLECTING&#45;MIXIN&#45;&gt;VANILLA&#45;HTTP2&#45;STREAM -->
<g id="edge23" class="edge">
<title>HEADER&#45;COLLECTING&#45;MIXIN&#45;&gt;VANILLA&#45;HTTP2&#45;STREAM</title>
<path fill="none" stroke="black" d="M613.68,-114.24C619.16,-116.87 624.41,-119.89 629.25,-123.35 652.71,-140.13 642.08,-160.17 665.25,-177.35 667.01,-178.65 668.83,-179.9 670.71,-181.08"/>
<polygon fill="black" stroke="black" points="668.7,-183.97 679.14,-185.77 672.11,-177.85 668.7,-183.97"/>
</g>
<!-- TEXT&#45;COLLECTING&#45;STREAM -->
<g id="TEXT&#45;COLLECTING&#45;STREAM" class="node external">
<title>TEXT&#45;COLLECTING&#45;STREAM</title>
<g id="a_TEXT&#45;COLLECTING&#45;STREAM"><a xlink:href="TEXT-COLLECTING-STREAM" xlink:title="Collects all the received text body (possibly unzipped data frames&#10;converted to proper encoding) into its TEXT slot.">
<polygon fill="orange" stroke="none" points="625.88,-168.35 426.88,-168.35 426.88,-132.35 625.88,-132.35 625.88,-168.35"/>
<text xml:space="preserve" text-anchor="middle" x="526.38" y="-145.3" font-family="Times,serif" font-size="14.00">TEXT&#45;COLLECTING&#45;STREAM</text>
</a>
</g>
</g>
<!-- TEXT&#45;COLLECTING&#45;STREAM&#45;&gt;VANILLA&#45;HTTP2&#45;STREAM -->
<g id="edge24" class="edge">
<title>TEXT&#45;COLLECTING&#45;STREAM&#45;&gt;VANILLA&#45;HTTP2&#45;STREAM</title>
<path fill="none" stroke="black" d="M603.09,-168.33C623.88,-173.27 646.59,-178.66 667.95,-183.73"/>
<polygon fill="black" stroke="black" points="666.97,-187.1 677.51,-186 668.59,-180.29 666.97,-187.1"/>
</g>
<!-- BODY&#45;COLLECTING&#45;MIXIN -->
<g id="BODY&#45;COLLECTING&#45;MIXIN" class="node external">
<title>BODY&#45;COLLECTING&#45;MIXIN</title>
<g id="a_BODY&#45;COLLECTING&#45;MIXIN"><a xlink:href="BODY-COLLECTING-MIXIN" xlink:title="Collects all data payloads parts to one octet array (unless diverted).">
<polygon fill="orange" stroke="none" points="620.25,-222.35 432.5,-222.35 432.5,-186.35 620.25,-186.35 620.25,-222.35"/>
<text xml:space="preserve" text-anchor="middle" x="526.38" y="-199.3" font-family="Times,serif" font-size="14.00">BODY&#45;COLLECTING&#45;MIXIN</text>
</a>
</g>
</g>
<!-- BODY&#45;COLLECTING&#45;MIXIN&#45;&gt;VANILLA&#45;HTTP2&#45;STREAM -->
<g id="edge25" class="edge">
<title>BODY&#45;COLLECTING&#45;MIXIN&#45;&gt;VANILLA&#45;HTTP2&#45;STREAM</title>
<path fill="none" stroke="black" d="M620.19,-204.35C631.61,-204.35 643.32,-204.35 654.84,-204.35"/>
<polygon fill="black" stroke="black" points="654.76,-207.85 664.76,-204.35 654.76,-200.85 654.76,-207.85"/>
</g>
<!-- FALLBACK&#45;ALL&#45;IS&#45;ASCII -->
<g id="FALLBACK&#45;ALL&#45;IS&#45;ASCII" class="node external">
<title>FALLBACK&#45;ALL&#45;IS&#45;ASCII</title>
<g id="a_FALLBACK&#45;ALL&#45;IS&#45;ASCII"><a xlink:href="FALLBACK-ALL-IS-ASCII" xlink:title="Treat all non&#45;binary data input as ASCII, that is, convert octets to a string&#10;with CODE&#45;CHAR. It is compatible with UTF8&#45;PARSER&#45;MIXIN if provided after it in&#10;the list of direct superclasses.">
<polygon fill="orange" stroke="none" points="383,-60.35 208.75,-60.35 208.75,-24.35 383,-24.35 383,-60.35"/>
<text xml:space="preserve" text-anchor="middle" x="295.88" y="-37.3" font-family="Times,serif" font-size="14.00">FALLBACK&#45;ALL&#45;IS&#45;ASCII</text>
</a>
</g>
</g>
<!-- FALLBACK&#45;ALL&#45;IS&#45;ASCII&#45;&gt;VANILLA&#45;SERVER&#45;STREAM -->
<g id="edge26" class="edge">
<title>FALLBACK&#45;ALL&#45;IS&#45;ASCII&#45;&gt;VANILLA&#45;SERVER&#45;STREAM</title>
<path fill="none" stroke="black" d="M368.44,-24.35C386.31,-20.62 405.51,-17.25 423.5,-15.35 613.89,4.72 663.93,5.4 854.25,-15.35 867.99,-16.85 882.44,-19.26 896.41,-22.05"/>
<polygon fill="black" stroke="black" points="895.5,-25.44 906.01,-24.05 896.93,-18.58 895.5,-25.44"/>
</g>
<!-- CLIENT&#45;STREAM&#45;&gt;VANILLA&#45;CLIENT&#45;STREAM -->
<g id="edge14" class="edge">
<title>CLIENT&#45;STREAM&#45;&gt;VANILLA&#45;CLIENT&#45;STREAM</title>
<path fill="none" stroke="black" d="M817.12,-397.35C834.55,-397.35 854.08,-397.35 873.34,-397.35"/>
<polygon fill="black" stroke="black" points="873.12,-400.85 883.12,-397.35 873.12,-393.85 873.12,-400.85"/>
</g>
<!-- FLOW&#45;CONTROL&#45;MIXIN -->
<g id="FLOW&#45;CONTROL&#45;MIXIN" class="node sink">
<title>FLOW&#45;CONTROL&#45;MIXIN</title>
<g id="a_FLOW&#45;CONTROL&#45;MIXIN"><a xlink:href="FLOW-CONTROL-MIXIN" xlink:title="FLOW&#45;CONTROL&#45;MIXIN">
<text xml:space="preserve" text-anchor="middle" x="84.12" y="-114.3" font-family="Times,serif" font-size="14.00">FLOW&#45;CONTROL&#45;MIXIN</text>
</a>
</g>
</g>
<!-- FLOW&#45;CONTROL&#45;MIXIN&#45;&gt;HTTP2&#45;STREAM&#45;MINIMAL -->
<g id="edge1" class="edge">
<title>FLOW&#45;CONTROL&#45;MIXIN&#45;&gt;HTTP2&#45;STREAM&#45;MINIMAL</title>
<path fill="none" stroke="black" d="M168.02,-131.6C176.21,-132.81 184.59,-134.05 192.94,-135.28"/>
<polygon fill="black" stroke="black" points="192.38,-138.74 202.79,-136.74 193.41,-131.81 192.38,-138.74"/>
</g>
<!-- FLOW&#45;CONTROL&#45;MIXIN&#45;&gt;BUFFERED&#45;STREAM -->
<g id="edge2" class="edge">
<title>FLOW&#45;CONTROL&#45;MIXIN&#45;&gt;BUFFERED&#45;STREAM</title>
<path fill="none" stroke="black" d="M168.02,-110.26C182.62,-108.66 197.82,-106.99 212.41,-105.39"/>
<polygon fill="black" stroke="black" points="212.36,-108.92 221.92,-104.35 211.6,-101.96 212.36,-108.92"/>
</g>
<!-- STANDARD&#45;OBJECT -->
<!-- STANDARD&#45;OBJECT&#45;&gt;UTF8&#45;PARSER&#45;MIXIN -->
<!-- STANDARD&#45;OBJECT&#45;&gt;GZIP&#45;DECODING&#45;MIXIN -->
<!-- STANDARD&#45;OBJECT&#45;&gt;HEADER&#45;COLLECTING&#45;MIXIN -->
<!-- STANDARD&#45;OBJECT&#45;&gt;TEXT&#45;COLLECTING&#45;STREAM -->
<!-- STANDARD&#45;OBJECT&#45;&gt;BODY&#45;COLLECTING&#45;MIXIN -->
<!-- STANDARD&#45;OBJECT&#45;&gt;FALLBACK&#45;ALL&#45;IS&#45;ASCII -->
</g>
</svg>
