<?xml version="1.0" encoding="UTF-8" standalone="no"?>
<!DOCTYPE svg PUBLIC "-//W3C//DTD SVG 1.1//EN"
 "http://www.w3.org/Graphics/SVG/1.1/DTD/svg11.dtd">
<!-- Generated by graphviz version 13.1.0 (20250701.0955)
 -->
<!-- Title: packages Pages: 1 -->
<svg width="1085pt" height="476pt"
 viewBox="0.00 0.00 1085.00 476.00" xmlns="http://www.w3.org/2000/svg" xmlns:xlink="http://www.w3.org/1999/xlink">
<g id="graph0" class="graph" transform="scale(1 1) rotate(0) translate(4 472)">
<title>packages</title>
<polygon fill="white" stroke="none" points="-4,4 -4,-472 1080.51,-472 1080.51,4 -4,4"/>
<!-- let&#45;over&#45;lambda -->
<g id="let&#45;over&#45;lambda" class="node sink">
<title>let&#45;over&#45;lambda</title>
<g id="a_let&#45;over&#45;lambda"><a xlink:href="let-over-lambda" xlink:title="let&#45;over&#45;lambda">
<polygon fill="lightblue" stroke="black" points="484.51,-279 381.5,-279 381.5,-243 484.51,-243 484.51,-279"/>
<text xml:space="preserve" text-anchor="middle" x="433.01" y="-255.95" font-family="Times,serif" font-size="14.00">let&#45;over&#45;lambda</text>
</a>
</g>
</g>
<!-- cl+ssl -->
<g id="cl+ssl" class="node sink">
<title>cl+ssl</title>
<g id="a_cl+ssl"><a xlink:href="cl+ssl" xlink:title="cl+ssl">
<polygon fill="lightblue" stroke="black" points="900.63,-414 846.63,-414 846.63,-378 900.63,-378 900.63,-414"/>
<text xml:space="preserve" text-anchor="middle" x="873.63" y="-390.95" font-family="Times,serif" font-size="14.00">cl+ssl</text>
</a>
</g>
</g>
<!-- mgl&#45;pax -->
<g id="mgl&#45;pax" class="node sink">
<title>mgl&#45;pax</title>
<g id="a_mgl&#45;pax"><a xlink:href="mgl-pax" xlink:title="mgl&#45;pax">
<polygon fill="lightblue" stroke="black" points="904.51,-360 842.76,-360 842.76,-324 904.51,-324 904.51,-360"/>
<text xml:space="preserve" text-anchor="middle" x="873.63" y="-336.95" font-family="Times,serif" font-size="14.00">mgl&#45;pax</text>
</a>
</g>
</g>
<!-- chipz -->
<g id="chipz" class="node sink">
<title>chipz</title>
<g id="a_chipz"><a xlink:href="chipz" xlink:title="chipz">
<polygon fill="lightblue" stroke="black" points="900.63,-144 846.63,-144 846.63,-108 900.63,-108 900.63,-144"/>
<text xml:space="preserve" text-anchor="middle" x="873.63" y="-120.95" font-family="Times,serif" font-size="14.00">chipz</text>
</a>
</g>
</g>
<!-- trivial&#45;utf&#45;8 -->
<g id="trivial&#45;utf&#45;8" class="node sink">
<title>trivial&#45;utf&#45;8</title>
<g id="a_trivial&#45;utf&#45;8"><a xlink:href="trivial-utf-8" xlink:title="trivial&#45;utf&#45;8">
<polygon fill="lightblue" stroke="black" points="913.13,-90 834.13,-90 834.13,-54 913.13,-54 913.13,-90"/>
<text xml:space="preserve" text-anchor="middle" x="873.63" y="-66.95" font-family="Times,serif" font-size="14.00">trivial&#45;utf&#45;8</text>
</a>
</g>
</g>
<!-- cffi -->
<g id="cffi" class="node sink">
<title>cffi</title>
<g id="a_cffi"><a xlink:href="cffi" xlink:title="cffi">
<polygon fill="lightblue" stroke="black" points="900.63,-468 846.63,-468 846.63,-432 900.63,-432 900.63,-468"/>
<text xml:space="preserve" text-anchor="middle" x="873.63" y="-444.95" font-family="Times,serif" font-size="14.00">cffi</text>
</a>
</g>
</g>
<!-- bordeaux&#45;threads -->
<g id="bordeaux&#45;threads" class="node sink">
<title>bordeaux&#45;threads</title>
<g id="a_bordeaux&#45;threads"><a xlink:href="bordeaux-threads" xlink:title="bordeaux&#45;threads">
<polygon fill="lightblue" stroke="black" points="794.01,-198 684.26,-198 684.26,-162 794.01,-162 794.01,-198"/>
<text xml:space="preserve" text-anchor="middle" x="739.13" y="-174.95" font-family="Times,serif" font-size="14.00">bordeaux&#45;threads</text>
</a>
</g>
</g>
<!-- gzip&#45;stream -->
<g id="gzip&#45;stream" class="node sink">
<title>gzip&#45;stream</title>
<g id="a_gzip&#45;stream"><a xlink:href="gzip-stream" xlink:title="gzip&#45;stream">
<polygon fill="lightblue" stroke="black" points="913.88,-36 833.38,-36 833.38,0 913.88,0 913.88,-36"/>
<text xml:space="preserve" text-anchor="middle" x="873.63" y="-12.95" font-family="Times,serif" font-size="14.00">gzip&#45;stream</text>
</a>
</g>
</g>
<!-- http2 -->
<g id="http2" class="node source">
<title>http2</title>
<g id="a_http2"><a xlink:href="http2" xlink:title="http2">
<polygon fill="lightgreen" stroke="black" points="54,-254 0,-254 0,-218 54,-218 54,-254"/>
<text xml:space="preserve" text-anchor="middle" x="27" y="-230.95" font-family="Times,serif" font-size="14.00">http2</text>
</a>
</g>
</g>
<!-- http2/client -->
<g id="http2/client" class="node">
<title>http2/client</title>
<g id="a_http2/client"><a xlink:href="http2/client" xlink:title="http2/client">
<polygon fill="none" stroke="black" points="471.76,-225 394.25,-225 394.25,-189 471.76,-189 471.76,-225"/>
<text xml:space="preserve" text-anchor="middle" x="433.01" y="-201.95" font-family="Times,serif" font-size="14.00">http2/client</text>
</a>
</g>
</g>
<!-- http2&#45;&gt;http2/client -->
<g id="edge1" class="edge">
<title>http2&#45;&gt;http2/client</title>
<path fill="none" stroke="black" d="M54.2,-234.12C120.56,-229.36 296.16,-216.75 382.56,-210.55"/>
<polygon fill="black" stroke="black" points="382.66,-214.05 392.38,-209.84 382.16,-207.07 382.66,-214.05"/>
</g>
<!-- http2/server -->
<g id="http2/server" class="node">
<title>http2/server</title>
<g id="a_http2/server"><a xlink:href="http2/server" xlink:title="http2/server">
<polygon fill="none" stroke="black" points="170.5,-279 90,-279 90,-243 170.5,-243 170.5,-279"/>
<text xml:space="preserve" text-anchor="middle" x="130.25" y="-255.95" font-family="Times,serif" font-size="14.00">http2/server</text>
</a>
</g>
</g>
<!-- http2&#45;&gt;http2/server -->
<g id="edge2" class="edge">
<title>http2&#45;&gt;http2/server</title>
<path fill="none" stroke="black" d="M54.34,-242.5C61.83,-244.35 70.26,-246.43 78.69,-248.52"/>
<polygon fill="black" stroke="black" points="77.67,-251.87 88.21,-250.87 79.34,-245.07 77.67,-251.87"/>
</g>
<!-- puri -->
<g id="puri" class="node">
<title>puri</title>
<g id="a_puri"><a xlink:href="puri" xlink:title="puri">
<polygon fill="none" stroke="black" points="615.51,-279 561.51,-279 561.51,-243 615.51,-243 615.51,-279"/>
<text xml:space="preserve" text-anchor="middle" x="588.51" y="-255.95" font-family="Times,serif" font-size="14.00">puri</text>
</a>
</g>
</g>
<!-- http2/client&#45;&gt;puri -->
<g id="edge3" class="edge">
<title>http2/client&#45;&gt;puri</title>
<path fill="none" stroke="black" d="M471.95,-220.35C495.86,-228.76 526.59,-239.57 550.35,-247.93"/>
<polygon fill="black" stroke="black" points="549.04,-251.18 559.64,-251.2 551.36,-244.58 549.04,-251.18"/>
</g>
<!-- http2/stream&#45;based -->
<g id="http2/stream&#45;based" class="node">
<title>http2/stream&#45;based</title>
<g id="a_http2/stream&#45;based"><a xlink:href="http2/stream-based" xlink:title="http2/stream&#45;based">
<polygon fill="none" stroke="black" points="648.26,-225 528.76,-225 528.76,-189 648.26,-189 648.26,-225"/>
<text xml:space="preserve" text-anchor="middle" x="588.51" y="-201.95" font-family="Times,serif" font-size="14.00">http2/stream&#45;based</text>
</a>
</g>
</g>
<!-- http2/client&#45;&gt;http2/stream&#45;based -->
<g id="edge4" class="edge">
<title>http2/client&#45;&gt;http2/stream&#45;based</title>
<path fill="none" stroke="black" d="M471.95,-207C485.67,-207 501.63,-207 517.23,-207"/>
<polygon fill="black" stroke="black" points="516.97,-210.5 526.97,-207 516.97,-203.5 516.97,-210.5"/>
</g>
<!-- http2/server/poll -->
<g id="http2/server/poll" class="node">
<title>http2/server/poll</title>
<g id="a_http2/server/poll"><a xlink:href="http2/server/poll" xlink:title="http2/server/poll">
<polygon fill="none" stroke="black" points="324.5,-279 219.25,-279 219.25,-243 324.5,-243 324.5,-279"/>
<text xml:space="preserve" text-anchor="middle" x="271.88" y="-255.95" font-family="Times,serif" font-size="14.00">http2/server/poll</text>
</a>
</g>
</g>
<!-- http2/server&#45;&gt;http2/server/poll -->
<g id="edge5" class="edge">
<title>http2/server&#45;&gt;http2/server/poll</title>
<path fill="none" stroke="black" d="M170.89,-261C182.31,-261 195.06,-261 207.54,-261"/>
<polygon fill="black" stroke="black" points="207.36,-264.5 217.36,-261 207.36,-257.5 207.36,-264.5"/>
</g>
<!-- http2/server/threaded -->
<g id="http2/server/threaded" class="node">
<title>http2/server/threaded</title>
<g id="a_http2/server/threaded"><a xlink:href="http2/server/threaded" xlink:title="http2/server/threaded">
<polygon fill="none" stroke="black" points="337.26,-333 206.5,-333 206.5,-297 337.26,-297 337.26,-333"/>
<text xml:space="preserve" text-anchor="middle" x="271.88" y="-309.95" font-family="Times,serif" font-size="14.00">http2/server/threaded</text>
</a>
</g>
</g>
<!-- http2/server&#45;&gt;http2/server/threaded -->
<g id="edge6" class="edge">
<title>http2/server&#45;&gt;http2/server/threaded</title>
<path fill="none" stroke="black" d="M170.89,-276.33C183.87,-281.35 198.57,-287.03 212.63,-292.47"/>
<polygon fill="black" stroke="black" points="211.21,-295.68 221.8,-296.02 213.74,-289.15 211.21,-295.68"/>
</g>
<!-- http2/stream&#45;based&#45;&gt;bordeaux&#45;threads -->
<g id="edge7" class="edge">
<title>http2/stream&#45;based&#45;&gt;bordeaux&#45;threads</title>
<path fill="none" stroke="black" d="M648.67,-196.25C656.6,-194.81 664.76,-193.33 672.78,-191.87"/>
<polygon fill="black" stroke="black" points="673.28,-195.34 682.5,-190.11 672.03,-188.45 673.28,-195.34"/>
</g>
<!-- http2/core -->
<g id="http2/core" class="node">
<title>http2/core</title>
<g id="a_http2/core"><a xlink:href="http2/core" xlink:title="http2/core">
<polygon fill="none" stroke="black" points="774.51,-252 703.76,-252 703.76,-216 774.51,-216 774.51,-252"/>
<text xml:space="preserve" text-anchor="middle" x="739.13" y="-228.95" font-family="Times,serif" font-size="14.00">http2/core</text>
</a>
</g>
</g>
<!-- http2/stream&#45;based&#45;&gt;http2/core -->
<g id="edge8" class="edge">
<title>http2/stream&#45;based&#45;&gt;http2/core</title>
<path fill="none" stroke="black" d="M648.67,-217.75C663.22,-220.39 678.57,-223.18 692.38,-225.69"/>
<polygon fill="black" stroke="black" points="691.6,-229.1 702.07,-227.45 692.85,-222.22 691.6,-229.1"/>
</g>
<!-- http2/server/poll&#45;&gt;let&#45;over&#45;lambda -->
<g id="edge9" class="edge">
<title>http2/server/poll&#45;&gt;let&#45;over&#45;lambda</title>
<path fill="none" stroke="black" d="M324.98,-261C339.36,-261 355.09,-261 369.97,-261"/>
<polygon fill="black" stroke="black" points="369.63,-264.5 379.63,-261 369.63,-257.5 369.63,-264.5"/>
</g>
<!-- http2/server/shared -->
<g id="http2/server/shared" class="node">
<title>http2/server/shared</title>
<g id="a_http2/server/shared"><a xlink:href="http2/server/shared" xlink:title="http2/server/shared">
<polygon fill="none" stroke="black" points="492.76,-333 373.26,-333 373.26,-297 492.76,-297 492.76,-333"/>
<text xml:space="preserve" text-anchor="middle" x="433.01" y="-309.95" font-family="Times,serif" font-size="14.00">http2/server/shared</text>
</a>
</g>
</g>
<!-- http2/server/poll&#45;&gt;http2/server/shared -->
<g id="edge10" class="edge">
<title>http2/server/poll&#45;&gt;http2/server/shared</title>
<path fill="none" stroke="black" d="M324.98,-278.68C338.42,-283.24 353.04,-288.2 367.04,-292.95"/>
<polygon fill="black" stroke="black" points="365.57,-296.15 376.16,-296.05 367.82,-289.52 365.57,-296.15"/>
</g>
<!-- http2/server/threaded&#45;&gt;http2/server/shared -->
<g id="edge11" class="edge">
<title>http2/server/threaded&#45;&gt;http2/server/shared</title>
<path fill="none" stroke="black" d="M337.6,-315C345.46,-315 353.53,-315 361.47,-315"/>
<polygon fill="black" stroke="black" points="361.47,-318.5 371.47,-315 361.47,-311.5 361.47,-318.5"/>
</g>
<!-- http2/core&#45;&gt;cl+ssl -->
<g id="edge12" class="edge">
<title>http2/core&#45;&gt;cl+ssl</title>
<path fill="none" stroke="black" d="M752.39,-252.44C776.91,-289.32 829.7,-368.7 830.01,-369 832.3,-371.24 834.8,-373.39 837.41,-375.43"/>
<polygon fill="black" stroke="black" points="835.14,-378.11 845.32,-381.04 839.19,-372.4 835.14,-378.11"/>
</g>
<!-- http2/core&#45;&gt;mgl&#45;pax -->
<g id="edge13" class="edge">
<title>http2/core&#45;&gt;mgl&#45;pax</title>
<path fill="none" stroke="black" d="M758.61,-252.36C776.24,-269.45 803.9,-295.19 830.01,-315 830.98,-315.74 831.98,-316.48 832.99,-317.22"/>
<polygon fill="black" stroke="black" points="830.93,-320.05 841.14,-322.88 834.92,-314.3 830.93,-320.05"/>
</g>
<!-- http2/core&#45;&gt;chipz -->
<g id="edge14" class="edge">
<title>http2/core&#45;&gt;chipz</title>
<path fill="none" stroke="black" d="M774.87,-219.94C781.63,-216.31 788.36,-211.99 794.01,-207 815.62,-187.9 809.37,-173.16 830.01,-153 832.3,-150.76 834.8,-148.61 837.42,-146.57"/>
<polygon fill="black" stroke="black" points="839.19,-149.6 845.32,-140.96 835.14,-143.89 839.19,-149.6"/>
</g>
<!-- http2/core&#45;&gt;trivial&#45;utf&#45;8 -->
<g id="edge15" class="edge">
<title>http2/core&#45;&gt;trivial&#45;utf&#45;8</title>
<path fill="none" stroke="black" d="M774.86,-221.64C781.93,-217.83 788.8,-213.01 794.01,-207 827.14,-168.76 798.83,-138.85 830.01,-99 830.24,-98.7 830.48,-98.41 830.72,-98.11"/>
<polygon fill="black" stroke="black" points="832.91,-100.87 837.57,-91.35 828,-95.88 832.91,-100.87"/>
</g>
<!-- http2/core&#45;&gt;gzip&#45;stream -->
<g id="edge16" class="edge">
<title>http2/core&#45;&gt;gzip&#45;stream</title>
<path fill="none" stroke="black" d="M774.77,-222.32C782.02,-218.45 788.99,-213.43 794.01,-207 839.37,-148.84 787.61,-105.35 830.01,-45 830.07,-44.9 830.14,-44.8 830.21,-44.71"/>
<polygon fill="black" stroke="black" points="832.66,-47.22 836.88,-37.5 827.52,-42.46 832.66,-47.22"/>
</g>
<!-- anaphora -->
<g id="anaphora" class="node">
<title>anaphora</title>
<g id="a_anaphora"><a xlink:href="anaphora" xlink:title="anaphora">
<polygon fill="none" stroke="black" points="906.38,-306 840.88,-306 840.88,-270 906.38,-270 906.38,-306"/>
<text xml:space="preserve" text-anchor="middle" x="873.63" y="-282.95" font-family="Times,serif" font-size="14.00">anaphora</text>
</a>
</g>
</g>
<!-- http2/core&#45;&gt;anaphora -->
<g id="edge17" class="edge">
<title>http2/core&#45;&gt;anaphora</title>
<path fill="none" stroke="black" d="M774.94,-248.19C791.91,-255.1 812.46,-263.48 830.33,-270.76"/>
<polygon fill="black" stroke="black" points="828.79,-273.91 839.37,-274.45 831.43,-267.43 828.79,-273.91"/>
</g>
<!-- flexi&#45;streams -->
<g id="flexi&#45;streams" class="node">
<title>flexi&#45;streams</title>
<g id="a_flexi&#45;streams"><a xlink:href="flexi-streams" xlink:title="flexi&#45;streams">
<polygon fill="none" stroke="black" points="917.26,-252 830.01,-252 830.01,-216 917.26,-216 917.26,-252"/>
<text xml:space="preserve" text-anchor="middle" x="873.63" y="-228.95" font-family="Times,serif" font-size="14.00">flexi&#45;streams</text>
</a>
</g>
</g>
<!-- http2/core&#45;&gt;flexi&#45;streams -->
<g id="edge18" class="edge">
<title>http2/core&#45;&gt;flexi&#45;streams</title>
<path fill="none" stroke="black" d="M774.94,-234C788.13,-234 803.49,-234 818.06,-234"/>
<polygon fill="black" stroke="black" points="818.01,-237.5 828.01,-234 818.01,-230.5 818.01,-237.5"/>
</g>
<!-- alexandria -->
<g id="alexandria" class="node">
<title>alexandria</title>
<g id="a_alexandria"><a xlink:href="alexandria" xlink:title="alexandria">
<polygon fill="none" stroke="black" points="909.76,-198 837.5,-198 837.5,-162 909.76,-162 909.76,-198"/>
<text xml:space="preserve" text-anchor="middle" x="873.63" y="-174.95" font-family="Times,serif" font-size="14.00">alexandria</text>
</a>
</g>
</g>
<!-- http2/core&#45;&gt;alexandria -->
<g id="edge19" class="edge">
<title>http2/core&#45;&gt;alexandria</title>
<path fill="none" stroke="black" d="M774.94,-219.81C790.82,-213.34 809.83,-205.6 826.84,-198.66"/>
<polygon fill="black" stroke="black" points="827.79,-202.06 835.73,-195.04 825.15,-195.57 827.79,-202.06"/>
</g>
<!-- http2/server/shared&#45;&gt;puri -->
<g id="edge20" class="edge">
<title>http2/server/shared&#45;&gt;puri</title>
<path fill="none" stroke="black" d="M486.4,-296.57C507.46,-289.16 531.24,-280.79 550.45,-274.04"/>
<polygon fill="black" stroke="black" points="551.47,-277.39 559.74,-270.77 549.15,-270.78 551.47,-277.39"/>
</g>
<!-- http2/server/shared&#45;&gt;http2/stream&#45;based -->
<g id="edge21" class="edge">
<title>http2/server/shared&#45;&gt;http2/stream&#45;based</title>
<path fill="none" stroke="black" d="M480.72,-296.54C484.99,-293.98 489.08,-291.13 492.76,-288 514.69,-269.27 506.82,-252.73 528.76,-234 529.67,-233.22 530.62,-232.45 531.58,-231.7"/>
<polygon fill="black" stroke="black" points="533.23,-234.82 539.54,-226.31 529.3,-229.02 533.23,-234.82"/>
</g>
<!-- http2/openssl -->
<g id="http2/openssl" class="node">
<title>http2/openssl</title>
<g id="a_http2/openssl"><a xlink:href="http2/openssl" xlink:title="http2/openssl">
<polygon fill="none" stroke="black" points="632.51,-333 544.51,-333 544.51,-297 632.51,-297 632.51,-333"/>
<text xml:space="preserve" text-anchor="middle" x="588.51" y="-309.95" font-family="Times,serif" font-size="14.00">http2/openssl</text>
</a>
</g>
</g>
<!-- http2/server/shared&#45;&gt;http2/openssl -->
<g id="edge22" class="edge">
<title>http2/server/shared&#45;&gt;http2/openssl</title>
<path fill="none" stroke="black" d="M492.91,-315C506.12,-315 520.08,-315 533.09,-315"/>
<polygon fill="black" stroke="black" points="532.74,-318.5 542.74,-315 532.74,-311.5 532.74,-318.5"/>
</g>
<!-- trivial&#45;gray&#45;streams -->
<g id="trivial&#45;gray&#45;streams" class="node">
<title>trivial&#45;gray&#45;streams</title>
<g id="a_trivial&#45;gray&#45;streams"><a xlink:href="trivial-gray-streams" xlink:title="trivial&#45;gray&#45;streams">
<polygon fill="none" stroke="black" points="1076.51,-252 953.26,-252 953.26,-216 1076.51,-216 1076.51,-252"/>
<text xml:space="preserve" text-anchor="middle" x="1014.88" y="-228.95" font-family="Times,serif" font-size="14.00">trivial&#45;gray&#45;streams</text>
</a>
</g>
</g>
<!-- flexi&#45;streams&#45;&gt;trivial&#45;gray&#45;streams -->
<g id="edge23" class="edge">
<title>flexi&#45;streams&#45;&gt;trivial&#45;gray&#45;streams</title>
<path fill="none" stroke="black" d="M917.55,-234C925.24,-234 933.44,-234 941.69,-234"/>
<polygon fill="black" stroke="black" points="941.42,-237.5 951.42,-234 941.42,-230.5 941.42,-237.5"/>
</g>
<!-- http2/openssl&#45;&gt;http2/core -->
<g id="edge24" class="edge">
<title>http2/openssl&#45;&gt;http2/core</title>
<path fill="none" stroke="black" d="M631.19,-296.54C636.97,-293.77 642.8,-290.88 648.26,-288 665.58,-278.85 684.23,-267.84 700.03,-258.16"/>
<polygon fill="black" stroke="black" points="701.5,-261.37 708.17,-253.13 697.82,-255.41 701.5,-261.37"/>
</g>
<!-- http2/tcpip -->
<g id="http2/tcpip" class="node">
<title>http2/tcpip</title>
<g id="a_http2/tcpip"><a xlink:href="http2/tcpip" xlink:title="http2/tcpip">
<polygon fill="none" stroke="black" points="776.38,-360 701.88,-360 701.88,-324 776.38,-324 776.38,-360"/>
<text xml:space="preserve" text-anchor="middle" x="739.13" y="-336.95" font-family="Times,serif" font-size="14.00">http2/tcpip</text>
</a>
</g>
</g>
<!-- http2/openssl&#45;&gt;http2/tcpip -->
<g id="edge25" class="edge">
<title>http2/openssl&#45;&gt;http2/tcpip</title>
<path fill="none" stroke="black" d="M632.89,-322.88C650.92,-326.16 671.89,-329.97 690.35,-333.32"/>
<polygon fill="black" stroke="black" points="689.52,-336.73 699.98,-335.07 690.77,-329.84 689.52,-336.73"/>
</g>
<!-- http2/tcpip&#45;&gt;cl+ssl -->
<g id="edge26" class="edge">
<title>http2/tcpip&#45;&gt;cl+ssl</title>
<path fill="none" stroke="black" d="M776.69,-356.9C795.04,-364.38 817.23,-373.42 835.65,-380.93"/>
<polygon fill="black" stroke="black" points="834.29,-384.15 844.87,-384.69 836.93,-377.67 834.29,-384.15"/>
</g>
<!-- http2/tcpip&#45;&gt;mgl&#45;pax -->
<g id="edge27" class="edge">
<title>http2/tcpip&#45;&gt;mgl&#45;pax</title>
<path fill="none" stroke="black" d="M776.69,-342C793.65,-342 813.89,-342 831.4,-342"/>
<polygon fill="black" stroke="black" points="830.94,-345.5 840.94,-342 830.94,-338.5 830.94,-345.5"/>
</g>
<!-- http2/tcpip&#45;&gt;cffi -->
<g id="edge28" class="edge">
<title>http2/tcpip&#45;&gt;cffi</title>
<path fill="none" stroke="black" d="M758.61,-360.36C776.24,-377.45 803.9,-403.19 830.01,-423 832.26,-424.71 834.63,-426.43 837.05,-428.11"/>
<polygon fill="black" stroke="black" points="834.95,-430.91 845.2,-433.56 838.84,-425.09 834.95,-430.91"/>
</g>
<!-- http2/tcpip&#45;&gt;anaphora -->
<g id="edge29" class="edge">
<title>http2/tcpip&#45;&gt;anaphora</title>
<path fill="none" stroke="black" d="M776.69,-327.1C793.31,-320.33 813.07,-312.27 830.33,-305.24"/>
<polygon fill="black" stroke="black" points="831.36,-308.6 839.3,-301.58 828.72,-302.12 831.36,-308.6"/>
</g>
</g>
</svg>
